M48
;GenerationSoftware,Autodesk,EAGLE,9.6.2*%
;CreationDate,2021-01-20T11:17:38Z*%
FMAT,2
ICI,OFF
METRIC,TZ,000.000
T7C0.350
T6C0.800
T5C0.813
T4C0.900
T3C1.016
T2C1.300
T1C2.750
%
G90
M71
T1
X3500Y52500
X61500Y52500
X3500Y3500
X61500Y3500
T2
X4000Y31400
X4000Y26400
T3
X33800Y53740
X33800Y51200
X31260Y53740
X31260Y51200
X28720Y53740
X28720Y51200
X26180Y53740
X26180Y51200
X23640Y53740
X23640Y51200
X21100Y51200
X18560Y53740
X18560Y51200
X16020Y53740
X16020Y51200
X13480Y53740
X36500Y31603
X13480Y51200
X21353Y24410
X24147Y24410
X37983Y24410
X40777Y24410
X54713Y24410
X57507Y24410
X2500Y47500
X5040Y47500
X2500Y44960
X5040Y44960
X2500Y42420
X5040Y42420
X10940Y53740
X5040Y39880
X2500Y37340
X5040Y37340
X8400Y51200
X4500Y20350
X4500Y17810
X4500Y15270
X21100Y53740
X4500Y12730
X4500Y10190
X4500Y7650
X10940Y51200
X8400Y53740
X36340Y53740
X38880Y51200
X38880Y53740
X41420Y51200
X41420Y53740
X43960Y51200
X43960Y53740
X46500Y51200
X46500Y53740
X49040Y51200
X49040Y53740
X51580Y51200
X51580Y53740
X54120Y51200
X54120Y53740
X56660Y51200
X56660Y53740
X2500Y39880
X36340Y51200
X39460Y44660
X42000Y44660
X44540Y44660
X42000Y34397
X42000Y31603
X36500Y34397
T4
X15450Y27340
X26560Y19800
X18940Y19800
X31980Y19820
X31980Y27440
X43190Y19900
X35570Y19900
X48710Y19920
X48710Y27540
X59920Y20000
X52300Y20000
X11450Y38860
X11450Y46480
X16330Y46390
X21470Y46500
X21470Y38880
X55190Y29500
X62810Y29500
X62810Y33500
X55190Y33500
X27210Y14300
X19590Y14300
X39710Y14300
X32090Y14300
X52210Y14300
X16330Y38770
X44590Y14300
X15450Y19720
T5
X34630Y8800
X37170Y8800
X47130Y8800
X49670Y8800
X29600Y43330
X28330Y41425
X27060Y43330
X55190Y43270
X55190Y40730
X55190Y38190
X62810Y38190
X62810Y40730
X62810Y45810
X24670Y8800
X62810Y43270
X22130Y8800
X55190Y45810
T6
X11460Y33000
X16540Y33000
X29040Y33000
X23960Y33000
T7
X58700Y11500
X6100Y28800
X13400Y8400
X27900Y27200
X26200Y48000
X63990Y39460
X64010Y42000
X6200Y55000
X5500Y49500
X1000Y49500
X20500Y33000
X11500Y43500
X62700Y36000
X45500Y22500
X17000Y29500
X61500Y48000
X51900Y43000
X49800Y35900
X12300Y48800
X64000Y44500
M30