G04 EAGLE Gerber RS-274X export*
G75*
%MOMM*%
%FSLAX34Y34*%
%LPD*%
%INSilk bottom*%
%IPPOS*%
%AMOC8*
5,1,8,0,0,1.08239X$1,22.5*%
G01*
%ADD10C,0.000000*%
%ADD11C,0.152400*%
%ADD12C,0.203200*%
%ADD13C,0.127000*%

G36*
X146005Y551954D02*
X146005Y551954D01*
X146008Y551951D01*
X146317Y552000D01*
X146325Y552008D01*
X146331Y552005D01*
X146610Y552147D01*
X146615Y552157D01*
X146623Y552156D01*
X146844Y552377D01*
X146845Y552389D01*
X146853Y552390D01*
X146995Y552669D01*
X146994Y552673D01*
X146998Y552676D01*
X146995Y552680D01*
X147000Y552683D01*
X147049Y552992D01*
X147046Y552997D01*
X147049Y553000D01*
X147049Y560000D01*
X147013Y560047D01*
X147006Y560042D01*
X147000Y560049D01*
X123000Y560049D01*
X122953Y560013D01*
X122958Y560006D01*
X122951Y560000D01*
X122951Y553000D01*
X122954Y552995D01*
X122951Y552992D01*
X123000Y552683D01*
X123008Y552675D01*
X123005Y552669D01*
X123147Y552390D01*
X123157Y552385D01*
X123156Y552377D01*
X123377Y552156D01*
X123389Y552155D01*
X123390Y552147D01*
X123669Y552005D01*
X123680Y552007D01*
X123683Y552000D01*
X123992Y551951D01*
X123997Y551954D01*
X124000Y551951D01*
X146000Y551951D01*
X146005Y551954D01*
G37*
D10*
X21250Y525000D02*
X21254Y525337D01*
X21267Y525675D01*
X21287Y526012D01*
X21316Y526348D01*
X21353Y526683D01*
X21399Y527018D01*
X21452Y527351D01*
X21514Y527682D01*
X21584Y528013D01*
X21662Y528341D01*
X21748Y528667D01*
X21842Y528991D01*
X21944Y529313D01*
X22054Y529632D01*
X22171Y529949D01*
X22297Y530262D01*
X22430Y530572D01*
X22570Y530879D01*
X22718Y531182D01*
X22874Y531482D01*
X23036Y531777D01*
X23206Y532069D01*
X23383Y532356D01*
X23567Y532639D01*
X23758Y532917D01*
X23956Y533191D01*
X24160Y533459D01*
X24371Y533723D01*
X24588Y533981D01*
X24812Y534234D01*
X25042Y534481D01*
X25277Y534723D01*
X25519Y534958D01*
X25766Y535188D01*
X26019Y535412D01*
X26277Y535629D01*
X26541Y535840D01*
X26809Y536044D01*
X27083Y536242D01*
X27361Y536433D01*
X27644Y536617D01*
X27931Y536794D01*
X28223Y536964D01*
X28518Y537126D01*
X28818Y537282D01*
X29121Y537430D01*
X29428Y537570D01*
X29738Y537703D01*
X30051Y537829D01*
X30368Y537946D01*
X30687Y538056D01*
X31009Y538158D01*
X31333Y538252D01*
X31659Y538338D01*
X31987Y538416D01*
X32318Y538486D01*
X32649Y538548D01*
X32982Y538601D01*
X33317Y538647D01*
X33652Y538684D01*
X33988Y538713D01*
X34325Y538733D01*
X34663Y538746D01*
X35000Y538750D01*
X35337Y538746D01*
X35675Y538733D01*
X36012Y538713D01*
X36348Y538684D01*
X36683Y538647D01*
X37018Y538601D01*
X37351Y538548D01*
X37682Y538486D01*
X38013Y538416D01*
X38341Y538338D01*
X38667Y538252D01*
X38991Y538158D01*
X39313Y538056D01*
X39632Y537946D01*
X39949Y537829D01*
X40262Y537703D01*
X40572Y537570D01*
X40879Y537430D01*
X41182Y537282D01*
X41482Y537126D01*
X41777Y536964D01*
X42069Y536794D01*
X42356Y536617D01*
X42639Y536433D01*
X42917Y536242D01*
X43191Y536044D01*
X43459Y535840D01*
X43723Y535629D01*
X43981Y535412D01*
X44234Y535188D01*
X44481Y534958D01*
X44723Y534723D01*
X44958Y534481D01*
X45188Y534234D01*
X45412Y533981D01*
X45629Y533723D01*
X45840Y533459D01*
X46044Y533191D01*
X46242Y532917D01*
X46433Y532639D01*
X46617Y532356D01*
X46794Y532069D01*
X46964Y531777D01*
X47126Y531482D01*
X47282Y531182D01*
X47430Y530879D01*
X47570Y530572D01*
X47703Y530262D01*
X47829Y529949D01*
X47946Y529632D01*
X48056Y529313D01*
X48158Y528991D01*
X48252Y528667D01*
X48338Y528341D01*
X48416Y528013D01*
X48486Y527682D01*
X48548Y527351D01*
X48601Y527018D01*
X48647Y526683D01*
X48684Y526348D01*
X48713Y526012D01*
X48733Y525675D01*
X48746Y525337D01*
X48750Y525000D01*
X48746Y524663D01*
X48733Y524325D01*
X48713Y523988D01*
X48684Y523652D01*
X48647Y523317D01*
X48601Y522982D01*
X48548Y522649D01*
X48486Y522318D01*
X48416Y521987D01*
X48338Y521659D01*
X48252Y521333D01*
X48158Y521009D01*
X48056Y520687D01*
X47946Y520368D01*
X47829Y520051D01*
X47703Y519738D01*
X47570Y519428D01*
X47430Y519121D01*
X47282Y518818D01*
X47126Y518518D01*
X46964Y518223D01*
X46794Y517931D01*
X46617Y517644D01*
X46433Y517361D01*
X46242Y517083D01*
X46044Y516809D01*
X45840Y516541D01*
X45629Y516277D01*
X45412Y516019D01*
X45188Y515766D01*
X44958Y515519D01*
X44723Y515277D01*
X44481Y515042D01*
X44234Y514812D01*
X43981Y514588D01*
X43723Y514371D01*
X43459Y514160D01*
X43191Y513956D01*
X42917Y513758D01*
X42639Y513567D01*
X42356Y513383D01*
X42069Y513206D01*
X41777Y513036D01*
X41482Y512874D01*
X41182Y512718D01*
X40879Y512570D01*
X40572Y512430D01*
X40262Y512297D01*
X39949Y512171D01*
X39632Y512054D01*
X39313Y511944D01*
X38991Y511842D01*
X38667Y511748D01*
X38341Y511662D01*
X38013Y511584D01*
X37682Y511514D01*
X37351Y511452D01*
X37018Y511399D01*
X36683Y511353D01*
X36348Y511316D01*
X36012Y511287D01*
X35675Y511267D01*
X35337Y511254D01*
X35000Y511250D01*
X34663Y511254D01*
X34325Y511267D01*
X33988Y511287D01*
X33652Y511316D01*
X33317Y511353D01*
X32982Y511399D01*
X32649Y511452D01*
X32318Y511514D01*
X31987Y511584D01*
X31659Y511662D01*
X31333Y511748D01*
X31009Y511842D01*
X30687Y511944D01*
X30368Y512054D01*
X30051Y512171D01*
X29738Y512297D01*
X29428Y512430D01*
X29121Y512570D01*
X28818Y512718D01*
X28518Y512874D01*
X28223Y513036D01*
X27931Y513206D01*
X27644Y513383D01*
X27361Y513567D01*
X27083Y513758D01*
X26809Y513956D01*
X26541Y514160D01*
X26277Y514371D01*
X26019Y514588D01*
X25766Y514812D01*
X25519Y515042D01*
X25277Y515277D01*
X25042Y515519D01*
X24812Y515766D01*
X24588Y516019D01*
X24371Y516277D01*
X24160Y516541D01*
X23956Y516809D01*
X23758Y517083D01*
X23567Y517361D01*
X23383Y517644D01*
X23206Y517931D01*
X23036Y518223D01*
X22874Y518518D01*
X22718Y518818D01*
X22570Y519121D01*
X22430Y519428D01*
X22297Y519738D01*
X22171Y520051D01*
X22054Y520368D01*
X21944Y520687D01*
X21842Y521009D01*
X21748Y521333D01*
X21662Y521659D01*
X21584Y521987D01*
X21514Y522318D01*
X21452Y522649D01*
X21399Y522982D01*
X21353Y523317D01*
X21316Y523652D01*
X21287Y523988D01*
X21267Y524325D01*
X21254Y524663D01*
X21250Y525000D01*
X601250Y525000D02*
X601254Y525337D01*
X601267Y525675D01*
X601287Y526012D01*
X601316Y526348D01*
X601353Y526683D01*
X601399Y527018D01*
X601452Y527351D01*
X601514Y527682D01*
X601584Y528013D01*
X601662Y528341D01*
X601748Y528667D01*
X601842Y528991D01*
X601944Y529313D01*
X602054Y529632D01*
X602171Y529949D01*
X602297Y530262D01*
X602430Y530572D01*
X602570Y530879D01*
X602718Y531182D01*
X602874Y531482D01*
X603036Y531777D01*
X603206Y532069D01*
X603383Y532356D01*
X603567Y532639D01*
X603758Y532917D01*
X603956Y533191D01*
X604160Y533459D01*
X604371Y533723D01*
X604588Y533981D01*
X604812Y534234D01*
X605042Y534481D01*
X605277Y534723D01*
X605519Y534958D01*
X605766Y535188D01*
X606019Y535412D01*
X606277Y535629D01*
X606541Y535840D01*
X606809Y536044D01*
X607083Y536242D01*
X607361Y536433D01*
X607644Y536617D01*
X607931Y536794D01*
X608223Y536964D01*
X608518Y537126D01*
X608818Y537282D01*
X609121Y537430D01*
X609428Y537570D01*
X609738Y537703D01*
X610051Y537829D01*
X610368Y537946D01*
X610687Y538056D01*
X611009Y538158D01*
X611333Y538252D01*
X611659Y538338D01*
X611987Y538416D01*
X612318Y538486D01*
X612649Y538548D01*
X612982Y538601D01*
X613317Y538647D01*
X613652Y538684D01*
X613988Y538713D01*
X614325Y538733D01*
X614663Y538746D01*
X615000Y538750D01*
X615337Y538746D01*
X615675Y538733D01*
X616012Y538713D01*
X616348Y538684D01*
X616683Y538647D01*
X617018Y538601D01*
X617351Y538548D01*
X617682Y538486D01*
X618013Y538416D01*
X618341Y538338D01*
X618667Y538252D01*
X618991Y538158D01*
X619313Y538056D01*
X619632Y537946D01*
X619949Y537829D01*
X620262Y537703D01*
X620572Y537570D01*
X620879Y537430D01*
X621182Y537282D01*
X621482Y537126D01*
X621777Y536964D01*
X622069Y536794D01*
X622356Y536617D01*
X622639Y536433D01*
X622917Y536242D01*
X623191Y536044D01*
X623459Y535840D01*
X623723Y535629D01*
X623981Y535412D01*
X624234Y535188D01*
X624481Y534958D01*
X624723Y534723D01*
X624958Y534481D01*
X625188Y534234D01*
X625412Y533981D01*
X625629Y533723D01*
X625840Y533459D01*
X626044Y533191D01*
X626242Y532917D01*
X626433Y532639D01*
X626617Y532356D01*
X626794Y532069D01*
X626964Y531777D01*
X627126Y531482D01*
X627282Y531182D01*
X627430Y530879D01*
X627570Y530572D01*
X627703Y530262D01*
X627829Y529949D01*
X627946Y529632D01*
X628056Y529313D01*
X628158Y528991D01*
X628252Y528667D01*
X628338Y528341D01*
X628416Y528013D01*
X628486Y527682D01*
X628548Y527351D01*
X628601Y527018D01*
X628647Y526683D01*
X628684Y526348D01*
X628713Y526012D01*
X628733Y525675D01*
X628746Y525337D01*
X628750Y525000D01*
X628746Y524663D01*
X628733Y524325D01*
X628713Y523988D01*
X628684Y523652D01*
X628647Y523317D01*
X628601Y522982D01*
X628548Y522649D01*
X628486Y522318D01*
X628416Y521987D01*
X628338Y521659D01*
X628252Y521333D01*
X628158Y521009D01*
X628056Y520687D01*
X627946Y520368D01*
X627829Y520051D01*
X627703Y519738D01*
X627570Y519428D01*
X627430Y519121D01*
X627282Y518818D01*
X627126Y518518D01*
X626964Y518223D01*
X626794Y517931D01*
X626617Y517644D01*
X626433Y517361D01*
X626242Y517083D01*
X626044Y516809D01*
X625840Y516541D01*
X625629Y516277D01*
X625412Y516019D01*
X625188Y515766D01*
X624958Y515519D01*
X624723Y515277D01*
X624481Y515042D01*
X624234Y514812D01*
X623981Y514588D01*
X623723Y514371D01*
X623459Y514160D01*
X623191Y513956D01*
X622917Y513758D01*
X622639Y513567D01*
X622356Y513383D01*
X622069Y513206D01*
X621777Y513036D01*
X621482Y512874D01*
X621182Y512718D01*
X620879Y512570D01*
X620572Y512430D01*
X620262Y512297D01*
X619949Y512171D01*
X619632Y512054D01*
X619313Y511944D01*
X618991Y511842D01*
X618667Y511748D01*
X618341Y511662D01*
X618013Y511584D01*
X617682Y511514D01*
X617351Y511452D01*
X617018Y511399D01*
X616683Y511353D01*
X616348Y511316D01*
X616012Y511287D01*
X615675Y511267D01*
X615337Y511254D01*
X615000Y511250D01*
X614663Y511254D01*
X614325Y511267D01*
X613988Y511287D01*
X613652Y511316D01*
X613317Y511353D01*
X612982Y511399D01*
X612649Y511452D01*
X612318Y511514D01*
X611987Y511584D01*
X611659Y511662D01*
X611333Y511748D01*
X611009Y511842D01*
X610687Y511944D01*
X610368Y512054D01*
X610051Y512171D01*
X609738Y512297D01*
X609428Y512430D01*
X609121Y512570D01*
X608818Y512718D01*
X608518Y512874D01*
X608223Y513036D01*
X607931Y513206D01*
X607644Y513383D01*
X607361Y513567D01*
X607083Y513758D01*
X606809Y513956D01*
X606541Y514160D01*
X606277Y514371D01*
X606019Y514588D01*
X605766Y514812D01*
X605519Y515042D01*
X605277Y515277D01*
X605042Y515519D01*
X604812Y515766D01*
X604588Y516019D01*
X604371Y516277D01*
X604160Y516541D01*
X603956Y516809D01*
X603758Y517083D01*
X603567Y517361D01*
X603383Y517644D01*
X603206Y517931D01*
X603036Y518223D01*
X602874Y518518D01*
X602718Y518818D01*
X602570Y519121D01*
X602430Y519428D01*
X602297Y519738D01*
X602171Y520051D01*
X602054Y520368D01*
X601944Y520687D01*
X601842Y521009D01*
X601748Y521333D01*
X601662Y521659D01*
X601584Y521987D01*
X601514Y522318D01*
X601452Y522649D01*
X601399Y522982D01*
X601353Y523317D01*
X601316Y523652D01*
X601287Y523988D01*
X601267Y524325D01*
X601254Y524663D01*
X601250Y525000D01*
X21250Y35000D02*
X21254Y35337D01*
X21267Y35675D01*
X21287Y36012D01*
X21316Y36348D01*
X21353Y36683D01*
X21399Y37018D01*
X21452Y37351D01*
X21514Y37682D01*
X21584Y38013D01*
X21662Y38341D01*
X21748Y38667D01*
X21842Y38991D01*
X21944Y39313D01*
X22054Y39632D01*
X22171Y39949D01*
X22297Y40262D01*
X22430Y40572D01*
X22570Y40879D01*
X22718Y41182D01*
X22874Y41482D01*
X23036Y41777D01*
X23206Y42069D01*
X23383Y42356D01*
X23567Y42639D01*
X23758Y42917D01*
X23956Y43191D01*
X24160Y43459D01*
X24371Y43723D01*
X24588Y43981D01*
X24812Y44234D01*
X25042Y44481D01*
X25277Y44723D01*
X25519Y44958D01*
X25766Y45188D01*
X26019Y45412D01*
X26277Y45629D01*
X26541Y45840D01*
X26809Y46044D01*
X27083Y46242D01*
X27361Y46433D01*
X27644Y46617D01*
X27931Y46794D01*
X28223Y46964D01*
X28518Y47126D01*
X28818Y47282D01*
X29121Y47430D01*
X29428Y47570D01*
X29738Y47703D01*
X30051Y47829D01*
X30368Y47946D01*
X30687Y48056D01*
X31009Y48158D01*
X31333Y48252D01*
X31659Y48338D01*
X31987Y48416D01*
X32318Y48486D01*
X32649Y48548D01*
X32982Y48601D01*
X33317Y48647D01*
X33652Y48684D01*
X33988Y48713D01*
X34325Y48733D01*
X34663Y48746D01*
X35000Y48750D01*
X35337Y48746D01*
X35675Y48733D01*
X36012Y48713D01*
X36348Y48684D01*
X36683Y48647D01*
X37018Y48601D01*
X37351Y48548D01*
X37682Y48486D01*
X38013Y48416D01*
X38341Y48338D01*
X38667Y48252D01*
X38991Y48158D01*
X39313Y48056D01*
X39632Y47946D01*
X39949Y47829D01*
X40262Y47703D01*
X40572Y47570D01*
X40879Y47430D01*
X41182Y47282D01*
X41482Y47126D01*
X41777Y46964D01*
X42069Y46794D01*
X42356Y46617D01*
X42639Y46433D01*
X42917Y46242D01*
X43191Y46044D01*
X43459Y45840D01*
X43723Y45629D01*
X43981Y45412D01*
X44234Y45188D01*
X44481Y44958D01*
X44723Y44723D01*
X44958Y44481D01*
X45188Y44234D01*
X45412Y43981D01*
X45629Y43723D01*
X45840Y43459D01*
X46044Y43191D01*
X46242Y42917D01*
X46433Y42639D01*
X46617Y42356D01*
X46794Y42069D01*
X46964Y41777D01*
X47126Y41482D01*
X47282Y41182D01*
X47430Y40879D01*
X47570Y40572D01*
X47703Y40262D01*
X47829Y39949D01*
X47946Y39632D01*
X48056Y39313D01*
X48158Y38991D01*
X48252Y38667D01*
X48338Y38341D01*
X48416Y38013D01*
X48486Y37682D01*
X48548Y37351D01*
X48601Y37018D01*
X48647Y36683D01*
X48684Y36348D01*
X48713Y36012D01*
X48733Y35675D01*
X48746Y35337D01*
X48750Y35000D01*
X48746Y34663D01*
X48733Y34325D01*
X48713Y33988D01*
X48684Y33652D01*
X48647Y33317D01*
X48601Y32982D01*
X48548Y32649D01*
X48486Y32318D01*
X48416Y31987D01*
X48338Y31659D01*
X48252Y31333D01*
X48158Y31009D01*
X48056Y30687D01*
X47946Y30368D01*
X47829Y30051D01*
X47703Y29738D01*
X47570Y29428D01*
X47430Y29121D01*
X47282Y28818D01*
X47126Y28518D01*
X46964Y28223D01*
X46794Y27931D01*
X46617Y27644D01*
X46433Y27361D01*
X46242Y27083D01*
X46044Y26809D01*
X45840Y26541D01*
X45629Y26277D01*
X45412Y26019D01*
X45188Y25766D01*
X44958Y25519D01*
X44723Y25277D01*
X44481Y25042D01*
X44234Y24812D01*
X43981Y24588D01*
X43723Y24371D01*
X43459Y24160D01*
X43191Y23956D01*
X42917Y23758D01*
X42639Y23567D01*
X42356Y23383D01*
X42069Y23206D01*
X41777Y23036D01*
X41482Y22874D01*
X41182Y22718D01*
X40879Y22570D01*
X40572Y22430D01*
X40262Y22297D01*
X39949Y22171D01*
X39632Y22054D01*
X39313Y21944D01*
X38991Y21842D01*
X38667Y21748D01*
X38341Y21662D01*
X38013Y21584D01*
X37682Y21514D01*
X37351Y21452D01*
X37018Y21399D01*
X36683Y21353D01*
X36348Y21316D01*
X36012Y21287D01*
X35675Y21267D01*
X35337Y21254D01*
X35000Y21250D01*
X34663Y21254D01*
X34325Y21267D01*
X33988Y21287D01*
X33652Y21316D01*
X33317Y21353D01*
X32982Y21399D01*
X32649Y21452D01*
X32318Y21514D01*
X31987Y21584D01*
X31659Y21662D01*
X31333Y21748D01*
X31009Y21842D01*
X30687Y21944D01*
X30368Y22054D01*
X30051Y22171D01*
X29738Y22297D01*
X29428Y22430D01*
X29121Y22570D01*
X28818Y22718D01*
X28518Y22874D01*
X28223Y23036D01*
X27931Y23206D01*
X27644Y23383D01*
X27361Y23567D01*
X27083Y23758D01*
X26809Y23956D01*
X26541Y24160D01*
X26277Y24371D01*
X26019Y24588D01*
X25766Y24812D01*
X25519Y25042D01*
X25277Y25277D01*
X25042Y25519D01*
X24812Y25766D01*
X24588Y26019D01*
X24371Y26277D01*
X24160Y26541D01*
X23956Y26809D01*
X23758Y27083D01*
X23567Y27361D01*
X23383Y27644D01*
X23206Y27931D01*
X23036Y28223D01*
X22874Y28518D01*
X22718Y28818D01*
X22570Y29121D01*
X22430Y29428D01*
X22297Y29738D01*
X22171Y30051D01*
X22054Y30368D01*
X21944Y30687D01*
X21842Y31009D01*
X21748Y31333D01*
X21662Y31659D01*
X21584Y31987D01*
X21514Y32318D01*
X21452Y32649D01*
X21399Y32982D01*
X21353Y33317D01*
X21316Y33652D01*
X21287Y33988D01*
X21267Y34325D01*
X21254Y34663D01*
X21250Y35000D01*
X601250Y35000D02*
X601254Y35337D01*
X601267Y35675D01*
X601287Y36012D01*
X601316Y36348D01*
X601353Y36683D01*
X601399Y37018D01*
X601452Y37351D01*
X601514Y37682D01*
X601584Y38013D01*
X601662Y38341D01*
X601748Y38667D01*
X601842Y38991D01*
X601944Y39313D01*
X602054Y39632D01*
X602171Y39949D01*
X602297Y40262D01*
X602430Y40572D01*
X602570Y40879D01*
X602718Y41182D01*
X602874Y41482D01*
X603036Y41777D01*
X603206Y42069D01*
X603383Y42356D01*
X603567Y42639D01*
X603758Y42917D01*
X603956Y43191D01*
X604160Y43459D01*
X604371Y43723D01*
X604588Y43981D01*
X604812Y44234D01*
X605042Y44481D01*
X605277Y44723D01*
X605519Y44958D01*
X605766Y45188D01*
X606019Y45412D01*
X606277Y45629D01*
X606541Y45840D01*
X606809Y46044D01*
X607083Y46242D01*
X607361Y46433D01*
X607644Y46617D01*
X607931Y46794D01*
X608223Y46964D01*
X608518Y47126D01*
X608818Y47282D01*
X609121Y47430D01*
X609428Y47570D01*
X609738Y47703D01*
X610051Y47829D01*
X610368Y47946D01*
X610687Y48056D01*
X611009Y48158D01*
X611333Y48252D01*
X611659Y48338D01*
X611987Y48416D01*
X612318Y48486D01*
X612649Y48548D01*
X612982Y48601D01*
X613317Y48647D01*
X613652Y48684D01*
X613988Y48713D01*
X614325Y48733D01*
X614663Y48746D01*
X615000Y48750D01*
X615337Y48746D01*
X615675Y48733D01*
X616012Y48713D01*
X616348Y48684D01*
X616683Y48647D01*
X617018Y48601D01*
X617351Y48548D01*
X617682Y48486D01*
X618013Y48416D01*
X618341Y48338D01*
X618667Y48252D01*
X618991Y48158D01*
X619313Y48056D01*
X619632Y47946D01*
X619949Y47829D01*
X620262Y47703D01*
X620572Y47570D01*
X620879Y47430D01*
X621182Y47282D01*
X621482Y47126D01*
X621777Y46964D01*
X622069Y46794D01*
X622356Y46617D01*
X622639Y46433D01*
X622917Y46242D01*
X623191Y46044D01*
X623459Y45840D01*
X623723Y45629D01*
X623981Y45412D01*
X624234Y45188D01*
X624481Y44958D01*
X624723Y44723D01*
X624958Y44481D01*
X625188Y44234D01*
X625412Y43981D01*
X625629Y43723D01*
X625840Y43459D01*
X626044Y43191D01*
X626242Y42917D01*
X626433Y42639D01*
X626617Y42356D01*
X626794Y42069D01*
X626964Y41777D01*
X627126Y41482D01*
X627282Y41182D01*
X627430Y40879D01*
X627570Y40572D01*
X627703Y40262D01*
X627829Y39949D01*
X627946Y39632D01*
X628056Y39313D01*
X628158Y38991D01*
X628252Y38667D01*
X628338Y38341D01*
X628416Y38013D01*
X628486Y37682D01*
X628548Y37351D01*
X628601Y37018D01*
X628647Y36683D01*
X628684Y36348D01*
X628713Y36012D01*
X628733Y35675D01*
X628746Y35337D01*
X628750Y35000D01*
X628746Y34663D01*
X628733Y34325D01*
X628713Y33988D01*
X628684Y33652D01*
X628647Y33317D01*
X628601Y32982D01*
X628548Y32649D01*
X628486Y32318D01*
X628416Y31987D01*
X628338Y31659D01*
X628252Y31333D01*
X628158Y31009D01*
X628056Y30687D01*
X627946Y30368D01*
X627829Y30051D01*
X627703Y29738D01*
X627570Y29428D01*
X627430Y29121D01*
X627282Y28818D01*
X627126Y28518D01*
X626964Y28223D01*
X626794Y27931D01*
X626617Y27644D01*
X626433Y27361D01*
X626242Y27083D01*
X626044Y26809D01*
X625840Y26541D01*
X625629Y26277D01*
X625412Y26019D01*
X625188Y25766D01*
X624958Y25519D01*
X624723Y25277D01*
X624481Y25042D01*
X624234Y24812D01*
X623981Y24588D01*
X623723Y24371D01*
X623459Y24160D01*
X623191Y23956D01*
X622917Y23758D01*
X622639Y23567D01*
X622356Y23383D01*
X622069Y23206D01*
X621777Y23036D01*
X621482Y22874D01*
X621182Y22718D01*
X620879Y22570D01*
X620572Y22430D01*
X620262Y22297D01*
X619949Y22171D01*
X619632Y22054D01*
X619313Y21944D01*
X618991Y21842D01*
X618667Y21748D01*
X618341Y21662D01*
X618013Y21584D01*
X617682Y21514D01*
X617351Y21452D01*
X617018Y21399D01*
X616683Y21353D01*
X616348Y21316D01*
X616012Y21287D01*
X615675Y21267D01*
X615337Y21254D01*
X615000Y21250D01*
X614663Y21254D01*
X614325Y21267D01*
X613988Y21287D01*
X613652Y21316D01*
X613317Y21353D01*
X612982Y21399D01*
X612649Y21452D01*
X612318Y21514D01*
X611987Y21584D01*
X611659Y21662D01*
X611333Y21748D01*
X611009Y21842D01*
X610687Y21944D01*
X610368Y22054D01*
X610051Y22171D01*
X609738Y22297D01*
X609428Y22430D01*
X609121Y22570D01*
X608818Y22718D01*
X608518Y22874D01*
X608223Y23036D01*
X607931Y23206D01*
X607644Y23383D01*
X607361Y23567D01*
X607083Y23758D01*
X606809Y23956D01*
X606541Y24160D01*
X606277Y24371D01*
X606019Y24588D01*
X605766Y24812D01*
X605519Y25042D01*
X605277Y25277D01*
X605042Y25519D01*
X604812Y25766D01*
X604588Y26019D01*
X604371Y26277D01*
X604160Y26541D01*
X603956Y26809D01*
X603758Y27083D01*
X603567Y27361D01*
X603383Y27644D01*
X603206Y27931D01*
X603036Y28223D01*
X602874Y28518D01*
X602718Y28818D01*
X602570Y29121D01*
X602430Y29428D01*
X602297Y29738D01*
X602171Y30051D01*
X602054Y30368D01*
X601944Y30687D01*
X601842Y31009D01*
X601748Y31333D01*
X601662Y31659D01*
X601584Y31987D01*
X601514Y32318D01*
X601452Y32649D01*
X601399Y32982D01*
X601353Y33317D01*
X601316Y33652D01*
X601287Y33988D01*
X601267Y34325D01*
X601254Y34663D01*
X601250Y35000D01*
D11*
X91000Y496000D02*
X75000Y496000D01*
X25000Y110000D02*
X25000Y90000D01*
X70000Y500000D02*
X580000Y500000D01*
X580000Y550000D01*
X70000Y550000D01*
X70000Y500000D01*
D12*
X30000Y0D02*
X620000Y0D01*
X620725Y9D01*
X621449Y35D01*
X622173Y79D01*
X622895Y140D01*
X623616Y219D01*
X624335Y315D01*
X625051Y428D01*
X625764Y559D01*
X626474Y707D01*
X627179Y872D01*
X627881Y1054D01*
X628578Y1253D01*
X629271Y1468D01*
X629957Y1701D01*
X630638Y1950D01*
X631313Y2215D01*
X631981Y2496D01*
X632642Y2794D01*
X633296Y3107D01*
X633942Y3436D01*
X634580Y3781D01*
X635209Y4141D01*
X635829Y4516D01*
X636440Y4906D01*
X637042Y5310D01*
X637634Y5729D01*
X638215Y6163D01*
X638786Y6610D01*
X639345Y7071D01*
X639894Y7545D01*
X640430Y8032D01*
X640955Y8532D01*
X641468Y9045D01*
X641968Y9570D01*
X642455Y10106D01*
X642929Y10655D01*
X643390Y11214D01*
X643837Y11785D01*
X644271Y12366D01*
X644690Y12958D01*
X645094Y13560D01*
X645484Y14171D01*
X645859Y14791D01*
X646219Y15420D01*
X646564Y16058D01*
X646893Y16704D01*
X647206Y17358D01*
X647504Y18019D01*
X647785Y18687D01*
X648050Y19362D01*
X648299Y20043D01*
X648532Y20729D01*
X648747Y21422D01*
X648946Y22119D01*
X649128Y22821D01*
X649293Y23526D01*
X649441Y24236D01*
X649572Y24949D01*
X649685Y25665D01*
X649781Y26384D01*
X649860Y27105D01*
X649921Y27827D01*
X649965Y28551D01*
X649991Y29275D01*
X650000Y30000D01*
X650000Y530000D01*
X649991Y530725D01*
X649965Y531449D01*
X649921Y532173D01*
X649860Y532895D01*
X649781Y533616D01*
X649685Y534335D01*
X649572Y535051D01*
X649441Y535764D01*
X649293Y536474D01*
X649128Y537179D01*
X648946Y537881D01*
X648747Y538578D01*
X648532Y539271D01*
X648299Y539957D01*
X648050Y540638D01*
X647785Y541313D01*
X647504Y541981D01*
X647206Y542642D01*
X646893Y543296D01*
X646564Y543942D01*
X646219Y544580D01*
X645859Y545209D01*
X645484Y545829D01*
X645094Y546440D01*
X644690Y547042D01*
X644271Y547634D01*
X643837Y548215D01*
X643390Y548786D01*
X642929Y549345D01*
X642455Y549894D01*
X641968Y550430D01*
X641468Y550955D01*
X640955Y551468D01*
X640430Y551968D01*
X639894Y552455D01*
X639345Y552929D01*
X638786Y553390D01*
X638215Y553837D01*
X637634Y554271D01*
X637042Y554690D01*
X636440Y555094D01*
X635829Y555484D01*
X635209Y555859D01*
X634580Y556219D01*
X633942Y556564D01*
X633296Y556893D01*
X632642Y557206D01*
X631981Y557504D01*
X631313Y557785D01*
X630638Y558050D01*
X629957Y558299D01*
X629271Y558532D01*
X628578Y558747D01*
X627881Y558946D01*
X627179Y559128D01*
X626474Y559293D01*
X625764Y559441D01*
X625051Y559572D01*
X624335Y559685D01*
X623616Y559781D01*
X622895Y559860D01*
X622173Y559921D01*
X621449Y559965D01*
X620725Y559991D01*
X620000Y560000D01*
X30000Y560000D01*
X29275Y559991D01*
X28551Y559965D01*
X27827Y559921D01*
X27105Y559860D01*
X26384Y559781D01*
X25665Y559685D01*
X24949Y559572D01*
X24236Y559441D01*
X23526Y559293D01*
X22821Y559128D01*
X22119Y558946D01*
X21422Y558747D01*
X20729Y558532D01*
X20043Y558299D01*
X19362Y558050D01*
X18687Y557785D01*
X18019Y557504D01*
X17358Y557206D01*
X16704Y556893D01*
X16058Y556564D01*
X15420Y556219D01*
X14791Y555859D01*
X14171Y555484D01*
X13560Y555094D01*
X12958Y554690D01*
X12366Y554271D01*
X11785Y553837D01*
X11214Y553390D01*
X10655Y552929D01*
X10106Y552455D01*
X9570Y551968D01*
X9045Y551468D01*
X8532Y550955D01*
X8032Y550430D01*
X7545Y549894D01*
X7071Y549345D01*
X6610Y548786D01*
X6163Y548215D01*
X5729Y547634D01*
X5310Y547042D01*
X4906Y546440D01*
X4516Y545829D01*
X4141Y545209D01*
X3781Y544580D01*
X3436Y543942D01*
X3107Y543296D01*
X2794Y542642D01*
X2496Y541981D01*
X2215Y541313D01*
X1950Y540638D01*
X1701Y539957D01*
X1468Y539271D01*
X1253Y538578D01*
X1054Y537881D01*
X872Y537179D01*
X707Y536474D01*
X559Y535764D01*
X428Y535051D01*
X315Y534335D01*
X219Y533616D01*
X140Y532895D01*
X79Y532173D01*
X35Y531449D01*
X9Y530725D01*
X0Y530000D01*
X0Y30000D01*
X9Y29275D01*
X35Y28551D01*
X79Y27827D01*
X140Y27105D01*
X219Y26384D01*
X315Y25665D01*
X428Y24949D01*
X559Y24236D01*
X707Y23526D01*
X872Y22821D01*
X1054Y22119D01*
X1253Y21422D01*
X1468Y20729D01*
X1701Y20043D01*
X1950Y19362D01*
X2215Y18687D01*
X2496Y18019D01*
X2794Y17358D01*
X3107Y16704D01*
X3436Y16058D01*
X3781Y15420D01*
X4141Y14791D01*
X4516Y14171D01*
X4906Y13560D01*
X5310Y12958D01*
X5729Y12366D01*
X6163Y11785D01*
X6610Y11214D01*
X7071Y10655D01*
X7545Y10106D01*
X8032Y9570D01*
X8532Y9045D01*
X9045Y8532D01*
X9570Y8032D01*
X10106Y7545D01*
X10655Y7071D01*
X11214Y6610D01*
X11785Y6163D01*
X12366Y5729D01*
X12958Y5310D01*
X13560Y4906D01*
X14171Y4516D01*
X14791Y4141D01*
X15420Y3781D01*
X16058Y3436D01*
X16704Y3107D01*
X17358Y2794D01*
X18019Y2496D01*
X18687Y2215D01*
X19362Y1950D01*
X20043Y1701D01*
X20729Y1468D01*
X21422Y1253D01*
X22119Y1054D01*
X22821Y872D01*
X23526Y707D01*
X24236Y559D01*
X24949Y428D01*
X25665Y315D01*
X26384Y219D01*
X27105Y140D01*
X27827Y79D01*
X28551Y35D01*
X29275Y9D01*
X30000Y0D01*
X8490Y468650D02*
X8490Y481350D01*
X259400Y107050D02*
X259400Y68950D01*
X384400Y68950D02*
X384400Y107050D01*
X509400Y107050D02*
X509400Y68950D01*
D13*
X580065Y491275D02*
X580065Y496101D01*
X578724Y496101D01*
X578653Y496099D01*
X578581Y496093D01*
X578511Y496084D01*
X578441Y496071D01*
X578371Y496054D01*
X578303Y496033D01*
X578236Y496009D01*
X578170Y495981D01*
X578106Y495950D01*
X578043Y495915D01*
X577983Y495877D01*
X577924Y495836D01*
X577868Y495792D01*
X577814Y495745D01*
X577763Y495696D01*
X577715Y495643D01*
X577669Y495588D01*
X577627Y495531D01*
X577587Y495471D01*
X577551Y495410D01*
X577518Y495346D01*
X577489Y495281D01*
X577463Y495215D01*
X577440Y495147D01*
X577421Y495078D01*
X577406Y495008D01*
X577395Y494938D01*
X577387Y494867D01*
X577383Y494796D01*
X577383Y494724D01*
X577387Y494653D01*
X577395Y494582D01*
X577406Y494512D01*
X577421Y494442D01*
X577440Y494373D01*
X577463Y494305D01*
X577489Y494239D01*
X577518Y494174D01*
X577551Y494110D01*
X577587Y494049D01*
X577627Y493989D01*
X577669Y493932D01*
X577715Y493877D01*
X577763Y493824D01*
X577814Y493775D01*
X577868Y493728D01*
X577924Y493684D01*
X577983Y493643D01*
X578043Y493605D01*
X578106Y493570D01*
X578170Y493539D01*
X578236Y493511D01*
X578303Y493487D01*
X578371Y493466D01*
X578441Y493449D01*
X578511Y493436D01*
X578581Y493427D01*
X578653Y493421D01*
X578724Y493419D01*
X578724Y493420D02*
X580065Y493420D01*
X578456Y493420D02*
X577384Y491275D01*
X574910Y491275D02*
X573302Y496101D01*
X571693Y491275D01*
X572095Y492482D02*
X574508Y492482D01*
X567730Y491275D02*
X567665Y491277D01*
X567601Y491283D01*
X567537Y491293D01*
X567473Y491306D01*
X567411Y491324D01*
X567350Y491345D01*
X567290Y491369D01*
X567232Y491398D01*
X567175Y491430D01*
X567121Y491465D01*
X567069Y491503D01*
X567019Y491545D01*
X566972Y491589D01*
X566928Y491636D01*
X566886Y491686D01*
X566848Y491738D01*
X566813Y491792D01*
X566781Y491849D01*
X566752Y491907D01*
X566728Y491967D01*
X566707Y492028D01*
X566689Y492090D01*
X566676Y492154D01*
X566666Y492218D01*
X566660Y492282D01*
X566658Y492347D01*
X567730Y491275D02*
X567824Y491277D01*
X567918Y491283D01*
X568012Y491293D01*
X568105Y491306D01*
X568197Y491324D01*
X568289Y491345D01*
X568380Y491370D01*
X568470Y491399D01*
X568558Y491432D01*
X568645Y491468D01*
X568730Y491508D01*
X568814Y491551D01*
X568895Y491598D01*
X568975Y491648D01*
X569053Y491701D01*
X569128Y491758D01*
X569201Y491817D01*
X569271Y491880D01*
X569339Y491945D01*
X569204Y495029D02*
X569202Y495094D01*
X569196Y495158D01*
X569186Y495222D01*
X569173Y495286D01*
X569155Y495348D01*
X569134Y495409D01*
X569110Y495469D01*
X569081Y495527D01*
X569049Y495584D01*
X569014Y495638D01*
X568976Y495690D01*
X568934Y495740D01*
X568890Y495787D01*
X568843Y495831D01*
X568793Y495873D01*
X568741Y495911D01*
X568687Y495946D01*
X568630Y495978D01*
X568572Y496007D01*
X568512Y496031D01*
X568451Y496052D01*
X568389Y496070D01*
X568325Y496083D01*
X568261Y496093D01*
X568197Y496099D01*
X568132Y496101D01*
X568046Y496099D01*
X567960Y496094D01*
X567874Y496084D01*
X567789Y496071D01*
X567704Y496055D01*
X567620Y496035D01*
X567537Y496011D01*
X567455Y495984D01*
X567375Y495953D01*
X567295Y495919D01*
X567218Y495881D01*
X567142Y495840D01*
X567068Y495796D01*
X566995Y495749D01*
X566925Y495699D01*
X568669Y494091D02*
X568722Y494124D01*
X568773Y494161D01*
X568822Y494200D01*
X568869Y494242D01*
X568913Y494287D01*
X568954Y494334D01*
X568993Y494383D01*
X569029Y494435D01*
X569062Y494489D01*
X569091Y494544D01*
X569117Y494601D01*
X569140Y494660D01*
X569160Y494719D01*
X569176Y494780D01*
X569189Y494841D01*
X569198Y494904D01*
X569203Y494966D01*
X569205Y495029D01*
X567194Y493285D02*
X567141Y493252D01*
X567090Y493215D01*
X567041Y493176D01*
X566994Y493134D01*
X566950Y493089D01*
X566909Y493042D01*
X566870Y492993D01*
X566834Y492941D01*
X566801Y492887D01*
X566772Y492832D01*
X566746Y492775D01*
X566723Y492716D01*
X566703Y492657D01*
X566687Y492596D01*
X566674Y492535D01*
X566665Y492472D01*
X566660Y492410D01*
X566658Y492347D01*
X567194Y493286D02*
X568669Y494090D01*
X563706Y496101D02*
X563706Y491275D01*
X563706Y496101D02*
X562365Y496101D01*
X562294Y496099D01*
X562222Y496093D01*
X562152Y496084D01*
X562082Y496071D01*
X562012Y496054D01*
X561944Y496033D01*
X561877Y496009D01*
X561811Y495981D01*
X561747Y495950D01*
X561684Y495915D01*
X561624Y495877D01*
X561565Y495836D01*
X561509Y495792D01*
X561455Y495745D01*
X561404Y495696D01*
X561356Y495643D01*
X561310Y495588D01*
X561268Y495531D01*
X561228Y495471D01*
X561192Y495410D01*
X561159Y495346D01*
X561130Y495281D01*
X561104Y495215D01*
X561081Y495147D01*
X561062Y495078D01*
X561047Y495008D01*
X561036Y494938D01*
X561028Y494867D01*
X561024Y494796D01*
X561024Y494724D01*
X561028Y494653D01*
X561036Y494582D01*
X561047Y494512D01*
X561062Y494442D01*
X561081Y494373D01*
X561104Y494305D01*
X561130Y494239D01*
X561159Y494174D01*
X561192Y494110D01*
X561228Y494049D01*
X561268Y493989D01*
X561310Y493932D01*
X561356Y493877D01*
X561404Y493824D01*
X561455Y493775D01*
X561509Y493728D01*
X561565Y493684D01*
X561624Y493643D01*
X561684Y493605D01*
X561747Y493570D01*
X561811Y493539D01*
X561877Y493511D01*
X561944Y493487D01*
X562012Y493466D01*
X562082Y493449D01*
X562152Y493436D01*
X562222Y493427D01*
X562294Y493421D01*
X562365Y493419D01*
X562365Y493420D02*
X563706Y493420D01*
X558220Y493956D02*
X556879Y493956D01*
X556879Y493957D02*
X556808Y493955D01*
X556736Y493949D01*
X556666Y493940D01*
X556596Y493927D01*
X556526Y493910D01*
X556458Y493889D01*
X556391Y493865D01*
X556325Y493837D01*
X556261Y493806D01*
X556198Y493771D01*
X556138Y493733D01*
X556079Y493692D01*
X556023Y493648D01*
X555969Y493601D01*
X555918Y493552D01*
X555870Y493499D01*
X555824Y493444D01*
X555782Y493387D01*
X555742Y493327D01*
X555706Y493266D01*
X555673Y493202D01*
X555644Y493137D01*
X555618Y493071D01*
X555595Y493003D01*
X555576Y492934D01*
X555561Y492864D01*
X555550Y492794D01*
X555542Y492723D01*
X555538Y492652D01*
X555538Y492580D01*
X555542Y492509D01*
X555550Y492438D01*
X555561Y492368D01*
X555576Y492298D01*
X555595Y492229D01*
X555618Y492161D01*
X555644Y492095D01*
X555673Y492030D01*
X555706Y491966D01*
X555742Y491905D01*
X555782Y491845D01*
X555824Y491788D01*
X555870Y491733D01*
X555918Y491680D01*
X555969Y491631D01*
X556023Y491584D01*
X556079Y491540D01*
X556138Y491499D01*
X556198Y491461D01*
X556261Y491426D01*
X556325Y491395D01*
X556391Y491367D01*
X556458Y491343D01*
X556526Y491322D01*
X556596Y491305D01*
X556666Y491292D01*
X556736Y491283D01*
X556808Y491277D01*
X556879Y491275D01*
X558220Y491275D01*
X558220Y496101D01*
X556879Y496101D01*
X556814Y496099D01*
X556750Y496093D01*
X556686Y496083D01*
X556622Y496070D01*
X556560Y496052D01*
X556499Y496031D01*
X556439Y496007D01*
X556381Y495978D01*
X556324Y495946D01*
X556270Y495911D01*
X556218Y495873D01*
X556168Y495831D01*
X556121Y495787D01*
X556077Y495740D01*
X556035Y495690D01*
X555997Y495638D01*
X555962Y495584D01*
X555930Y495527D01*
X555901Y495469D01*
X555877Y495409D01*
X555856Y495348D01*
X555838Y495286D01*
X555825Y495222D01*
X555815Y495158D01*
X555809Y495094D01*
X555807Y495029D01*
X555809Y494964D01*
X555815Y494900D01*
X555825Y494836D01*
X555838Y494772D01*
X555856Y494710D01*
X555877Y494649D01*
X555901Y494589D01*
X555930Y494531D01*
X555962Y494474D01*
X555997Y494420D01*
X556035Y494368D01*
X556077Y494318D01*
X556121Y494271D01*
X556168Y494227D01*
X556218Y494185D01*
X556270Y494147D01*
X556324Y494112D01*
X556381Y494080D01*
X556439Y494051D01*
X556499Y494027D01*
X556560Y494006D01*
X556622Y493988D01*
X556686Y493975D01*
X556750Y493965D01*
X556814Y493959D01*
X556879Y493957D01*
X552860Y491275D02*
X550715Y491275D01*
X552860Y491275D02*
X552860Y496101D01*
X550715Y496101D01*
X551252Y493956D02*
X552860Y493956D01*
X548061Y496101D02*
X548061Y491275D01*
X548061Y496101D02*
X546721Y496101D01*
X546650Y496099D01*
X546578Y496093D01*
X546508Y496084D01*
X546438Y496071D01*
X546368Y496054D01*
X546300Y496033D01*
X546233Y496009D01*
X546167Y495981D01*
X546103Y495950D01*
X546040Y495915D01*
X545980Y495877D01*
X545921Y495836D01*
X545865Y495792D01*
X545811Y495745D01*
X545760Y495696D01*
X545712Y495643D01*
X545666Y495588D01*
X545624Y495531D01*
X545584Y495471D01*
X545548Y495410D01*
X545515Y495346D01*
X545486Y495281D01*
X545460Y495215D01*
X545437Y495147D01*
X545418Y495078D01*
X545403Y495008D01*
X545392Y494938D01*
X545384Y494867D01*
X545380Y494796D01*
X545380Y494724D01*
X545384Y494653D01*
X545392Y494582D01*
X545403Y494512D01*
X545418Y494442D01*
X545437Y494373D01*
X545460Y494305D01*
X545486Y494239D01*
X545515Y494174D01*
X545548Y494110D01*
X545584Y494049D01*
X545624Y493989D01*
X545666Y493932D01*
X545712Y493877D01*
X545760Y493824D01*
X545811Y493775D01*
X545865Y493728D01*
X545921Y493684D01*
X545980Y493643D01*
X546040Y493605D01*
X546103Y493570D01*
X546167Y493539D01*
X546233Y493511D01*
X546300Y493487D01*
X546368Y493466D01*
X546438Y493449D01*
X546508Y493436D01*
X546578Y493427D01*
X546650Y493421D01*
X546721Y493419D01*
X546721Y493420D02*
X548061Y493420D01*
X546453Y493420D02*
X545380Y491275D01*
X542392Y491275D02*
X542392Y496101D01*
X541051Y496101D01*
X540980Y496099D01*
X540908Y496093D01*
X540838Y496084D01*
X540768Y496071D01*
X540698Y496054D01*
X540630Y496033D01*
X540563Y496009D01*
X540497Y495981D01*
X540433Y495950D01*
X540370Y495915D01*
X540310Y495877D01*
X540251Y495836D01*
X540195Y495792D01*
X540141Y495745D01*
X540090Y495696D01*
X540042Y495643D01*
X539996Y495588D01*
X539954Y495531D01*
X539914Y495471D01*
X539878Y495410D01*
X539845Y495346D01*
X539816Y495281D01*
X539790Y495215D01*
X539767Y495147D01*
X539748Y495078D01*
X539733Y495008D01*
X539722Y494938D01*
X539714Y494867D01*
X539710Y494796D01*
X539710Y494724D01*
X539714Y494653D01*
X539722Y494582D01*
X539733Y494512D01*
X539748Y494442D01*
X539767Y494373D01*
X539790Y494305D01*
X539816Y494239D01*
X539845Y494174D01*
X539878Y494110D01*
X539914Y494049D01*
X539954Y493989D01*
X539996Y493932D01*
X540042Y493877D01*
X540090Y493824D01*
X540141Y493775D01*
X540195Y493728D01*
X540251Y493684D01*
X540310Y493643D01*
X540370Y493605D01*
X540433Y493570D01*
X540497Y493539D01*
X540563Y493511D01*
X540630Y493487D01*
X540698Y493466D01*
X540768Y493449D01*
X540838Y493436D01*
X540908Y493427D01*
X540980Y493421D01*
X541051Y493419D01*
X541051Y493420D02*
X542392Y493420D01*
X540783Y493420D02*
X539711Y491275D01*
X535629Y493822D02*
X537237Y496101D01*
X535629Y493822D02*
X534020Y496101D01*
X535629Y493822D02*
X535629Y491275D01*
X531154Y491275D02*
X531154Y496101D01*
X529813Y496101D01*
X529742Y496099D01*
X529670Y496093D01*
X529600Y496084D01*
X529530Y496071D01*
X529460Y496054D01*
X529392Y496033D01*
X529325Y496009D01*
X529259Y495981D01*
X529195Y495950D01*
X529132Y495915D01*
X529072Y495877D01*
X529013Y495836D01*
X528957Y495792D01*
X528903Y495745D01*
X528852Y495696D01*
X528804Y495643D01*
X528758Y495588D01*
X528716Y495531D01*
X528676Y495471D01*
X528640Y495410D01*
X528607Y495346D01*
X528578Y495281D01*
X528552Y495215D01*
X528529Y495147D01*
X528510Y495078D01*
X528495Y495008D01*
X528484Y494938D01*
X528476Y494867D01*
X528472Y494796D01*
X528472Y494724D01*
X528476Y494653D01*
X528484Y494582D01*
X528495Y494512D01*
X528510Y494442D01*
X528529Y494373D01*
X528552Y494305D01*
X528578Y494239D01*
X528607Y494174D01*
X528640Y494110D01*
X528676Y494049D01*
X528716Y493989D01*
X528758Y493932D01*
X528804Y493877D01*
X528852Y493824D01*
X528903Y493775D01*
X528957Y493728D01*
X529013Y493684D01*
X529072Y493643D01*
X529132Y493605D01*
X529195Y493570D01*
X529259Y493539D01*
X529325Y493511D01*
X529392Y493487D01*
X529460Y493466D01*
X529530Y493449D01*
X529600Y493436D01*
X529670Y493427D01*
X529742Y493421D01*
X529813Y493419D01*
X529813Y493420D02*
X531154Y493420D01*
X525753Y491275D02*
X525753Y496101D01*
X526290Y491275D02*
X525217Y491275D01*
X525217Y496101D02*
X526290Y496101D01*
M02*
