<svg version="1.1" xmlns="http://www.w3.org/2000/svg" xmlns:xlink="http://www.w3.org/1999/xlink" stroke-linecap="round" stroke-linejoin="round" stroke-width="0" fill-rule="evenodd" width="65.2032mm" height="56.203199999999995mm" viewBox="-101.6 -101.6 65203.2 56203.2" id="aY5zb89qAoMdFEmKqH5z"><g transform="translate(0,56000) scale(1,-1)" fill="currentColor" stroke="currentColor"><path d="M 14600.5 55195.4 14600.5 55195.4 14600.8 55195.1 14631.7 55200 14632.5 55200.8 14633.1 55200.5 14661 55214.7 14661.5 55215.7 14662.3 55215.6 14684.4 55237.7 14684.5 55238.9 14685.3 55239 14699.5 55266.9 14699.4 55267.3 14699.8 55267.6 14699.5 55268 14700 55268.3 14704.9 55299.2 14704.6 55299.7 14704.9 55300 14704.9 56000 14701.3 56004.7 14700.6 56004.2 14700 56004.9 12300 56004.9 12295.3 56001.3 12295.8 56000.6 12295.1 56000 12295.1 55300 12295.4 55299.5 12295.1 55299.2 12300 55268.3 12300.8 55267.5 12300.5 55266.9 12314.7 55239 12315.7 55238.5 12315.6 55237.7 12337.7 55215.6 12338.9 55215.5 12339 55214.7 12366.9 55200.5 12368 55200.7 12368.3 55200 12399.2 55195.1 12399.7 55195.4 12400 55195.1 14600 55195.1 14600.5 55195.4"/><path d="M 2125 52500 2125.4 52533.7 2126.7 52567.5 2128.7 52601.2 2131.6 52634.8 2135.3 52668.3 2139.9 52701.8 2145.2 52735.1 2151.4 52768.2 2158.4 52801.3 2166.2 52834.1 2174.8 52866.7 2184.2 52899.1 2194.4 52931.3 2205.4 52963.2 2217.1 52994.9 2229.7 53026.2 2243 53057.2 2257 53087.9 2271.8 53118.2 2287.4 53148.2 2303.6 53177.7 2320.6 53206.9 2338.3 53235.6 2356.7 53263.9 2375.8 53291.7 2395.6 53319.1 2416 53345.9 2437.1 53372.3 2458.8 53398.1 2481.2 53423.4 2504.2 53448.1 2527.7 53472.3 2551.9 53495.8 2576.6 53518.8 2601.9 53541.2 2627.7 53562.9 2654.1 53584 2680.9 53604.4 2708.3 53624.2 2736.1 53643.3 2764.4 53661.7 2793.1 53679.4 2822.3 53696.4 2851.8 53712.6 2881.8 53728.2 2912.1 53743 2942.8 53757 2973.8 53770.3 3005.1 53782.9 3036.8 53794.6 3068.7 53805.6 3100.9 53815.8 3133.3 53825.2 3165.9 53833.8 3198.7 53841.6 3231.8 53848.6 3264.9 53854.8 3298.2 53860.1 3331.7 53864.7 3365.2 53868.4 3398.8 53871.3 3432.5 53873.3 3466.3 53874.6 3500 53875 3533.7 53874.6 3567.5 53873.3 3601.2 53871.3 3634.8 53868.4 3668.3 53864.7 3701.8 53860.1 3735.1 53854.8 3768.2 53848.6 3801.3 53841.6 3834.1 53833.8 3866.7 53825.2 3899.1 53815.8 3931.3 53805.6 3963.2 53794.6 3994.9 53782.9 4026.2 53770.3 4057.2 53757 4087.9 53743 4118.2 53728.2 4148.2 53712.6 4177.7 53696.4 4206.9 53679.4 4235.6 53661.7 4263.9 53643.3 4291.7 53624.2 4319.1 53604.4 4345.9 53584 4372.3 53562.9 4398.1 53541.2 4423.4 53518.8 4448.1 53495.8 4472.3 53472.3 4495.8 53448.1 4518.8 53423.4 4541.2 53398.1 4562.9 53372.3 4584 53345.9 4604.4 53319.1 4624.2 53291.7 4643.3 53263.9 4661.7 53235.6 4679.4 53206.9 4696.4 53177.7 4712.6 53148.2 4728.2 53118.2 4743 53087.9 4757 53057.2 4770.3 53026.2 4782.9 52994.9 4794.6 52963.2 4805.6 52931.3 4815.8 52899.1 4825.2 52866.7 4833.8 52834.1 4841.6 52801.3 4848.6 52768.2 4854.8 52735.1 4860.1 52701.8 4864.7 52668.3 4868.4 52634.8 4871.3 52601.2 4873.3 52567.5 4874.6 52533.7 4875 52500 4874.6 52466.3 4873.3 52432.5 4871.3 52398.8 4868.4 52365.2 4864.7 52331.7 4860.1 52298.2 4854.8 52264.9 4848.6 52231.8 4841.6 52198.7 4833.8 52165.9 4825.2 52133.3 4815.8 52100.9 4805.6 52068.7 4794.6 52036.8 4782.9 52005.1 4770.3 51973.8 4757 51942.8 4743 51912.1 4728.2 51881.8 4712.6 51851.8 4696.4 51822.3 4679.4 51793.1 4661.7 51764.4 4643.3 51736.1 4624.2 51708.3 4604.4 51680.9 4584 51654.1 4562.9 51627.7 4541.2 51601.9 4518.8 51576.6 4495.8 51551.9 4472.3 51527.7 4448.1 51504.2 4423.4 51481.2 4398.1 51458.8 4372.3 51437.1 4345.9 51416 4319.1 51395.6 4291.7 51375.8 4263.9 51356.7 4235.6 51338.3 4206.9 51320.6 4177.7 51303.6 4148.2 51287.4 4118.2 51271.8 4087.9 51257 4057.2 51243 4026.2 51229.7 3994.9 51217.1 3963.2 51205.4 3931.3 51194.4 3899.1 51184.2 3866.7 51174.8 3834.1 51166.2 3801.3 51158.4 3768.2 51151.4 3735.1 51145.2 3701.8 51139.9 3668.3 51135.3 3634.8 51131.6 3601.2 51128.7 3567.5 51126.7 3533.7 51125.4 3500 51125 3466.3 51125.4 3432.5 51126.7 3398.8 51128.7 3365.2 51131.6 3331.7 51135.3 3298.2 51139.9 3264.9 51145.2 3231.8 51151.4 3198.7 51158.4 3165.9 51166.2 3133.3 51174.8 3100.9 51184.2 3068.7 51194.4 3036.8 51205.4 3005.1 51217.1 2973.8 51229.7 2942.8 51243 2912.1 51257 2881.8 51271.8 2851.8 51287.4 2822.3 51303.6 2793.1 51320.6 2764.4 51338.3 2736.1 51356.7 2708.3 51375.8 2680.9 51395.6 2654.1 51416 2627.7 51437.1 2601.9 51458.8 2576.6 51481.2 2551.9 51504.2 2527.7 51527.7 2504.2 51551.9 2481.2 51576.6 2458.8 51601.9 2437.1 51627.7 2416 51654.1 2395.6 51680.9 2375.8 51708.3 2356.7 51736.1 2338.3 51764.4 2320.6 51793.1 2303.6 51822.3 2287.4 51851.8 2271.8 51881.8 2257 51912.1 2243 51942.8 2229.7 51973.8 2217.1 52005.1 2205.4 52036.8 2194.4 52068.7 2184.2 52100.9 2174.8 52133.3 2166.2 52165.9 2158.4 52198.7 2151.4 52231.8 2145.2 52264.9 2139.9 52298.2 2135.3 52331.7 2131.6 52365.2 2128.7 52398.8 2126.7 52432.5 2125.4 52466.3 2125 52500 M 60125 52500 60125.4 52533.7 60126.7 52567.5 60128.7 52601.2 60131.6 52634.8 60135.3 52668.3 60139.9 52701.8 60145.2 52735.1 60151.4 52768.2 60158.4 52801.3 60166.2 52834.1 60174.8 52866.7 60184.2 52899.1 60194.4 52931.3 60205.4 52963.2 60217.1 52994.9 60229.7 53026.2 60243 53057.2 60257 53087.9 60271.8 53118.2 60287.4 53148.2 60303.6 53177.7 60320.6 53206.9 60338.3 53235.6 60356.7 53263.9 60375.8 53291.7 60395.6 53319.1 60416 53345.9 60437.1 53372.3 60458.8 53398.1 60481.2 53423.4 60504.2 53448.1 60527.7 53472.3 60551.9 53495.8 60576.6 53518.8 60601.9 53541.2 60627.7 53562.9 60654.1 53584 60680.9 53604.4 60708.3 53624.2 60736.1 53643.3 60764.4 53661.7 60793.1 53679.4 60822.3 53696.4 60851.8 53712.6 60881.8 53728.2 60912.1 53743 60942.8 53757 60973.8 53770.3 61005.1 53782.9 61036.8 53794.6 61068.7 53805.6 61100.9 53815.8 61133.3 53825.2 61165.9 53833.8 61198.7 53841.6 61231.8 53848.6 61264.9 53854.8 61298.2 53860.1 61331.7 53864.7 61365.2 53868.4 61398.8 53871.3 61432.5 53873.3 61466.3 53874.6 61500 53875 61533.7 53874.6 61567.5 53873.3 61601.2 53871.3 61634.8 53868.4 61668.3 53864.7 61701.8 53860.1 61735.1 53854.8 61768.2 53848.6 61801.3 53841.6 61834.1 53833.8 61866.7 53825.2 61899.1 53815.8 61931.3 53805.6 61963.2 53794.6 61994.9 53782.9 62026.2 53770.3 62057.2 53757 62087.9 53743 62118.2 53728.2 62148.2 53712.6 62177.7 53696.4 62206.9 53679.4 62235.6 53661.7 62263.9 53643.3 62291.7 53624.2 62319.1 53604.4 62345.9 53584 62372.3 53562.9 62398.1 53541.2 62423.4 53518.8 62448.1 53495.8 62472.3 53472.3 62495.8 53448.1 62518.8 53423.4 62541.2 53398.1 62562.9 53372.3 62584 53345.9 62604.4 53319.1 62624.2 53291.7 62643.3 53263.9 62661.7 53235.6 62679.4 53206.9 62696.4 53177.7 62712.6 53148.2 62728.2 53118.2 62743 53087.9 62757 53057.2 62770.3 53026.2 62782.9 52994.9 62794.6 52963.2 62805.6 52931.3 62815.8 52899.1 62825.2 52866.7 62833.8 52834.1 62841.6 52801.3 62848.6 52768.2 62854.8 52735.1 62860.1 52701.8 62864.7 52668.3 62868.4 52634.8 62871.3 52601.2 62873.3 52567.5 62874.6 52533.7 62875 52500 62874.6 52466.3 62873.3 52432.5 62871.3 52398.8 62868.4 52365.2 62864.7 52331.7 62860.1 52298.2 62854.8 52264.9 62848.6 52231.8 62841.6 52198.7 62833.8 52165.9 62825.2 52133.3 62815.8 52100.9 62805.6 52068.7 62794.6 52036.8 62782.9 52005.1 62770.3 51973.8 62757 51942.8 62743 51912.1 62728.2 51881.8 62712.6 51851.8 62696.4 51822.3 62679.4 51793.1 62661.7 51764.4 62643.3 51736.1 62624.2 51708.3 62604.4 51680.9 62584 51654.1 62562.9 51627.7 62541.2 51601.9 62518.8 51576.6 62495.8 51551.9 62472.3 51527.7 62448.1 51504.2 62423.4 51481.2 62398.1 51458.8 62372.3 51437.1 62345.9 51416 62319.1 51395.6 62291.7 51375.8 62263.9 51356.7 62235.6 51338.3 62206.9 51320.6 62177.7 51303.6 62148.2 51287.4 62118.2 51271.8 62087.9 51257 62057.2 51243 62026.2 51229.7 61994.9 51217.1 61963.2 51205.4 61931.3 51194.4 61899.1 51184.2 61866.7 51174.8 61834.1 51166.2 61801.3 51158.4 61768.2 51151.4 61735.1 51145.2 61701.8 51139.9 61668.3 51135.3 61634.8 51131.6 61601.2 51128.7 61567.5 51126.7 61533.7 51125.4 61500 51125 61466.3 51125.4 61432.5 51126.7 61398.8 51128.7 61365.2 51131.6 61331.7 51135.3 61298.2 51139.9 61264.9 51145.2 61231.8 51151.4 61198.7 51158.4 61165.9 51166.2 61133.3 51174.8 61100.9 51184.2 61068.7 51194.4 61036.8 51205.4 61005.1 51217.1 60973.8 51229.7 60942.8 51243 60912.1 51257 60881.8 51271.8 60851.8 51287.4 60822.3 51303.6 60793.1 51320.6 60764.4 51338.3 60736.1 51356.7 60708.3 51375.8 60680.9 51395.6 60654.1 51416 60627.7 51437.1 60601.9 51458.8 60576.6 51481.2 60551.9 51504.2 60527.7 51527.7 60504.2 51551.9 60481.2 51576.6 60458.8 51601.9 60437.1 51627.7 60416 51654.1 60395.6 51680.9 60375.8 51708.3 60356.7 51736.1 60338.3 51764.4 60320.6 51793.1 60303.6 51822.3 60287.4 51851.8 60271.8 51881.8 60257 51912.1 60243 51942.8 60229.7 51973.8 60217.1 52005.1 60205.4 52036.8 60194.4 52068.7 60184.2 52100.9 60174.8 52133.3 60166.2 52165.9 60158.4 52198.7 60151.4 52231.8 60145.2 52264.9 60139.9 52298.2 60135.3 52331.7 60131.6 52365.2 60128.7 52398.8 60126.7 52432.5 60125.4 52466.3 60125 52500 M 2125 3500 2125.4 3533.7 2126.7 3567.5 2128.7 3601.2 2131.6 3634.8 2135.3 3668.3 2139.9 3701.8 2145.2 3735.1 2151.4 3768.2 2158.4 3801.3 2166.2 3834.1 2174.8 3866.7 2184.2 3899.1 2194.4 3931.3 2205.4 3963.2 2217.1 3994.9 2229.7 4026.2 2243 4057.2 2257 4087.9 2271.8 4118.2 2287.4 4148.2 2303.6 4177.7 2320.6 4206.9 2338.3 4235.6 2356.7 4263.9 2375.8 4291.7 2395.6 4319.1 2416 4345.9 2437.1 4372.3 2458.8 4398.1 2481.2 4423.4 2504.2 4448.1 2527.7 4472.3 2551.9 4495.8 2576.6 4518.8 2601.9 4541.2 2627.7 4562.9 2654.1 4584 2680.9 4604.4 2708.3 4624.2 2736.1 4643.3 2764.4 4661.7 2793.1 4679.4 2822.3 4696.4 2851.8 4712.6 2881.8 4728.2 2912.1 4743 2942.8 4757 2973.8 4770.3 3005.1 4782.9 3036.8 4794.6 3068.7 4805.6 3100.9 4815.8 3133.3 4825.2 3165.9 4833.8 3198.7 4841.6 3231.8 4848.6 3264.9 4854.8 3298.2 4860.1 3331.7 4864.7 3365.2 4868.4 3398.8 4871.3 3432.5 4873.3 3466.3 4874.6 3500 4875 3533.7 4874.6 3567.5 4873.3 3601.2 4871.3 3634.8 4868.4 3668.3 4864.7 3701.8 4860.1 3735.1 4854.8 3768.2 4848.6 3801.3 4841.6 3834.1 4833.8 3866.7 4825.2 3899.1 4815.8 3931.3 4805.6 3963.2 4794.6 3994.9 4782.9 4026.2 4770.3 4057.2 4757 4087.9 4743 4118.2 4728.2 4148.2 4712.6 4177.7 4696.4 4206.9 4679.4 4235.6 4661.7 4263.9 4643.3 4291.7 4624.2 4319.1 4604.4 4345.9 4584 4372.3 4562.9 4398.1 4541.2 4423.4 4518.8 4448.1 4495.8 4472.3 4472.3 4495.8 4448.1 4518.8 4423.4 4541.2 4398.1 4562.9 4372.3 4584 4345.9 4604.4 4319.1 4624.2 4291.7 4643.3 4263.9 4661.7 4235.6 4679.4 4206.9 4696.4 4177.7 4712.6 4148.2 4728.2 4118.2 4743 4087.9 4757 4057.2 4770.3 4026.2 4782.9 3994.9 4794.6 3963.2 4805.6 3931.3 4815.8 3899.1 4825.2 3866.7 4833.8 3834.1 4841.6 3801.3 4848.6 3768.2 4854.8 3735.1 4860.1 3701.8 4864.7 3668.3 4868.4 3634.8 4871.3 3601.2 4873.3 3567.5 4874.6 3533.7 4875 3500 4874.6 3466.3 4873.3 3432.5 4871.3 3398.8 4868.4 3365.2 4864.7 3331.7 4860.1 3298.2 4854.8 3264.9 4848.6 3231.8 4841.6 3198.7 4833.8 3165.9 4825.2 3133.3 4815.8 3100.9 4805.6 3068.7 4794.6 3036.8 4782.9 3005.1 4770.3 2973.8 4757 2942.8 4743 2912.1 4728.2 2881.8 4712.6 2851.8 4696.4 2822.3 4679.4 2793.1 4661.7 2764.4 4643.3 2736.1 4624.2 2708.3 4604.4 2680.9 4584 2654.1 4562.9 2627.7 4541.2 2601.9 4518.8 2576.6 4495.8 2551.9 4472.3 2527.7 4448.1 2504.2 4423.4 2481.2 4398.1 2458.8 4372.3 2437.1 4345.9 2416 4319.1 2395.6 4291.7 2375.8 4263.9 2356.7 4235.6 2338.3 4206.9 2320.6 4177.7 2303.6 4148.2 2287.4 4118.2 2271.8 4087.9 2257 4057.2 2243 4026.2 2229.7 3994.9 2217.1 3963.2 2205.4 3931.3 2194.4 3899.1 2184.2 3866.7 2174.8 3834.1 2166.2 3801.3 2158.4 3768.2 2151.4 3735.1 2145.2 3701.8 2139.9 3668.3 2135.3 3634.8 2131.6 3601.2 2128.7 3567.5 2126.7 3533.7 2125.4 3500 2125 3466.3 2125.4 3432.5 2126.7 3398.8 2128.7 3365.2 2131.6 3331.7 2135.3 3298.2 2139.9 3264.9 2145.2 3231.8 2151.4 3198.7 2158.4 3165.9 2166.2 3133.3 2174.8 3100.9 2184.2 3068.7 2194.4 3036.8 2205.4 3005.1 2217.1 2973.8 2229.7 2942.8 2243 2912.1 2257 2881.8 2271.8 2851.8 2287.4 2822.3 2303.6 2793.1 2320.6 2764.4 2338.3 2736.1 2356.7 2708.3 2375.8 2680.9 2395.6 2654.1 2416 2627.7 2437.1 2601.9 2458.8 2576.6 2481.2 2551.9 2504.2 2527.7 2527.7 2504.2 2551.9 2481.2 2576.6 2458.8 2601.9 2437.1 2627.7 2416 2654.1 2395.6 2680.9 2375.8 2708.3 2356.7 2736.1 2338.3 2764.4 2320.6 2793.1 2303.6 2822.3 2287.4 2851.8 2271.8 2881.8 2257 2912.1 2243 2942.8 2229.7 2973.8 2217.1 3005.1 2205.4 3036.8 2194.4 3068.7 2184.2 3100.9 2174.8 3133.3 2166.2 3165.9 2158.4 3198.7 2151.4 3231.8 2145.2 3264.9 2139.9 3298.2 2135.3 3331.7 2131.6 3365.2 2128.7 3398.8 2126.7 3432.5 2125.4 3466.3 2125 3500 M 60125 3500 60125.4 3533.7 60126.7 3567.5 60128.7 3601.2 60131.6 3634.8 60135.3 3668.3 60139.9 3701.8 60145.2 3735.1 60151.4 3768.2 60158.4 3801.3 60166.2 3834.1 60174.8 3866.7 60184.2 3899.1 60194.4 3931.3 60205.4 3963.2 60217.1 3994.9 60229.7 4026.2 60243 4057.2 60257 4087.9 60271.8 4118.2 60287.4 4148.2 60303.6 4177.7 60320.6 4206.9 60338.3 4235.6 60356.7 4263.9 60375.8 4291.7 60395.6 4319.1 60416 4345.9 60437.1 4372.3 60458.8 4398.1 60481.2 4423.4 60504.2 4448.1 60527.7 4472.3 60551.9 4495.8 60576.6 4518.8 60601.9 4541.2 60627.7 4562.9 60654.1 4584 60680.9 4604.4 60708.3 4624.2 60736.1 4643.3 60764.4 4661.7 60793.1 4679.4 60822.3 4696.4 60851.8 4712.6 60881.8 4728.2 60912.1 4743 60942.8 4757 60973.8 4770.3 61005.1 4782.9 61036.8 4794.6 61068.7 4805.6 61100.9 4815.8 61133.3 4825.2 61165.9 4833.8 61198.7 4841.6 61231.8 4848.6 61264.9 4854.8 61298.2 4860.1 61331.7 4864.7 61365.2 4868.4 61398.8 4871.3 61432.5 4873.3 61466.3 4874.6 61500 4875 61533.7 4874.6 61567.5 4873.3 61601.2 4871.3 61634.8 4868.4 61668.3 4864.7 61701.8 4860.1 61735.1 4854.8 61768.2 4848.6 61801.3 4841.6 61834.1 4833.8 61866.7 4825.2 61899.1 4815.8 61931.3 4805.6 61963.2 4794.6 61994.9 4782.9 62026.2 4770.3 62057.2 4757 62087.9 4743 62118.2 4728.2 62148.2 4712.6 62177.7 4696.4 62206.9 4679.4 62235.6 4661.7 62263.9 4643.3 62291.7 4624.2 62319.1 4604.4 62345.9 4584 62372.3 4562.9 62398.1 4541.2 62423.4 4518.8 62448.1 4495.8 62472.3 4472.3 62495.8 4448.1 62518.8 4423.4 62541.2 4398.1 62562.9 4372.3 62584 4345.9 62604.4 4319.1 62624.2 4291.7 62643.3 4263.9 62661.7 4235.6 62679.4 4206.9 62696.4 4177.7 62712.6 4148.2 62728.2 4118.2 62743 4087.9 62757 4057.2 62770.3 4026.2 62782.9 3994.9 62794.6 3963.2 62805.6 3931.3 62815.8 3899.1 62825.2 3866.7 62833.8 3834.1 62841.6 3801.3 62848.6 3768.2 62854.8 3735.1 62860.1 3701.8 62864.7 3668.3 62868.4 3634.8 62871.3 3601.2 62873.3 3567.5 62874.6 3533.7 62875 3500 62874.6 3466.3 62873.3 3432.5 62871.3 3398.8 62868.4 3365.2 62864.7 3331.7 62860.1 3298.2 62854.8 3264.9 62848.6 3231.8 62841.6 3198.7 62833.8 3165.9 62825.2 3133.3 62815.8 3100.9 62805.6 3068.7 62794.6 3036.8 62782.9 3005.1 62770.3 2973.8 62757 2942.8 62743 2912.1 62728.2 2881.8 62712.6 2851.8 62696.4 2822.3 62679.4 2793.1 62661.7 2764.4 62643.3 2736.1 62624.2 2708.3 62604.4 2680.9 62584 2654.1 62562.9 2627.7 62541.2 2601.9 62518.8 2576.6 62495.8 2551.9 62472.3 2527.7 62448.1 2504.2 62423.4 2481.2 62398.1 2458.8 62372.3 2437.1 62345.9 2416 62319.1 2395.6 62291.7 2375.8 62263.9 2356.7 62235.6 2338.3 62206.9 2320.6 62177.7 2303.6 62148.2 2287.4 62118.2 2271.8 62087.9 2257 62057.2 2243 62026.2 2229.7 61994.9 2217.1 61963.2 2205.4 61931.3 2194.4 61899.1 2184.2 61866.7 2174.8 61834.1 2166.2 61801.3 2158.4 61768.2 2151.4 61735.1 2145.2 61701.8 2139.9 61668.3 2135.3 61634.8 2131.6 61601.2 2128.7 61567.5 2126.7 61533.7 2125.4 61500 2125 61466.3 2125.4 61432.5 2126.7 61398.8 2128.7 61365.2 2131.6 61331.7 2135.3 61298.2 2139.9 61264.9 2145.2 61231.8 2151.4 61198.7 2158.4 61165.9 2166.2 61133.3 2174.8 61100.9 2184.2 61068.7 2194.4 61036.8 2205.4 61005.1 2217.1 60973.8 2229.7 60942.8 2243 60912.1 2257 60881.8 2271.8 60851.8 2287.4 60822.3 2303.6 60793.1 2320.6 60764.4 2338.3 60736.1 2356.7 60708.3 2375.8 60680.9 2395.6 60654.1 2416 60627.7 2437.1 60601.9 2458.8 60576.6 2481.2 60551.9 2504.2 60527.7 2527.7 60504.2 2551.9 60481.2 2576.6 60458.8 2601.9 60437.1 2627.7 60416 2654.1 60395.6 2680.9 60375.8 2708.3 60356.7 2736.1 60338.3 2764.4 60320.6 2793.1 60303.6 2822.3 60287.4 2851.8 60271.8 2881.8 60257 2912.1 60243 2942.8 60229.7 2973.8 60217.1 3005.1 60205.4 3036.8 60194.4 3068.7 60184.2 3100.9 60174.8 3133.3 60166.2 3165.9 60158.4 3198.7 60151.4 3231.8 60145.2 3264.9 60139.9 3298.2 60135.3 3331.7 60131.6 3365.2 60128.7 3398.8 60126.7 3432.5 60125.4 3466.3 60125 3500" fill="none" stroke-width="0"/><path d="M 9100 49600 7500 49600 M 2500 11000 2500 9000 M 7000 50000 58000 50000 58000 55000 7000 55000 7000 50000" fill="none" stroke-width="152.4"/><path d="M 3000 0 62000 0 62072.5 0.9 62144.9 3.5 62217.3 7.9 62289.5 14 62361.6 21.9 62433.5 31.5 62505.1 42.8 62576.4 55.9 62647.4 70.7 62717.9 87.2 62788.1 105.4 62857.8 125.3 62927.1 146.8 62995.7 170.1 63063.8 195 63131.3 221.5 63198.1 249.6 63264.2 279.4 63329.6 310.7 63394.2 343.6 63458 378.1 63520.9 414.1 63582.9 451.6 63644 490.6 63704.2 531 63763.4 572.9 63821.5 616.3 63878.6 661 63934.5 707.1 63989.4 754.5 64043 803.2 64095.5 853.2 64146.8 904.5 64196.8 957 64245.5 1010.6 64292.9 1065.5 64339 1121.4 64383.7 1178.5 64427.1 1236.6 64469 1295.8 64509.4 1356 64548.4 1417.1 64585.9 1479.1 64621.9 1542 64656.4 1605.8 64689.3 1670.4 64720.6 1735.8 64750.4 1801.9 64778.5 1868.7 64805 1936.2 64829.9 2004.3 64853.2 2072.9 64874.7 2142.2 64894.6 2211.9 64912.8 2282.1 64929.3 2352.6 64944.1 2423.6 64957.2 2494.9 64968.5 2566.5 64978.1 2638.4 64986 2710.5 64992.1 2782.7 64996.5 2855.1 64999.1 2927.5 65000 3000 65000 53000 64999.1 53072.5 64996.5 53144.9 64992.1 53217.3 64986 53289.5 64978.1 53361.6 64968.5 53433.5 64957.2 53505.1 64944.1 53576.4 64929.3 53647.4 64912.8 53717.9 64894.6 53788.1 64874.7 53857.8 64853.2 53927.1 64829.9 53995.7 64805 54063.8 64778.5 54131.3 64750.4 54198.1 64720.6 54264.2 64689.3 54329.6 64656.4 54394.2 64621.9 54458 64585.9 54520.9 64548.4 54582.9 64509.4 54644 64469 54704.2 64427.1 54763.4 64383.7 54821.5 64339 54878.6 64292.9 54934.5 64245.5 54989.4 64196.8 55043 64146.8 55095.5 64095.5 55146.8 64043 55196.8 63989.4 55245.5 63934.5 55292.9 63878.6 55339 63821.5 55383.7 63763.4 55427.1 63704.2 55469 63644 55509.4 63582.9 55548.4 63520.9 55585.9 63458 55621.9 63394.2 55656.4 63329.6 55689.3 63264.2 55720.6 63198.1 55750.4 63131.3 55778.5 63063.8 55805 62995.7 55829.9 62927.1 55853.2 62857.8 55874.7 62788.1 55894.6 62717.9 55912.8 62647.4 55929.3 62576.4 55944.1 62505.1 55957.2 62433.5 55968.5 62361.6 55978.1 62289.5 55986 62217.3 55992.1 62144.9 55996.5 62072.5 55999.1 62000 56000 3000 56000 2927.5 55999.1 2855.1 55996.5 2782.7 55992.1 2710.5 55986 2638.4 55978.1 2566.5 55968.5 2494.9 55957.2 2423.6 55944.1 2352.6 55929.3 2282.1 55912.8 2211.9 55894.6 2142.2 55874.7 2072.9 55853.2 2004.3 55829.9 1936.2 55805 1868.7 55778.5 1801.9 55750.4 1735.8 55720.6 1670.4 55689.3 1605.8 55656.4 1542 55621.9 1479.1 55585.9 1417.1 55548.4 1356 55509.4 1295.8 55469 1236.6 55427.1 1178.5 55383.7 1121.4 55339 1065.5 55292.9 1010.6 55245.5 957 55196.8 904.5 55146.8 853.2 55095.5 803.2 55043 754.5 54989.4 707.1 54934.5 661 54878.6 616.3 54821.5 572.9 54763.4 531 54704.2 490.6 54644 451.6 54582.9 414.1 54520.9 378.1 54458 343.6 54394.2 310.7 54329.6 279.4 54264.2 249.6 54198.1 221.5 54131.3 195 54063.8 170.1 53995.7 146.8 53927.1 125.3 53857.8 105.4 53788.1 87.2 53717.9 70.7 53647.4 55.9 53576.4 42.8 53505.1 31.5 53433.5 21.9 53361.6 14 53289.5 7.9 53217.3 3.5 53144.9 0.9 53072.5 0 53000 0 3000 0.9 2927.5 3.5 2855.1 7.9 2782.7 14 2710.5 21.9 2638.4 31.5 2566.5 42.8 2494.9 55.9 2423.6 70.7 2352.6 87.2 2282.1 105.4 2211.9 125.3 2142.2 146.8 2072.9 170.1 2004.3 195 1936.2 221.5 1868.7 249.6 1801.9 279.4 1735.8 310.7 1670.4 343.6 1605.8 378.1 1542 414.1 1479.1 451.6 1417.1 490.6 1356 531 1295.8 572.9 1236.6 616.3 1178.5 661 1121.4 707.1 1065.5 754.5 1010.6 803.2 957 853.2 904.5 904.5 853.2 957 803.2 1010.6 754.5 1065.5 707.1 1121.4 661 1178.5 616.3 1236.6 572.9 1295.8 531 1356 490.6 1417.1 451.6 1479.1 414.1 1542 378.1 1605.8 343.6 1670.4 310.7 1735.8 279.4 1801.9 249.6 1868.7 221.5 1936.2 195 2004.3 170.1 2072.9 146.8 2142.2 125.3 2211.9 105.4 2282.1 87.2 2352.6 70.7 2423.6 55.9 2494.9 42.8 2566.5 31.5 2638.4 21.9 2710.5 14 2782.7 7.9 2855.1 3.5 2927.5 0.9 3000 0 M 849 46865 849 48135 M 25940 10705 25940 6895 M 38440 6895 38440 10705 M 50940 10705 50940 6895" fill="none" stroke-width="203.2"/><path d="M 58006.5 49127.5 58006.5 49610.1 57872.4 49610.1 57865.3 49609.9 57858.1 49609.3 57851.1 49608.4 57844.1 49607.1 57837.1 49605.4 57830.3 49603.3 57823.6 49600.9 57817 49598.1 57810.6 49595 57804.3 49591.5 57798.3 49587.7 57792.4 49583.6 57786.8 49579.2 57781.4 49574.5 57776.3 49569.6 57771.5 49564.3 57766.9 49558.8 57762.7 49553.1 57758.7 49547.1 57755.1 49541 57751.8 49534.6 57748.9 49528.1 57746.3 49521.5 57744 49514.7 57742.1 49507.8 57740.6 49500.8 57739.5 49493.8 57738.7 49486.7 57738.3 49479.6 57738.3 49472.4 57738.7 49465.3 57739.5 49458.2 57740.6 49451.2 57742.1 49444.2 57744 49437.3 57746.3 49430.5 57748.9 49423.9 57751.8 49417.4 57755.1 49411 57758.7 49404.9 57762.7 49398.9 57766.9 49393.2 57771.5 49387.7 57776.3 49382.4 57781.4 49377.5 57786.8 49372.8 57792.4 49368.4 57798.3 49364.3 57804.3 49360.5 57810.6 49357 57817 49353.9 57823.6 49351.1 57830.3 49348.7 57837.1 49346.6 57844.1 49344.9 57851.1 49343.6 57858.1 49342.7 57865.3 49342.1 57872.4 49341.9 M 57872.4 49342 58006.5 49342 M 57845.6 49342 57738.4 49127.5 M 57491 49127.5 57330.2 49610.1 57169.3 49127.5 M 57209.5 49248.2 57450.8 49248.2 M 56773 49127.5 56766.5 49127.7 56760.1 49128.3 56753.7 49129.3 56747.3 49130.6 56741.1 49132.4 56735 49134.5 56729 49136.9 56723.2 49139.8 56717.5 49143 56712.1 49146.5 56706.9 49150.3 56701.9 49154.5 56697.2 49158.9 56692.8 49163.6 56688.6 49168.6 56684.8 49173.8 56681.3 49179.2 56678.1 49184.9 56675.2 49190.7 56672.8 49196.7 56670.7 49202.8 56668.9 49209 56667.6 49215.4 56666.6 49221.8 56666 49228.2 56665.8 49234.7 M 56773 49127.5 56782.4 49127.7 56791.8 49128.3 56801.2 49129.3 56810.5 49130.6 56819.7 49132.4 56828.9 49134.5 56838 49137 56847 49139.9 56855.8 49143.2 56864.5 49146.8 56873 49150.8 56881.4 49155.1 56889.5 49159.8 56897.5 49164.8 56905.3 49170.1 56912.8 49175.8 56920.1 49181.7 56927.1 49188 56933.9 49194.5 M 56920.4 49502.9 56920.2 49509.4 56919.6 49515.8 56918.6 49522.2 56917.3 49528.6 56915.5 49534.8 56913.4 49540.9 56911 49546.9 56908.1 49552.7 56904.9 49558.4 56901.4 49563.8 56897.6 49569 56893.4 49574 56889 49578.7 56884.3 49583.1 56879.3 49587.3 56874.1 49591.1 56868.7 49594.6 56863 49597.8 56857.2 49600.7 56851.2 49603.1 56845.1 49605.2 56838.9 49607 56832.5 49608.3 56826.1 49609.3 56819.7 49609.9 56813.2 49610.1 56804.6 49609.9 56796 49609.4 56787.4 49608.4 56778.9 49607.1 56770.4 49605.5 56762 49603.5 56753.7 49601.1 56745.5 49598.4 56737.5 49595.3 56729.5 49591.9 56721.8 49588.1 56714.2 49584 56706.8 49579.6 56699.5 49574.9 56692.5 49569.9 M 56866.9 49409.1 56872.2 49412.4 56877.3 49416.1 56882.2 49420 56886.9 49424.2 56891.3 49428.7 56895.4 49433.4 56899.3 49438.3 56902.9 49443.5 56906.2 49448.9 56909.1 49454.4 56911.7 49460.1 56914 49466 56916 49471.9 56917.6 49478 56918.9 49484.1 56919.8 49490.4 56920.3 49496.6 56920.5 49502.9 M 56719.4 49328.5 56714.1 49325.2 56709 49321.5 56704.1 49317.6 56699.4 49313.4 56695 49308.9 56690.9 49304.2 56687 49299.3 56683.4 49294.1 56680.1 49288.7 56677.2 49283.2 56674.6 49277.5 56672.3 49271.6 56670.3 49265.7 56668.7 49259.6 56667.4 49253.5 56666.5 49247.2 56666 49241 56665.8 49234.7 M 56719.4 49328.6 56866.9 49409 M 56370.6 49610.1 56370.6 49127.5 M 56370.6 49610.1 56236.5 49610.1 56229.4 49609.9 56222.2 49609.3 56215.2 49608.4 56208.2 49607.1 56201.2 49605.4 56194.4 49603.3 56187.7 49600.9 56181.1 49598.1 56174.7 49595 56168.4 49591.5 56162.4 49587.7 56156.5 49583.6 56150.9 49579.2 56145.5 49574.5 56140.4 49569.6 56135.6 49564.3 56131 49558.8 56126.8 49553.1 56122.8 49547.1 56119.2 49541 56115.9 49534.6 56113 49528.1 56110.4 49521.5 56108.1 49514.7 56106.2 49507.8 56104.7 49500.8 56103.6 49493.8 56102.8 49486.7 56102.4 49479.6 56102.4 49472.4 56102.8 49465.3 56103.6 49458.2 56104.7 49451.2 56106.2 49444.2 56108.1 49437.3 56110.4 49430.5 56113 49423.9 56115.9 49417.4 56119.2 49411 56122.8 49404.9 56126.8 49398.9 56131 49393.2 56135.6 49387.7 56140.4 49382.4 56145.5 49377.5 56150.9 49372.8 56156.5 49368.4 56162.4 49364.3 56168.4 49360.5 56174.7 49357 56181.1 49353.9 56187.7 49351.1 56194.4 49348.7 56201.2 49346.6 56208.2 49344.9 56215.2 49343.6 56222.2 49342.7 56229.4 49342.1 56236.5 49341.9 M 56236.5 49342 56370.6 49342 M 55822 49395.6 55687.9 49395.6 M 55687.9 49395.7 55680.8 49395.5 55673.6 49394.9 55666.6 49394 55659.6 49392.7 55652.6 49391 55645.8 49388.9 55639.1 49386.5 55632.5 49383.7 55626.1 49380.6 55619.8 49377.1 55613.8 49373.3 55607.9 49369.2 55602.3 49364.8 55596.9 49360.1 55591.8 49355.2 55587 49349.9 55582.4 49344.4 55578.2 49338.7 55574.2 49332.7 55570.6 49326.6 55567.3 49320.2 55564.4 49313.7 55561.8 49307.1 55559.5 49300.3 55557.6 49293.4 55556.1 49286.4 55555 49279.4 55554.2 49272.3 55553.8 49265.2 55553.8 49258 55554.2 49250.9 55555 49243.8 55556.1 49236.8 55557.6 49229.8 55559.5 49222.9 55561.8 49216.1 55564.4 49209.5 55567.3 49203 55570.6 49196.6 55574.2 49190.5 55578.2 49184.5 55582.4 49178.8 55587 49173.3 55591.8 49168 55596.9 49163.1 55602.3 49158.4 55607.9 49154 55613.8 49149.9 55619.8 49146.1 55626.1 49142.6 55632.5 49139.5 55639.1 49136.7 55645.8 49134.3 55652.6 49132.2 55659.6 49130.5 55666.6 49129.2 55673.6 49128.3 55680.8 49127.7 55687.9 49127.5 55822 49127.5 55822 49610.1 55687.9 49610.1 55681.4 49609.9 55675 49609.3 55668.6 49608.3 55662.2 49607 55656 49605.2 55649.9 49603.1 55643.9 49600.7 55638.1 49597.8 55632.4 49594.6 55627 49591.1 55621.8 49587.3 55616.8 49583.1 55612.1 49578.7 55607.7 49574 55603.5 49569 55599.7 49563.8 55596.2 49558.4 55593 49552.7 55590.1 49546.9 55587.7 49540.9 55585.6 49534.8 55583.8 49528.6 55582.5 49522.2 55581.5 49515.8 55580.9 49509.4 55580.7 49502.9 55580.9 49496.4 55581.5 49490 55582.5 49483.6 55583.8 49477.2 55585.6 49471 55587.7 49464.9 55590.1 49458.9 55593 49453.1 55596.2 49447.4 55599.7 49442 55603.5 49436.8 55607.7 49431.8 55612.1 49427.1 55616.8 49422.7 55621.8 49418.5 55627 49414.7 55632.4 49411.2 55638.1 49408 55643.9 49405.1 55649.9 49402.7 55656 49400.6 55662.2 49398.8 55668.6 49397.5 55675 49396.5 55681.4 49395.9 55687.9 49395.7 M 55286 49127.5 55071.5 49127.5 M 55286 49127.5 55286 49610.1 55071.5 49610.1 M 55125.2 49395.6 55286 49395.6 M 54806.1 49610.1 54806.1 49127.5 M 54806.1 49610.1 54672.1 49610.1 54665 49609.9 54657.8 49609.3 54650.8 49608.4 54643.8 49607.1 54636.8 49605.4 54630 49603.3 54623.3 49600.9 54616.7 49598.1 54610.3 49595 54604 49591.5 54598 49587.7 54592.1 49583.6 54586.5 49579.2 54581.1 49574.5 54576 49569.6 54571.2 49564.3 54566.6 49558.8 54562.4 49553.1 54558.4 49547.1 54554.8 49541 54551.5 49534.6 54548.6 49528.1 54546 49521.5 54543.7 49514.7 54541.8 49507.8 54540.3 49500.8 54539.2 49493.8 54538.4 49486.7 54538 49479.6 54538 49472.4 54538.4 49465.3 54539.2 49458.2 54540.3 49451.2 54541.8 49444.2 54543.7 49437.3 54546 49430.5 54548.6 49423.9 54551.5 49417.4 54554.8 49411 54558.4 49404.9 54562.4 49398.9 54566.6 49393.2 54571.2 49387.7 54576 49382.4 54581.1 49377.5 54586.5 49372.8 54592.1 49368.4 54598 49364.3 54604 49360.5 54610.3 49357 54616.7 49353.9 54623.3 49351.1 54630 49348.7 54636.8 49346.6 54643.8 49344.9 54650.8 49343.6 54657.8 49342.7 54665 49342.1 54672.1 49341.9 M 54672.1 49342 54806.1 49342 M 54645.3 49342 54538 49127.5 M 54239.2 49127.5 54239.2 49610.1 54105.1 49610.1 54098 49609.9 54090.8 49609.3 54083.8 49608.4 54076.8 49607.1 54069.8 49605.4 54063 49603.3 54056.3 49600.9 54049.7 49598.1 54043.3 49595 54037 49591.5 54031 49587.7 54025.1 49583.6 54019.5 49579.2 54014.1 49574.5 54009 49569.6 54004.2 49564.3 53999.6 49558.8 53995.4 49553.1 53991.4 49547.1 53987.8 49541 53984.5 49534.6 53981.6 49528.1 53979 49521.5 53976.7 49514.7 53974.8 49507.8 53973.3 49500.8 53972.2 49493.8 53971.4 49486.7 53971 49479.6 53971 49472.4 53971.4 49465.3 53972.2 49458.2 53973.3 49451.2 53974.8 49444.2 53976.7 49437.3 53979 49430.5 53981.6 49423.9 53984.5 49417.4 53987.8 49411 53991.4 49404.9 53995.4 49398.9 53999.6 49393.2 54004.2 49387.7 54009 49382.4 54014.1 49377.5 54019.5 49372.8 54025.1 49368.4 54031 49364.3 54037 49360.5 54043.3 49357 54049.7 49353.9 54056.3 49351.1 54063 49348.7 54069.8 49346.6 54076.8 49344.9 54083.8 49343.6 54090.8 49342.7 54098 49342.1 54105.1 49341.9 M 54105.1 49342 54239.2 49342 M 54078.3 49342 53971.1 49127.5 M 53562.9 49382.2 53723.7 49610.1 M 53562.9 49382.2 53402 49610.1 M 53562.9 49382.2 53562.9 49127.5 M 53115.4 49127.5 53115.4 49610.1 52981.3 49610.1 52974.2 49609.9 52967 49609.3 52960 49608.4 52953 49607.1 52946 49605.4 52939.2 49603.3 52932.5 49600.9 52925.9 49598.1 52919.5 49595 52913.2 49591.5 52907.2 49587.7 52901.3 49583.6 52895.7 49579.2 52890.3 49574.5 52885.2 49569.6 52880.4 49564.3 52875.8 49558.8 52871.6 49553.1 52867.6 49547.1 52864 49541 52860.7 49534.6 52857.8 49528.1 52855.2 49521.5 52852.9 49514.7 52851 49507.8 52849.5 49500.8 52848.4 49493.8 52847.6 49486.7 52847.2 49479.6 52847.2 49472.4 52847.6 49465.3 52848.4 49458.2 52849.5 49451.2 52851 49444.2 52852.9 49437.3 52855.2 49430.5 52857.8 49423.9 52860.7 49417.4 52864 49411 52867.6 49404.9 52871.6 49398.9 52875.8 49393.2 52880.4 49387.7 52885.2 49382.4 52890.3 49377.5 52895.7 49372.8 52901.3 49368.4 52907.2 49364.3 52913.2 49360.5 52919.5 49357 52925.9 49353.9 52932.5 49351.1 52939.2 49348.7 52946 49346.6 52953 49344.9 52960 49343.6 52967 49342.7 52974.2 49342.1 52981.3 49341.9 M 52981.3 49342 53115.4 49342 M 52575.3 49127.5 52575.3 49610.1 M 52629 49127.5 52521.7 49127.5 M 52521.7 49610.1 52629 49610.1" fill="none" stroke-width="127"/></g></svg>