<svg version="1.1" xmlns="http://www.w3.org/2000/svg" xmlns:xlink="http://www.w3.org/1999/xlink" stroke-linecap="round" stroke-linejoin="round" stroke-width="0" fill-rule="evenodd" width="63.36mm" height="53.05mm" viewBox="825 2125 63360 53050" id="xv412OtK4OJXcFbBFqn1"><defs><circle cx="0" cy="0" r="1375" id="xv412OtK4OJXcFbBFqn1_pad-1"/><circle cx="0" cy="0" r="650" id="xv412OtK4OJXcFbBFqn1_pad-2"/><circle cx="0" cy="0" r="508" id="xv412OtK4OJXcFbBFqn1_pad-3"/><circle cx="0" cy="0" r="450" id="xv412OtK4OJXcFbBFqn1_pad-4"/><circle cx="0" cy="0" r="406.5" id="xv412OtK4OJXcFbBFqn1_pad-5"/><circle cx="0" cy="0" r="400" id="xv412OtK4OJXcFbBFqn1_pad-6"/><circle cx="0" cy="0" r="175" id="xv412OtK4OJXcFbBFqn1_pad-7"/></defs><g transform="translate(0,57300) scale(1,-1)" fill="currentColor" stroke="currentColor"><use xlink:href="#xv412OtK4OJXcFbBFqn1_pad-1" x="3500" y="52500"/><use xlink:href="#xv412OtK4OJXcFbBFqn1_pad-1" x="61500" y="52500"/><use xlink:href="#xv412OtK4OJXcFbBFqn1_pad-1" x="3500" y="3500"/><use xlink:href="#xv412OtK4OJXcFbBFqn1_pad-1" x="61500" y="3500"/><use xlink:href="#xv412OtK4OJXcFbBFqn1_pad-2" x="4000" y="31400"/><use xlink:href="#xv412OtK4OJXcFbBFqn1_pad-2" x="4000" y="26400"/><use xlink:href="#xv412OtK4OJXcFbBFqn1_pad-3" x="33800" y="53740"/><use xlink:href="#xv412OtK4OJXcFbBFqn1_pad-3" x="33800" y="51200"/><use xlink:href="#xv412OtK4OJXcFbBFqn1_pad-3" x="31260" y="53740"/><use xlink:href="#xv412OtK4OJXcFbBFqn1_pad-3" x="31260" y="51200"/><use xlink:href="#xv412OtK4OJXcFbBFqn1_pad-3" x="28720" y="53740"/><use xlink:href="#xv412OtK4OJXcFbBFqn1_pad-3" x="28720" y="51200"/><use xlink:href="#xv412OtK4OJXcFbBFqn1_pad-3" x="26180" y="53740"/><use xlink:href="#xv412OtK4OJXcFbBFqn1_pad-3" x="26180" y="51200"/><use xlink:href="#xv412OtK4OJXcFbBFqn1_pad-3" x="23640" y="53740"/><use xlink:href="#xv412OtK4OJXcFbBFqn1_pad-3" x="23640" y="51200"/><use xlink:href="#xv412OtK4OJXcFbBFqn1_pad-3" x="21100" y="51200"/><use xlink:href="#xv412OtK4OJXcFbBFqn1_pad-3" x="18560" y="53740"/><use xlink:href="#xv412OtK4OJXcFbBFqn1_pad-3" x="18560" y="51200"/><use xlink:href="#xv412OtK4OJXcFbBFqn1_pad-3" x="16020" y="53740"/><use xlink:href="#xv412OtK4OJXcFbBFqn1_pad-3" x="16020" y="51200"/><use xlink:href="#xv412OtK4OJXcFbBFqn1_pad-3" x="13480" y="53740"/><use xlink:href="#xv412OtK4OJXcFbBFqn1_pad-3" x="36500" y="31603"/><use xlink:href="#xv412OtK4OJXcFbBFqn1_pad-3" x="13480" y="51200"/><use xlink:href="#xv412OtK4OJXcFbBFqn1_pad-3" x="21353" y="24410"/><use xlink:href="#xv412OtK4OJXcFbBFqn1_pad-3" x="24147" y="24410"/><use xlink:href="#xv412OtK4OJXcFbBFqn1_pad-3" x="37983" y="24410"/><use xlink:href="#xv412OtK4OJXcFbBFqn1_pad-3" x="40777" y="24410"/><use xlink:href="#xv412OtK4OJXcFbBFqn1_pad-3" x="54713" y="24410"/><use xlink:href="#xv412OtK4OJXcFbBFqn1_pad-3" x="57507" y="24410"/><use xlink:href="#xv412OtK4OJXcFbBFqn1_pad-3" x="2500" y="47500"/><use xlink:href="#xv412OtK4OJXcFbBFqn1_pad-3" x="5040" y="47500"/><use xlink:href="#xv412OtK4OJXcFbBFqn1_pad-3" x="2500" y="44960"/><use xlink:href="#xv412OtK4OJXcFbBFqn1_pad-3" x="5040" y="44960"/><use xlink:href="#xv412OtK4OJXcFbBFqn1_pad-3" x="2500" y="42420"/><use xlink:href="#xv412OtK4OJXcFbBFqn1_pad-3" x="5040" y="42420"/><use xlink:href="#xv412OtK4OJXcFbBFqn1_pad-3" x="10940" y="53740"/><use xlink:href="#xv412OtK4OJXcFbBFqn1_pad-3" x="5040" y="39880"/><use xlink:href="#xv412OtK4OJXcFbBFqn1_pad-3" x="2500" y="37340"/><use xlink:href="#xv412OtK4OJXcFbBFqn1_pad-3" x="5040" y="37340"/><use xlink:href="#xv412OtK4OJXcFbBFqn1_pad-3" x="8400" y="51200"/><use xlink:href="#xv412OtK4OJXcFbBFqn1_pad-3" x="4500" y="20350"/><use xlink:href="#xv412OtK4OJXcFbBFqn1_pad-3" x="4500" y="17810"/><use xlink:href="#xv412OtK4OJXcFbBFqn1_pad-3" x="4500" y="15270"/><use xlink:href="#xv412OtK4OJXcFbBFqn1_pad-3" x="21100" y="53740"/><use xlink:href="#xv412OtK4OJXcFbBFqn1_pad-3" x="4500" y="12730"/><use xlink:href="#xv412OtK4OJXcFbBFqn1_pad-3" x="4500" y="10190"/><use xlink:href="#xv412OtK4OJXcFbBFqn1_pad-3" x="4500" y="7650"/><use xlink:href="#xv412OtK4OJXcFbBFqn1_pad-3" x="10940" y="51200"/><use xlink:href="#xv412OtK4OJXcFbBFqn1_pad-3" x="8400" y="53740"/><use xlink:href="#xv412OtK4OJXcFbBFqn1_pad-3" x="36340" y="53740"/><use xlink:href="#xv412OtK4OJXcFbBFqn1_pad-3" x="38880" y="51200"/><use xlink:href="#xv412OtK4OJXcFbBFqn1_pad-3" x="38880" y="53740"/><use xlink:href="#xv412OtK4OJXcFbBFqn1_pad-3" x="41420" y="51200"/><use xlink:href="#xv412OtK4OJXcFbBFqn1_pad-3" x="41420" y="53740"/><use xlink:href="#xv412OtK4OJXcFbBFqn1_pad-3" x="43960" y="51200"/><use xlink:href="#xv412OtK4OJXcFbBFqn1_pad-3" x="43960" y="53740"/><use xlink:href="#xv412OtK4OJXcFbBFqn1_pad-3" x="46500" y="51200"/><use xlink:href="#xv412OtK4OJXcFbBFqn1_pad-3" x="46500" y="53740"/><use xlink:href="#xv412OtK4OJXcFbBFqn1_pad-3" x="49040" y="51200"/><use xlink:href="#xv412OtK4OJXcFbBFqn1_pad-3" x="49040" y="53740"/><use xlink:href="#xv412OtK4OJXcFbBFqn1_pad-3" x="51580" y="51200"/><use xlink:href="#xv412OtK4OJXcFbBFqn1_pad-3" x="51580" y="53740"/><use xlink:href="#xv412OtK4OJXcFbBFqn1_pad-3" x="54120" y="51200"/><use xlink:href="#xv412OtK4OJXcFbBFqn1_pad-3" x="54120" y="53740"/><use xlink:href="#xv412OtK4OJXcFbBFqn1_pad-3" x="56660" y="51200"/><use xlink:href="#xv412OtK4OJXcFbBFqn1_pad-3" x="56660" y="53740"/><use xlink:href="#xv412OtK4OJXcFbBFqn1_pad-3" x="2500" y="39880"/><use xlink:href="#xv412OtK4OJXcFbBFqn1_pad-3" x="36340" y="51200"/><use xlink:href="#xv412OtK4OJXcFbBFqn1_pad-3" x="39460" y="44660"/><use xlink:href="#xv412OtK4OJXcFbBFqn1_pad-3" x="42000" y="44660"/><use xlink:href="#xv412OtK4OJXcFbBFqn1_pad-3" x="44540" y="44660"/><use xlink:href="#xv412OtK4OJXcFbBFqn1_pad-3" x="42000" y="34397"/><use xlink:href="#xv412OtK4OJXcFbBFqn1_pad-3" x="42000" y="31603"/><use xlink:href="#xv412OtK4OJXcFbBFqn1_pad-3" x="36500" y="34397"/><use xlink:href="#xv412OtK4OJXcFbBFqn1_pad-4" x="15450" y="27340"/><use xlink:href="#xv412OtK4OJXcFbBFqn1_pad-4" x="26560" y="19800"/><use xlink:href="#xv412OtK4OJXcFbBFqn1_pad-4" x="18940" y="19800"/><use xlink:href="#xv412OtK4OJXcFbBFqn1_pad-4" x="31980" y="19820"/><use xlink:href="#xv412OtK4OJXcFbBFqn1_pad-4" x="31980" y="27440"/><use xlink:href="#xv412OtK4OJXcFbBFqn1_pad-4" x="43190" y="19900"/><use xlink:href="#xv412OtK4OJXcFbBFqn1_pad-4" x="35570" y="19900"/><use xlink:href="#xv412OtK4OJXcFbBFqn1_pad-4" x="48710" y="19920"/><use xlink:href="#xv412OtK4OJXcFbBFqn1_pad-4" x="48710" y="27540"/><use xlink:href="#xv412OtK4OJXcFbBFqn1_pad-4" x="59920" y="20000"/><use xlink:href="#xv412OtK4OJXcFbBFqn1_pad-4" x="52300" y="20000"/><use xlink:href="#xv412OtK4OJXcFbBFqn1_pad-4" x="11450" y="38860"/><use xlink:href="#xv412OtK4OJXcFbBFqn1_pad-4" x="11450" y="46480"/><use xlink:href="#xv412OtK4OJXcFbBFqn1_pad-4" x="16330" y="46390"/><use xlink:href="#xv412OtK4OJXcFbBFqn1_pad-4" x="21470" y="46500"/><use xlink:href="#xv412OtK4OJXcFbBFqn1_pad-4" x="21470" y="38880"/><use xlink:href="#xv412OtK4OJXcFbBFqn1_pad-4" x="55190" y="29500"/><use xlink:href="#xv412OtK4OJXcFbBFqn1_pad-4" x="62810" y="29500"/><use xlink:href="#xv412OtK4OJXcFbBFqn1_pad-4" x="62810" y="33500"/><use xlink:href="#xv412OtK4OJXcFbBFqn1_pad-4" x="55190" y="33500"/><use xlink:href="#xv412OtK4OJXcFbBFqn1_pad-4" x="27210" y="14300"/><use xlink:href="#xv412OtK4OJXcFbBFqn1_pad-4" x="19590" y="14300"/><use xlink:href="#xv412OtK4OJXcFbBFqn1_pad-4" x="39710" y="14300"/><use xlink:href="#xv412OtK4OJXcFbBFqn1_pad-4" x="32090" y="14300"/><use xlink:href="#xv412OtK4OJXcFbBFqn1_pad-4" x="52210" y="14300"/><use xlink:href="#xv412OtK4OJXcFbBFqn1_pad-4" x="16330" y="38770"/><use xlink:href="#xv412OtK4OJXcFbBFqn1_pad-4" x="44590" y="14300"/><use xlink:href="#xv412OtK4OJXcFbBFqn1_pad-4" x="15450" y="19720"/><use xlink:href="#xv412OtK4OJXcFbBFqn1_pad-5" x="34630" y="8800"/><use xlink:href="#xv412OtK4OJXcFbBFqn1_pad-5" x="37170" y="8800"/><use xlink:href="#xv412OtK4OJXcFbBFqn1_pad-5" x="47130" y="8800"/><use xlink:href="#xv412OtK4OJXcFbBFqn1_pad-5" x="49670" y="8800"/><use xlink:href="#xv412OtK4OJXcFbBFqn1_pad-5" x="29600" y="43330"/><use xlink:href="#xv412OtK4OJXcFbBFqn1_pad-5" x="28330" y="41425"/><use xlink:href="#xv412OtK4OJXcFbBFqn1_pad-5" x="27060" y="43330"/><use xlink:href="#xv412OtK4OJXcFbBFqn1_pad-5" x="55190" y="43270"/><use xlink:href="#xv412OtK4OJXcFbBFqn1_pad-5" x="55190" y="40730"/><use xlink:href="#xv412OtK4OJXcFbBFqn1_pad-5" x="55190" y="38190"/><use xlink:href="#xv412OtK4OJXcFbBFqn1_pad-5" x="62810" y="38190"/><use xlink:href="#xv412OtK4OJXcFbBFqn1_pad-5" x="62810" y="40730"/><use xlink:href="#xv412OtK4OJXcFbBFqn1_pad-5" x="62810" y="45810"/><use xlink:href="#xv412OtK4OJXcFbBFqn1_pad-5" x="24670" y="8800"/><use xlink:href="#xv412OtK4OJXcFbBFqn1_pad-5" x="62810" y="43270"/><use xlink:href="#xv412OtK4OJXcFbBFqn1_pad-5" x="22130" y="8800"/><use xlink:href="#xv412OtK4OJXcFbBFqn1_pad-5" x="55190" y="45810"/><use xlink:href="#xv412OtK4OJXcFbBFqn1_pad-6" x="11460" y="33000"/><use xlink:href="#xv412OtK4OJXcFbBFqn1_pad-6" x="16540" y="33000"/><use xlink:href="#xv412OtK4OJXcFbBFqn1_pad-6" x="29040" y="33000"/><use xlink:href="#xv412OtK4OJXcFbBFqn1_pad-6" x="23960" y="33000"/><use xlink:href="#xv412OtK4OJXcFbBFqn1_pad-7" x="58700" y="11500"/><use xlink:href="#xv412OtK4OJXcFbBFqn1_pad-7" x="6100" y="28800"/><use xlink:href="#xv412OtK4OJXcFbBFqn1_pad-7" x="13400" y="8400"/><use xlink:href="#xv412OtK4OJXcFbBFqn1_pad-7" x="27900" y="27200"/><use xlink:href="#xv412OtK4OJXcFbBFqn1_pad-7" x="26200" y="48000"/><use xlink:href="#xv412OtK4OJXcFbBFqn1_pad-7" x="63990" y="39460"/><use xlink:href="#xv412OtK4OJXcFbBFqn1_pad-7" x="64010" y="42000"/><use xlink:href="#xv412OtK4OJXcFbBFqn1_pad-7" x="6200" y="55000"/><use xlink:href="#xv412OtK4OJXcFbBFqn1_pad-7" x="5500" y="49500"/><use xlink:href="#xv412OtK4OJXcFbBFqn1_pad-7" x="1000" y="49500"/><use xlink:href="#xv412OtK4OJXcFbBFqn1_pad-7" x="20500" y="33000"/><use xlink:href="#xv412OtK4OJXcFbBFqn1_pad-7" x="11500" y="43500"/><use xlink:href="#xv412OtK4OJXcFbBFqn1_pad-7" x="62700" y="36000"/><use xlink:href="#xv412OtK4OJXcFbBFqn1_pad-7" x="45500" y="22500"/><use xlink:href="#xv412OtK4OJXcFbBFqn1_pad-7" x="17000" y="29500"/><use xlink:href="#xv412OtK4OJXcFbBFqn1_pad-7" x="61500" y="48000"/><use xlink:href="#xv412OtK4OJXcFbBFqn1_pad-7" x="51900" y="43000"/><use xlink:href="#xv412OtK4OJXcFbBFqn1_pad-7" x="49800" y="35900"/><use xlink:href="#xv412OtK4OJXcFbBFqn1_pad-7" x="12300" y="48800"/><use xlink:href="#xv412OtK4OJXcFbBFqn1_pad-7" x="64000" y="44500"/></g></svg>