<svg version="1.1" xmlns="http://www.w3.org/2000/svg" xmlns:xlink="http://www.w3.org/1999/xlink" stroke-linecap="round" stroke-linejoin="round" stroke-width="0" fill-rule="evenodd" width="65.2032mm" height="56.203199999999995mm" viewBox="-101.6 -101.6 65203.2 56203.2" id="HYBrjfa8xFNfIMtm1DI7"><defs><circle cx="0" cy="0" r="1375" id="HYBrjfa8xFNfIMtm1DI7_pad-11"/><circle cx="0" cy="0" r="939.8" id="HYBrjfa8xFNfIMtm1DI7_pad-13"/><polygon points="-609.59881,-252.5041 -252.5041,-609.59881 252.5041,-609.59881 609.59881,-252.5041 609.59881,252.5041 252.5041,609.59881 -252.5041,609.59881 -609.59881,252.5041" id="HYBrjfa8xFNfIMtm1DI7_pad-14"/><rect x="-609.6" y="-609.6" width="1219.2" height="1219.2" id="HYBrjfa8xFNfIMtm1DI7_pad-16"/><rect x="-1016" y="-1016" width="2032" height="2032" id="HYBrjfa8xFNfIMtm1DI7_pad-18"/><circle cx="0" cy="0" r="1016" id="HYBrjfa8xFNfIMtm1DI7_pad-19"/></defs><g transform="translate(0,56000) scale(1,-1)" fill="currentColor" stroke="currentColor"><path d="M 14600.5 55195.4 14600.5 55195.4 14600.8 55195.1 14631.7 55200 14632.5 55200.8 14633.1 55200.5 14661 55214.7 14661.5 55215.7 14662.3 55215.6 14684.4 55237.7 14684.5 55238.9 14685.3 55239 14699.5 55266.9 14699.4 55267.3 14699.8 55267.6 14699.5 55268 14700 55268.3 14704.9 55299.2 14704.6 55299.7 14704.9 55300 14704.9 56000 14701.3 56004.7 14700.6 56004.2 14700 56004.9 12300 56004.9 12295.3 56001.3 12295.8 56000.6 12295.1 56000 12295.1 55300 12295.4 55299.5 12295.1 55299.2 12300 55268.3 12300.8 55267.5 12300.5 55266.9 12314.7 55239 12315.7 55238.5 12315.6 55237.7 12337.7 55215.6 12338.9 55215.5 12339 55214.7 12366.9 55200.5 12368 55200.7 12368.3 55200 12399.2 55195.1 12399.7 55195.4 12400 55195.1 14600 55195.1 14600.5 55195.4"/><path d="M 42101.1 33909.1 42101.1 33909.1 42106 33910.5 42115 33912.1 42210.6 33943.7 42215.1 33946.1 42223.5 33949.7 42309.6 34001.8 42313.4 34005.1 42320.9 34010.4 42393.3 34080.4 42396.2 34084.5 42402.3 34091.4 42457.3 34175.7 42459.3 34180.3 42463.7 34188.4 42498.5 34282.8 42499.4 34287.8 42501.9 34296.6 42514.9 34396.4 42514.7 34400.7 42514.8 34413.3 42500.9 34514.4 42499.3 34519.2 42497.4 34528.2 42461.2 34623.7 42458.6 34628 42454.8 34636.4 42398.3 34721.4 42394.8 34725.1 42389.1 34732.3 42315.2 34802.7 42310.9 34805.5 42303.8 34811.3 42216 34863.4 42211.3 34865.2 42203.1 34869.3 42105.9 34900.6 42100.9 34901.3 42092 34903.4 41990.2 34912.3 41985.2 34911.8 41976.1 34911.9 41879.7 34898.8 41874.9 34897.2 41866 34895.3 41774.9 34861.1 41770.6 34858.5 41762.3 34854.6 41681.1 34800.9 41677.5 34797.4 41670.2 34791.8 41603 34721.4 41600.3 34717.2 41594.4 34710.1 41544.6 34626.6 41542.8 34621.8 41538.8 34613.6 41508.8 34521.1 41508.1 34516 41505.9 34507.1 41497.3 34410.2 41497.7 34405.5 41497.4 34398 41507.6 34300.4 41509 34295.6 41510.6 34286.6 41542.2 34193.7 41544.7 34189.3 41548.3 34180.8 41599.7 34097.3 41603.1 34093.6 41608.5 34086.1 41677.3 34016.2 41681.4 34013.2 41688.3 34007.2 41771 33954.3 41775.6 33952.4 41783.7 33948 41876 33914.8 41881 33914 41889.9 33911.5 41987.3 33899.7 41992.3 33900 42000.9 33899.6 42101.1 33909.1"/><path d="M 36601.1 33909.1 36601.1 33909.1 36606 33910.5 36615 33912.1 36710.6 33943.7 36715.1 33946.1 36723.5 33949.7 36809.6 34001.8 36813.4 34005.1 36820.9 34010.4 36893.3 34080.4 36896.2 34084.5 36902.3 34091.4 36957.3 34175.7 36959.3 34180.3 36963.7 34188.4 36998.5 34282.8 36999.4 34287.8 37001.9 34296.6 37014.9 34396.4 37014.7 34400.7 37014.8 34413.3 37000.9 34514.4 36999.3 34519.2 36997.4 34528.2 36961.2 34623.7 36958.6 34628 36954.8 34636.4 36898.3 34721.4 36894.8 34725.1 36889.1 34732.3 36815.2 34802.7 36810.9 34805.5 36803.8 34811.3 36716 34863.4 36711.3 34865.2 36703.1 34869.3 36605.9 34900.6 36600.9 34901.3 36592 34903.4 36490.2 34912.3 36485.2 34911.8 36476.1 34911.9 36379.7 34898.8 36374.9 34897.2 36366 34895.3 36274.9 34861.1 36270.6 34858.5 36262.3 34854.6 36181.1 34800.9 36177.5 34797.4 36170.2 34791.8 36103 34721.4 36100.3 34717.2 36094.4 34710.1 36044.6 34626.6 36042.8 34621.8 36038.8 34613.6 36008.8 34521.1 36008.1 34516 36005.9 34507.1 35997.3 34410.2 35997.7 34405.5 35997.4 34398 36007.6 34300.4 36009 34295.6 36010.6 34286.6 36042.2 34193.7 36044.7 34189.3 36048.3 34180.8 36099.7 34097.3 36103.1 34093.6 36108.5 34086.1 36177.3 34016.2 36181.4 34013.2 36188.3 34007.2 36271 33954.3 36275.6 33952.4 36283.7 33948 36376 33914.8 36381 33914 36389.9 33911.5 36487.3 33899.7 36492.3 33900 36500.9 33899.6 36601.1 33909.1"/><path d="M 36601.1 31110 36601.1 31110 36606 31111.4 36615 31113 36710.6 31144.6 36715.1 31147 36723.5 31150.6 36809.6 31202.7 36813.4 31206 36820.9 31211.3 36893.3 31281.3 36896.2 31285.4 36902.3 31292.3 36957.3 31376.6 36959.3 31381.2 36963.7 31389.3 36998.5 31483.7 36999.4 31488.7 37001.9 31497.5 37014.9 31597.3 37014.7 31601.6 37014.8 31614.2 37000.9 31715.3 36999.3 31720.1 36997.4 31729.1 36961.2 31824.6 36958.6 31828.9 36954.8 31837.3 36898.3 31922.3 36894.8 31926 36889.1 31933.2 36815.2 32003.6 36810.9 32006.4 36803.8 32012.2 36716 32064.3 36711.3 32066.1 36703.1 32070.2 36605.9 32101.5 36600.9 32102.2 36592 32104.3 36490.2 32113.2 36485.2 32112.7 36476.1 32112.8 36379.7 32099.7 36374.9 32098.1 36366 32096.2 36274.9 32062 36270.6 32059.4 36262.3 32055.5 36181.1 32001.8 36177.5 31998.3 36170.2 31992.7 36103 31922.3 36100.3 31918.1 36094.4 31911 36044.6 31827.5 36042.8 31822.7 36038.8 31814.5 36008.8 31722 36008.1 31716.9 36005.9 31708 35997.3 31611.1 35997.7 31606.4 35997.4 31598.9 36007.6 31501.3 36009 31496.5 36010.6 31487.5 36042.2 31394.6 36044.7 31390.2 36048.3 31381.7 36099.7 31298.2 36103.1 31294.5 36108.5 31287 36177.3 31217.1 36181.4 31214.1 36188.3 31208.1 36271 31155.2 36275.6 31153.3 36283.7 31148.9 36376 31115.7 36381 31114.9 36389.9 31112.4 36487.3 31100.6 36492.3 31100.9 36500.9 31100.5 36601.1 31110"/><path d="M 42101.1 31110 42101.1 31110 42106 31111.4 42115 31113 42210.6 31144.6 42215.1 31147 42223.5 31150.6 42309.6 31202.7 42313.4 31206 42320.9 31211.3 42393.3 31281.3 42396.2 31285.4 42402.3 31292.3 42457.3 31376.6 42459.3 31381.2 42463.7 31389.3 42498.5 31483.7 42499.4 31488.7 42501.9 31497.5 42514.9 31597.3 42514.7 31601.6 42514.8 31614.2 42500.9 31715.3 42499.3 31720.1 42497.4 31729.1 42461.2 31824.6 42458.6 31828.9 42454.8 31837.3 42398.3 31922.3 42394.8 31926 42389.1 31933.2 42315.2 32003.6 42310.9 32006.4 42303.8 32012.2 42216 32064.3 42211.3 32066.1 42203.1 32070.2 42105.9 32101.5 42100.9 32102.2 42092 32104.3 41990.2 32113.2 41985.2 32112.7 41976.1 32112.8 41879.7 32099.7 41874.9 32098.1 41866 32096.2 41774.9 32062 41770.6 32059.4 41762.3 32055.5 41681.1 32001.8 41677.5 31998.3 41670.2 31992.7 41603 31922.3 41600.3 31918.1 41594.4 31911 41544.6 31827.5 41542.8 31822.7 41538.8 31814.5 41508.8 31722 41508.1 31716.9 41505.9 31708 41497.3 31611.1 41497.7 31606.4 41497.4 31598.9 41507.6 31501.3 41509 31496.5 41510.6 31487.5 41542.2 31394.6 41544.7 31390.2 41548.3 31381.7 41599.7 31298.2 41603.1 31294.5 41608.5 31287 41677.3 31217.1 41681.4 31214.1 41688.3 31208.1 41771 31155.2 41775.6 31153.3 41783.7 31148.9 41876 31115.7 41881 31114.9 41889.9 31112.4 41987.3 31100.6 41992.3 31100.9 42000.9 31100.5 42101.1 31110"/><path d="M 40773.6 23907.7 40773.6 23907.7 40781.1 23907.4 40878.7 23917.6 40883.5 23919 40892.5 23920.6 40985.4 23952.2 40989.8 23954.7 40998.3 23958.3 41081.8 24009.7 41085.5 24013.1 41093 24018.5 41163 24087.3 41165.9 24091.4 41171.9 24098.3 41224.8 24181 41226.7 24185.6 41231.1 24193.7 41264.3 24286 41265.1 24291 41267.6 24299.9 41279.4 24397.3 41279.1 24402.3 41279.5 24410.9 41270 24511.1 41268.6 24516 41267 24525 41235.4 24620.6 41233 24625.1 41229.5 24633.5 41177.3 24719.6 41174 24723.4 41168.7 24730.9 41098.7 24803.3 41094.6 24806.2 41087.7 24812.3 41003.4 24867.3 40998.8 24869.3 40990.7 24873.7 40896.3 24908.5 40891.3 24909.4 40882.5 24911.9 40782.7 24924.9 40778.4 24924.7 40765.8 24924.8 40664.7 24910.9 40659.9 24909.3 40650.9 24907.4 40555.4 24871.2 40551.1 24868.6 40542.7 24864.8 40457.7 24808.3 40454 24804.8 40446.8 24799.1 40376.4 24725.2 40373.6 24720.9 40367.8 24713.8 40315.7 24626 40313.9 24621.3 40309.8 24613.1 40278.5 24515.9 40277.8 24510.9 40275.7 24502 40266.8 24400.2 40267.3 24395.2 40267.2 24386.1 40280.3 24289.7 40281.9 24284.9 40283.8 24276 40318 24184.9 40320.6 24180.6 40324.5 24172.3 40378.2 24091.1 40381.7 24087.5 40387.3 24080.2 40457.7 24013 40461.9 24010.3 40469 24004.4 40552.6 23954.6 40557.3 23952.8 40565.5 23948.8 40658.1 23918.8 40663.1 23918.1 40672 23915.9 40768.9 23907.3 40773.6 23907.7"/><path d="M 37974.5 23907.7 37974.5 23907.7 37982 23907.4 38079.6 23917.6 38084.4 23919 38093.4 23920.6 38186.3 23952.2 38190.7 23954.7 38199.2 23958.3 38282.7 24009.7 38286.4 24013.1 38293.9 24018.5 38363.9 24087.3 38366.8 24091.4 38372.8 24098.3 38425.7 24181 38427.6 24185.6 38432 24193.7 38465.2 24286 38466 24291 38468.5 24299.9 38480.3 24397.3 38480 24402.3 38480.4 24410.9 38470.9 24511.1 38469.5 24516 38467.9 24525 38436.3 24620.6 38433.9 24625.1 38430.4 24633.5 38378.2 24719.6 38374.9 24723.4 38369.6 24730.9 38299.6 24803.3 38295.5 24806.2 38288.6 24812.3 38204.3 24867.3 38199.7 24869.3 38191.6 24873.7 38097.2 24908.5 38092.2 24909.4 38083.4 24911.9 37983.6 24924.9 37979.3 24924.7 37966.7 24924.8 37865.6 24910.9 37860.8 24909.3 37851.8 24907.4 37756.3 24871.2 37752 24868.6 37743.6 24864.8 37658.6 24808.3 37654.9 24804.8 37647.7 24799.1 37577.3 24725.2 37574.5 24720.9 37568.7 24713.8 37516.6 24626 37514.8 24621.3 37510.7 24613.1 37479.4 24515.9 37478.7 24510.9 37476.6 24502 37467.7 24400.2 37468.2 24395.2 37468.1 24386.1 37481.2 24289.7 37482.8 24284.9 37484.7 24276 37518.9 24184.9 37521.5 24180.6 37525.4 24172.3 37579.1 24091.1 37582.6 24087.5 37588.2 24080.2 37658.6 24013 37662.8 24010.3 37669.9 24004.4 37753.5 23954.6 37758.2 23952.8 37766.4 23948.8 37859 23918.8 37864 23918.1 37872.9 23915.9 37969.8 23907.3 37974.5 23907.7"/><path d="M 24143.6 23907.7 24143.6 23907.7 24151.1 23907.4 24248.7 23917.6 24253.5 23919 24262.5 23920.6 24355.4 23952.2 24359.8 23954.7 24368.3 23958.3 24451.8 24009.7 24455.5 24013.1 24463 24018.5 24533 24087.3 24535.9 24091.4 24541.9 24098.3 24594.8 24181 24596.7 24185.6 24601.1 24193.7 24634.3 24286 24635.1 24291 24637.6 24299.9 24649.4 24397.3 24649.1 24402.3 24649.5 24410.9 24640 24511.1 24638.6 24516 24637 24525 24605.4 24620.6 24603 24625.1 24599.5 24633.5 24547.3 24719.6 24544 24723.4 24538.7 24730.9 24468.7 24803.3 24464.6 24806.2 24457.7 24812.3 24373.4 24867.3 24368.8 24869.3 24360.7 24873.7 24266.3 24908.5 24261.3 24909.4 24252.5 24911.9 24152.7 24924.9 24148.4 24924.7 24135.8 24924.8 24034.7 24910.9 24029.9 24909.3 24020.9 24907.4 23925.4 24871.2 23921.1 24868.6 23912.7 24864.8 23827.7 24808.3 23824 24804.8 23816.8 24799.1 23746.4 24725.2 23743.6 24720.9 23737.8 24713.8 23685.7 24626 23683.9 24621.3 23679.8 24613.1 23648.5 24515.9 23647.8 24510.9 23645.7 24502 23636.8 24400.2 23637.3 24395.2 23637.2 24386.1 23650.3 24289.7 23651.9 24284.9 23653.8 24276 23688 24184.9 23690.6 24180.6 23694.5 24172.3 23748.2 24091.1 23751.7 24087.5 23757.3 24080.2 23827.7 24013 23831.9 24010.3 23839 24004.4 23922.6 23954.6 23927.3 23952.8 23935.5 23948.8 24028.1 23918.8 24033.1 23918.1 24042 23915.9 24138.9 23907.3 24143.6 23907.7"/><path d="M 21344.5 23907.7 21344.5 23907.7 21352 23907.4 21449.6 23917.6 21454.4 23919 21463.4 23920.6 21556.3 23952.2 21560.7 23954.7 21569.2 23958.3 21652.7 24009.7 21656.4 24013.1 21663.9 24018.5 21733.9 24087.3 21736.8 24091.4 21742.8 24098.3 21795.7 24181 21797.6 24185.6 21802 24193.7 21835.2 24286 21836 24291 21838.5 24299.9 21850.3 24397.3 21850 24402.3 21850.4 24410.9 21840.9 24511.1 21839.5 24516 21837.9 24525 21806.3 24620.6 21803.9 24625.1 21800.4 24633.5 21748.2 24719.6 21744.9 24723.4 21739.6 24730.9 21669.6 24803.3 21665.5 24806.2 21658.6 24812.3 21574.3 24867.3 21569.7 24869.3 21561.6 24873.7 21467.2 24908.5 21462.2 24909.4 21453.4 24911.9 21353.6 24924.9 21349.3 24924.7 21336.7 24924.8 21235.6 24910.9 21230.8 24909.3 21221.8 24907.4 21126.3 24871.2 21122 24868.6 21113.6 24864.8 21028.6 24808.3 21024.9 24804.8 21017.7 24799.1 20947.3 24725.2 20944.5 24720.9 20938.7 24713.8 20886.6 24626 20884.8 24621.3 20880.7 24613.1 20849.4 24515.9 20848.7 24510.9 20846.6 24502 20837.7 24400.2 20838.2 24395.2 20838.1 24386.1 20851.2 24289.7 20852.8 24284.9 20854.7 24276 20888.9 24184.9 20891.5 24180.6 20895.4 24172.3 20949.1 24091.1 20952.6 24087.5 20958.2 24080.2 21028.6 24013 21032.8 24010.3 21039.9 24004.4 21123.5 23954.6 21128.2 23952.8 21136.4 23948.8 21229 23918.8 21234 23918.1 21242.9 23915.9 21339.8 23907.3 21344.5 23907.7"/><path d="M 54704.5 23907.7 54704.5 23907.7 54712 23907.4 54809.6 23917.6 54814.4 23919 54823.4 23920.6 54916.3 23952.2 54920.7 23954.7 54929.2 23958.3 55012.7 24009.7 55016.4 24013.1 55023.9 24018.5 55093.9 24087.3 55096.8 24091.4 55102.8 24098.3 55155.7 24181 55157.6 24185.6 55162 24193.7 55195.2 24286 55196 24291 55198.5 24299.9 55210.3 24397.3 55210 24402.3 55210.4 24410.9 55200.9 24511.1 55199.5 24516 55197.9 24525 55166.3 24620.6 55163.9 24625.1 55160.4 24633.5 55108.2 24719.6 55104.9 24723.4 55099.6 24730.9 55029.6 24803.3 55025.5 24806.2 55018.6 24812.3 54934.3 24867.3 54929.7 24869.3 54921.6 24873.7 54827.2 24908.5 54822.2 24909.4 54813.4 24911.9 54713.6 24924.9 54709.3 24924.7 54696.7 24924.8 54595.6 24910.9 54590.8 24909.3 54581.8 24907.4 54486.3 24871.2 54482 24868.6 54473.6 24864.8 54388.6 24808.3 54384.9 24804.8 54377.7 24799.1 54307.3 24725.2 54304.5 24720.9 54298.7 24713.8 54246.6 24626 54244.8 24621.3 54240.7 24613.1 54209.4 24515.9 54208.7 24510.9 54206.6 24502 54197.7 24400.2 54198.2 24395.2 54198.1 24386.1 54211.2 24289.7 54212.8 24284.9 54214.7 24276 54248.9 24184.9 54251.5 24180.6 54255.4 24172.3 54309.1 24091.1 54312.6 24087.5 54318.2 24080.2 54388.6 24013 54392.8 24010.3 54399.9 24004.4 54483.5 23954.6 54488.2 23952.8 54496.4 23948.8 54589 23918.8 54594 23918.1 54602.9 23915.9 54699.8 23907.3 54704.5 23907.7"/><path d="M 57503.6 23907.7 57503.6 23907.7 57511.1 23907.4 57608.7 23917.6 57613.5 23919 57622.5 23920.6 57715.4 23952.2 57719.8 23954.7 57728.3 23958.3 57811.8 24009.7 57815.5 24013.1 57823 24018.5 57893 24087.3 57895.9 24091.4 57901.9 24098.3 57954.8 24181 57956.7 24185.6 57961.1 24193.7 57994.3 24286 57995.1 24291 57997.6 24299.9 58009.4 24397.3 58009.1 24402.3 58009.5 24410.9 58000 24511.1 57998.6 24516 57997 24525 57965.4 24620.6 57963 24625.1 57959.5 24633.5 57907.3 24719.6 57904 24723.4 57898.7 24730.9 57828.7 24803.3 57824.6 24806.2 57817.7 24812.3 57733.4 24867.3 57728.8 24869.3 57720.7 24873.7 57626.3 24908.5 57621.3 24909.4 57612.5 24911.9 57512.7 24924.9 57508.4 24924.7 57495.8 24924.8 57394.7 24910.9 57389.9 24909.3 57380.9 24907.4 57285.4 24871.2 57281.1 24868.6 57272.7 24864.8 57187.7 24808.3 57184 24804.8 57176.8 24799.1 57106.4 24725.2 57103.6 24720.9 57097.8 24713.8 57045.7 24626 57043.9 24621.3 57039.8 24613.1 57008.5 24515.9 57007.8 24510.9 57005.7 24502 56996.8 24400.2 56997.3 24395.2 56997.2 24386.1 57010.3 24289.7 57011.9 24284.9 57013.8 24276 57048 24184.9 57050.6 24180.6 57054.5 24172.3 57108.2 24091.1 57111.7 24087.5 57117.3 24080.2 57187.7 24013 57191.9 24010.3 57199 24004.4 57282.6 23954.6 57287.3 23952.8 57295.5 23948.8 57388.1 23918.8 57393.1 23918.1 57402 23915.9 57498.9 23907.3 57503.6 23907.7"/><path d="M 2125 52500 2125.4 52533.7 2126.7 52567.5 2128.7 52601.2 2131.6 52634.8 2135.3 52668.3 2139.9 52701.8 2145.2 52735.1 2151.4 52768.2 2158.4 52801.3 2166.2 52834.1 2174.8 52866.7 2184.2 52899.1 2194.4 52931.3 2205.4 52963.2 2217.1 52994.9 2229.7 53026.2 2243 53057.2 2257 53087.9 2271.8 53118.2 2287.4 53148.2 2303.6 53177.7 2320.6 53206.9 2338.3 53235.6 2356.7 53263.9 2375.8 53291.7 2395.6 53319.1 2416 53345.9 2437.1 53372.3 2458.8 53398.1 2481.2 53423.4 2504.2 53448.1 2527.7 53472.3 2551.9 53495.8 2576.6 53518.8 2601.9 53541.2 2627.7 53562.9 2654.1 53584 2680.9 53604.4 2708.3 53624.2 2736.1 53643.3 2764.4 53661.7 2793.1 53679.4 2822.3 53696.4 2851.8 53712.6 2881.8 53728.2 2912.1 53743 2942.8 53757 2973.8 53770.3 3005.1 53782.9 3036.8 53794.6 3068.7 53805.6 3100.9 53815.8 3133.3 53825.2 3165.9 53833.8 3198.7 53841.6 3231.8 53848.6 3264.9 53854.8 3298.2 53860.1 3331.7 53864.7 3365.2 53868.4 3398.8 53871.3 3432.5 53873.3 3466.3 53874.6 3500 53875 3533.7 53874.6 3567.5 53873.3 3601.2 53871.3 3634.8 53868.4 3668.3 53864.7 3701.8 53860.1 3735.1 53854.8 3768.2 53848.6 3801.3 53841.6 3834.1 53833.8 3866.7 53825.2 3899.1 53815.8 3931.3 53805.6 3963.2 53794.6 3994.9 53782.9 4026.2 53770.3 4057.2 53757 4087.9 53743 4118.2 53728.2 4148.2 53712.6 4177.7 53696.4 4206.9 53679.4 4235.6 53661.7 4263.9 53643.3 4291.7 53624.2 4319.1 53604.4 4345.9 53584 4372.3 53562.9 4398.1 53541.2 4423.4 53518.8 4448.1 53495.8 4472.3 53472.3 4495.8 53448.1 4518.8 53423.4 4541.2 53398.1 4562.9 53372.3 4584 53345.9 4604.4 53319.1 4624.2 53291.7 4643.3 53263.9 4661.7 53235.6 4679.4 53206.9 4696.4 53177.7 4712.6 53148.2 4728.2 53118.2 4743 53087.9 4757 53057.2 4770.3 53026.2 4782.9 52994.9 4794.6 52963.2 4805.6 52931.3 4815.8 52899.1 4825.2 52866.7 4833.8 52834.1 4841.6 52801.3 4848.6 52768.2 4854.8 52735.1 4860.1 52701.8 4864.7 52668.3 4868.4 52634.8 4871.3 52601.2 4873.3 52567.5 4874.6 52533.7 4875 52500 4874.6 52466.3 4873.3 52432.5 4871.3 52398.8 4868.4 52365.2 4864.7 52331.7 4860.1 52298.2 4854.8 52264.9 4848.6 52231.8 4841.6 52198.7 4833.8 52165.9 4825.2 52133.3 4815.8 52100.9 4805.6 52068.7 4794.6 52036.8 4782.9 52005.1 4770.3 51973.8 4757 51942.8 4743 51912.1 4728.2 51881.8 4712.6 51851.8 4696.4 51822.3 4679.4 51793.1 4661.7 51764.4 4643.3 51736.1 4624.2 51708.3 4604.4 51680.9 4584 51654.1 4562.9 51627.7 4541.2 51601.9 4518.8 51576.6 4495.8 51551.9 4472.3 51527.7 4448.1 51504.2 4423.4 51481.2 4398.1 51458.8 4372.3 51437.1 4345.9 51416 4319.1 51395.6 4291.7 51375.8 4263.9 51356.7 4235.6 51338.3 4206.9 51320.6 4177.7 51303.6 4148.2 51287.4 4118.2 51271.8 4087.9 51257 4057.2 51243 4026.2 51229.7 3994.9 51217.1 3963.2 51205.4 3931.3 51194.4 3899.1 51184.2 3866.7 51174.8 3834.1 51166.2 3801.3 51158.4 3768.2 51151.4 3735.1 51145.2 3701.8 51139.9 3668.3 51135.3 3634.8 51131.6 3601.2 51128.7 3567.5 51126.7 3533.7 51125.4 3500 51125 3466.3 51125.4 3432.5 51126.7 3398.8 51128.7 3365.2 51131.6 3331.7 51135.3 3298.2 51139.9 3264.9 51145.2 3231.8 51151.4 3198.7 51158.4 3165.9 51166.2 3133.3 51174.8 3100.9 51184.2 3068.7 51194.4 3036.8 51205.4 3005.1 51217.1 2973.8 51229.7 2942.8 51243 2912.1 51257 2881.8 51271.8 2851.8 51287.4 2822.3 51303.6 2793.1 51320.6 2764.4 51338.3 2736.1 51356.7 2708.3 51375.8 2680.9 51395.6 2654.1 51416 2627.7 51437.1 2601.9 51458.8 2576.6 51481.2 2551.9 51504.2 2527.7 51527.7 2504.2 51551.9 2481.2 51576.6 2458.8 51601.9 2437.1 51627.7 2416 51654.1 2395.6 51680.9 2375.8 51708.3 2356.7 51736.1 2338.3 51764.4 2320.6 51793.1 2303.6 51822.3 2287.4 51851.8 2271.8 51881.8 2257 51912.1 2243 51942.8 2229.7 51973.8 2217.1 52005.1 2205.4 52036.8 2194.4 52068.7 2184.2 52100.9 2174.8 52133.3 2166.2 52165.9 2158.4 52198.7 2151.4 52231.8 2145.2 52264.9 2139.9 52298.2 2135.3 52331.7 2131.6 52365.2 2128.7 52398.8 2126.7 52432.5 2125.4 52466.3 2125 52500" fill="none" stroke-width="0"/><use xlink:href="#HYBrjfa8xFNfIMtm1DI7_pad-11" x="3500" y="52500"/><path d="M 60125 52500 60125.4 52533.7 60126.7 52567.5 60128.7 52601.2 60131.6 52634.8 60135.3 52668.3 60139.9 52701.8 60145.2 52735.1 60151.4 52768.2 60158.4 52801.3 60166.2 52834.1 60174.8 52866.7 60184.2 52899.1 60194.4 52931.3 60205.4 52963.2 60217.1 52994.9 60229.7 53026.2 60243 53057.2 60257 53087.9 60271.8 53118.2 60287.4 53148.2 60303.6 53177.7 60320.6 53206.9 60338.3 53235.6 60356.7 53263.9 60375.8 53291.7 60395.6 53319.1 60416 53345.9 60437.1 53372.3 60458.8 53398.1 60481.2 53423.4 60504.2 53448.1 60527.7 53472.3 60551.9 53495.8 60576.6 53518.8 60601.9 53541.2 60627.7 53562.9 60654.1 53584 60680.9 53604.4 60708.3 53624.2 60736.1 53643.3 60764.4 53661.7 60793.1 53679.4 60822.3 53696.4 60851.8 53712.6 60881.8 53728.2 60912.1 53743 60942.8 53757 60973.8 53770.3 61005.1 53782.9 61036.8 53794.6 61068.7 53805.6 61100.9 53815.8 61133.3 53825.2 61165.9 53833.8 61198.7 53841.6 61231.8 53848.6 61264.9 53854.8 61298.2 53860.1 61331.7 53864.7 61365.2 53868.4 61398.8 53871.3 61432.5 53873.3 61466.3 53874.6 61500 53875 61533.7 53874.6 61567.5 53873.3 61601.2 53871.3 61634.8 53868.4 61668.3 53864.7 61701.8 53860.1 61735.1 53854.8 61768.2 53848.6 61801.3 53841.6 61834.1 53833.8 61866.7 53825.2 61899.1 53815.8 61931.3 53805.6 61963.2 53794.6 61994.9 53782.9 62026.2 53770.3 62057.2 53757 62087.9 53743 62118.2 53728.2 62148.2 53712.6 62177.7 53696.4 62206.9 53679.4 62235.6 53661.7 62263.9 53643.3 62291.7 53624.2 62319.1 53604.4 62345.9 53584 62372.3 53562.9 62398.1 53541.2 62423.4 53518.8 62448.1 53495.8 62472.3 53472.3 62495.8 53448.1 62518.8 53423.4 62541.2 53398.1 62562.9 53372.3 62584 53345.9 62604.4 53319.1 62624.2 53291.7 62643.3 53263.9 62661.7 53235.6 62679.4 53206.9 62696.4 53177.7 62712.6 53148.2 62728.2 53118.2 62743 53087.9 62757 53057.2 62770.3 53026.2 62782.9 52994.9 62794.6 52963.2 62805.6 52931.3 62815.8 52899.1 62825.2 52866.7 62833.8 52834.1 62841.6 52801.3 62848.6 52768.2 62854.8 52735.1 62860.1 52701.8 62864.7 52668.3 62868.4 52634.8 62871.3 52601.2 62873.3 52567.5 62874.6 52533.7 62875 52500 62874.6 52466.3 62873.3 52432.5 62871.3 52398.8 62868.4 52365.2 62864.7 52331.7 62860.1 52298.2 62854.8 52264.9 62848.6 52231.8 62841.6 52198.7 62833.8 52165.9 62825.2 52133.3 62815.8 52100.9 62805.6 52068.7 62794.6 52036.8 62782.9 52005.1 62770.3 51973.8 62757 51942.8 62743 51912.1 62728.2 51881.8 62712.6 51851.8 62696.4 51822.3 62679.4 51793.1 62661.7 51764.4 62643.3 51736.1 62624.2 51708.3 62604.4 51680.9 62584 51654.1 62562.9 51627.7 62541.2 51601.9 62518.8 51576.6 62495.8 51551.9 62472.3 51527.7 62448.1 51504.2 62423.4 51481.2 62398.1 51458.8 62372.3 51437.1 62345.9 51416 62319.1 51395.6 62291.7 51375.8 62263.9 51356.7 62235.6 51338.3 62206.9 51320.6 62177.7 51303.6 62148.2 51287.4 62118.2 51271.8 62087.9 51257 62057.2 51243 62026.2 51229.7 61994.9 51217.1 61963.2 51205.4 61931.3 51194.4 61899.1 51184.2 61866.7 51174.8 61834.1 51166.2 61801.3 51158.4 61768.2 51151.4 61735.1 51145.2 61701.8 51139.9 61668.3 51135.3 61634.8 51131.6 61601.2 51128.7 61567.5 51126.7 61533.7 51125.4 61500 51125 61466.3 51125.4 61432.5 51126.7 61398.8 51128.7 61365.2 51131.6 61331.7 51135.3 61298.2 51139.9 61264.9 51145.2 61231.8 51151.4 61198.7 51158.4 61165.9 51166.2 61133.3 51174.8 61100.9 51184.2 61068.7 51194.4 61036.8 51205.4 61005.1 51217.1 60973.8 51229.7 60942.8 51243 60912.1 51257 60881.8 51271.8 60851.8 51287.4 60822.3 51303.6 60793.1 51320.6 60764.4 51338.3 60736.1 51356.7 60708.3 51375.8 60680.9 51395.6 60654.1 51416 60627.7 51437.1 60601.9 51458.8 60576.6 51481.2 60551.9 51504.2 60527.7 51527.7 60504.2 51551.9 60481.2 51576.6 60458.8 51601.9 60437.1 51627.7 60416 51654.1 60395.6 51680.9 60375.8 51708.3 60356.7 51736.1 60338.3 51764.4 60320.6 51793.1 60303.6 51822.3 60287.4 51851.8 60271.8 51881.8 60257 51912.1 60243 51942.8 60229.7 51973.8 60217.1 52005.1 60205.4 52036.8 60194.4 52068.7 60184.2 52100.9 60174.8 52133.3 60166.2 52165.9 60158.4 52198.7 60151.4 52231.8 60145.2 52264.9 60139.9 52298.2 60135.3 52331.7 60131.6 52365.2 60128.7 52398.8 60126.7 52432.5 60125.4 52466.3 60125 52500" fill="none" stroke-width="0"/><use xlink:href="#HYBrjfa8xFNfIMtm1DI7_pad-11" x="61500" y="52500"/><path d="M 2125 3500 2125.4 3533.7 2126.7 3567.5 2128.7 3601.2 2131.6 3634.8 2135.3 3668.3 2139.9 3701.8 2145.2 3735.1 2151.4 3768.2 2158.4 3801.3 2166.2 3834.1 2174.8 3866.7 2184.2 3899.1 2194.4 3931.3 2205.4 3963.2 2217.1 3994.9 2229.7 4026.2 2243 4057.2 2257 4087.9 2271.8 4118.2 2287.4 4148.2 2303.6 4177.7 2320.6 4206.9 2338.3 4235.6 2356.7 4263.9 2375.8 4291.7 2395.6 4319.1 2416 4345.9 2437.1 4372.3 2458.8 4398.1 2481.2 4423.4 2504.2 4448.1 2527.7 4472.3 2551.9 4495.8 2576.6 4518.8 2601.9 4541.2 2627.7 4562.9 2654.1 4584 2680.9 4604.4 2708.3 4624.2 2736.1 4643.3 2764.4 4661.7 2793.1 4679.4 2822.3 4696.4 2851.8 4712.6 2881.8 4728.2 2912.1 4743 2942.8 4757 2973.8 4770.3 3005.1 4782.9 3036.8 4794.6 3068.7 4805.6 3100.9 4815.8 3133.3 4825.2 3165.9 4833.8 3198.7 4841.6 3231.8 4848.6 3264.9 4854.8 3298.2 4860.1 3331.7 4864.7 3365.2 4868.4 3398.8 4871.3 3432.5 4873.3 3466.3 4874.6 3500 4875 3533.7 4874.6 3567.5 4873.3 3601.2 4871.3 3634.8 4868.4 3668.3 4864.7 3701.8 4860.1 3735.1 4854.8 3768.2 4848.6 3801.3 4841.6 3834.1 4833.8 3866.7 4825.2 3899.1 4815.8 3931.3 4805.6 3963.2 4794.6 3994.9 4782.9 4026.2 4770.3 4057.2 4757 4087.9 4743 4118.2 4728.2 4148.2 4712.6 4177.7 4696.4 4206.9 4679.4 4235.6 4661.7 4263.9 4643.3 4291.7 4624.2 4319.1 4604.4 4345.9 4584 4372.3 4562.9 4398.1 4541.2 4423.4 4518.8 4448.1 4495.8 4472.3 4472.3 4495.8 4448.1 4518.8 4423.4 4541.2 4398.1 4562.9 4372.3 4584 4345.9 4604.4 4319.1 4624.2 4291.7 4643.3 4263.9 4661.7 4235.6 4679.4 4206.9 4696.4 4177.7 4712.6 4148.2 4728.2 4118.2 4743 4087.9 4757 4057.2 4770.3 4026.2 4782.9 3994.9 4794.6 3963.2 4805.6 3931.3 4815.8 3899.1 4825.2 3866.7 4833.8 3834.1 4841.6 3801.3 4848.6 3768.2 4854.8 3735.1 4860.1 3701.8 4864.7 3668.3 4868.4 3634.8 4871.3 3601.2 4873.3 3567.5 4874.6 3533.7 4875 3500 4874.6 3466.3 4873.3 3432.5 4871.3 3398.8 4868.4 3365.2 4864.7 3331.7 4860.1 3298.2 4854.8 3264.9 4848.6 3231.8 4841.6 3198.7 4833.8 3165.9 4825.2 3133.3 4815.8 3100.9 4805.6 3068.7 4794.6 3036.8 4782.9 3005.1 4770.3 2973.8 4757 2942.8 4743 2912.1 4728.2 2881.8 4712.6 2851.8 4696.4 2822.3 4679.4 2793.1 4661.7 2764.4 4643.3 2736.1 4624.2 2708.3 4604.4 2680.9 4584 2654.1 4562.9 2627.7 4541.2 2601.9 4518.8 2576.6 4495.8 2551.9 4472.3 2527.7 4448.1 2504.2 4423.4 2481.2 4398.1 2458.8 4372.3 2437.1 4345.9 2416 4319.1 2395.6 4291.7 2375.8 4263.9 2356.7 4235.6 2338.3 4206.9 2320.6 4177.7 2303.6 4148.2 2287.4 4118.2 2271.8 4087.9 2257 4057.2 2243 4026.2 2229.7 3994.9 2217.1 3963.2 2205.4 3931.3 2194.4 3899.1 2184.2 3866.7 2174.8 3834.1 2166.2 3801.3 2158.4 3768.2 2151.4 3735.1 2145.2 3701.8 2139.9 3668.3 2135.3 3634.8 2131.6 3601.2 2128.7 3567.5 2126.7 3533.7 2125.4 3500 2125 3466.3 2125.4 3432.5 2126.7 3398.8 2128.7 3365.2 2131.6 3331.7 2135.3 3298.2 2139.9 3264.9 2145.2 3231.8 2151.4 3198.7 2158.4 3165.9 2166.2 3133.3 2174.8 3100.9 2184.2 3068.7 2194.4 3036.8 2205.4 3005.1 2217.1 2973.8 2229.7 2942.8 2243 2912.1 2257 2881.8 2271.8 2851.8 2287.4 2822.3 2303.6 2793.1 2320.6 2764.4 2338.3 2736.1 2356.7 2708.3 2375.8 2680.9 2395.6 2654.1 2416 2627.7 2437.1 2601.9 2458.8 2576.6 2481.2 2551.9 2504.2 2527.7 2527.7 2504.2 2551.9 2481.2 2576.6 2458.8 2601.9 2437.1 2627.7 2416 2654.1 2395.6 2680.9 2375.8 2708.3 2356.7 2736.1 2338.3 2764.4 2320.6 2793.1 2303.6 2822.3 2287.4 2851.8 2271.8 2881.8 2257 2912.1 2243 2942.8 2229.7 2973.8 2217.1 3005.1 2205.4 3036.8 2194.4 3068.7 2184.2 3100.9 2174.8 3133.3 2166.2 3165.9 2158.4 3198.7 2151.4 3231.8 2145.2 3264.9 2139.9 3298.2 2135.3 3331.7 2131.6 3365.2 2128.7 3398.8 2126.7 3432.5 2125.4 3466.3 2125 3500" fill="none" stroke-width="0"/><use xlink:href="#HYBrjfa8xFNfIMtm1DI7_pad-11" x="3500" y="3500"/><path d="M 60125 3500 60125.4 3533.7 60126.7 3567.5 60128.7 3601.2 60131.6 3634.8 60135.3 3668.3 60139.9 3701.8 60145.2 3735.1 60151.4 3768.2 60158.4 3801.3 60166.2 3834.1 60174.8 3866.7 60184.2 3899.1 60194.4 3931.3 60205.4 3963.2 60217.1 3994.9 60229.7 4026.2 60243 4057.2 60257 4087.9 60271.8 4118.2 60287.4 4148.2 60303.6 4177.7 60320.6 4206.9 60338.3 4235.6 60356.7 4263.9 60375.8 4291.7 60395.6 4319.1 60416 4345.9 60437.1 4372.3 60458.8 4398.1 60481.2 4423.4 60504.2 4448.1 60527.7 4472.3 60551.9 4495.8 60576.6 4518.8 60601.9 4541.2 60627.7 4562.9 60654.1 4584 60680.9 4604.4 60708.3 4624.2 60736.1 4643.3 60764.4 4661.7 60793.1 4679.4 60822.3 4696.4 60851.8 4712.6 60881.8 4728.2 60912.1 4743 60942.8 4757 60973.8 4770.3 61005.1 4782.9 61036.8 4794.6 61068.7 4805.6 61100.9 4815.8 61133.3 4825.2 61165.9 4833.8 61198.7 4841.6 61231.8 4848.6 61264.9 4854.8 61298.2 4860.1 61331.7 4864.7 61365.2 4868.4 61398.8 4871.3 61432.5 4873.3 61466.3 4874.6 61500 4875 61533.7 4874.6 61567.5 4873.3 61601.2 4871.3 61634.8 4868.4 61668.3 4864.7 61701.8 4860.1 61735.1 4854.8 61768.2 4848.6 61801.3 4841.6 61834.1 4833.8 61866.7 4825.2 61899.1 4815.8 61931.3 4805.6 61963.2 4794.6 61994.9 4782.9 62026.2 4770.3 62057.2 4757 62087.9 4743 62118.2 4728.2 62148.2 4712.6 62177.7 4696.4 62206.9 4679.4 62235.6 4661.7 62263.9 4643.3 62291.7 4624.2 62319.1 4604.4 62345.9 4584 62372.3 4562.9 62398.1 4541.2 62423.4 4518.8 62448.1 4495.8 62472.3 4472.3 62495.8 4448.1 62518.8 4423.4 62541.2 4398.1 62562.9 4372.3 62584 4345.9 62604.4 4319.1 62624.2 4291.7 62643.3 4263.9 62661.7 4235.6 62679.4 4206.9 62696.4 4177.7 62712.6 4148.2 62728.2 4118.2 62743 4087.9 62757 4057.2 62770.3 4026.2 62782.9 3994.9 62794.6 3963.2 62805.6 3931.3 62815.8 3899.1 62825.2 3866.7 62833.8 3834.1 62841.6 3801.3 62848.6 3768.2 62854.8 3735.1 62860.1 3701.8 62864.7 3668.3 62868.4 3634.8 62871.3 3601.2 62873.3 3567.5 62874.6 3533.7 62875 3500 62874.6 3466.3 62873.3 3432.5 62871.3 3398.8 62868.4 3365.2 62864.7 3331.7 62860.1 3298.2 62854.8 3264.9 62848.6 3231.8 62841.6 3198.7 62833.8 3165.9 62825.2 3133.3 62815.8 3100.9 62805.6 3068.7 62794.6 3036.8 62782.9 3005.1 62770.3 2973.8 62757 2942.8 62743 2912.1 62728.2 2881.8 62712.6 2851.8 62696.4 2822.3 62679.4 2793.1 62661.7 2764.4 62643.3 2736.1 62624.2 2708.3 62604.4 2680.9 62584 2654.1 62562.9 2627.7 62541.2 2601.9 62518.8 2576.6 62495.8 2551.9 62472.3 2527.7 62448.1 2504.2 62423.4 2481.2 62398.1 2458.8 62372.3 2437.1 62345.9 2416 62319.1 2395.6 62291.7 2375.8 62263.9 2356.7 62235.6 2338.3 62206.9 2320.6 62177.7 2303.6 62148.2 2287.4 62118.2 2271.8 62087.9 2257 62057.2 2243 62026.2 2229.7 61994.9 2217.1 61963.2 2205.4 61931.3 2194.4 61899.1 2184.2 61866.7 2174.8 61834.1 2166.2 61801.3 2158.4 61768.2 2151.4 61735.1 2145.2 61701.8 2139.9 61668.3 2135.3 61634.8 2131.6 61601.2 2128.7 61567.5 2126.7 61533.7 2125.4 61500 2125 61466.3 2125.4 61432.5 2126.7 61398.8 2128.7 61365.2 2131.6 61331.7 2135.3 61298.2 2139.9 61264.9 2145.2 61231.8 2151.4 61198.7 2158.4 61165.9 2166.2 61133.3 2174.8 61100.9 2184.2 61068.7 2194.4 61036.8 2205.4 61005.1 2217.1 60973.8 2229.7 60942.8 2243 60912.1 2257 60881.8 2271.8 60851.8 2287.4 60822.3 2303.6 60793.1 2320.6 60764.4 2338.3 60736.1 2356.7 60708.3 2375.8 60680.9 2395.6 60654.1 2416 60627.7 2437.1 60601.9 2458.8 60576.6 2481.2 60551.9 2504.2 60527.7 2527.7 60504.2 2551.9 60481.2 2576.6 60458.8 2601.9 60437.1 2627.7 60416 2654.1 60395.6 2680.9 60375.8 2708.3 60356.7 2736.1 60338.3 2764.4 60320.6 2793.1 60303.6 2822.3 60287.4 2851.8 60271.8 2881.8 60257 2912.1 60243 2942.8 60229.7 2973.8 60217.1 3005.1 60205.4 3036.8 60194.4 3068.7 60184.2 3100.9 60174.8 3133.3 60166.2 3165.9 60158.4 3198.7 60151.4 3231.8 60145.2 3264.9 60139.9 3298.2 60135.3 3331.7 60131.6 3365.2 60128.7 3398.8 60126.7 3432.5 60125.4 3466.3 60125 3500" fill="none" stroke-width="0"/><use xlink:href="#HYBrjfa8xFNfIMtm1DI7_pad-11" x="61500" y="3500"/><path d="M 62000 0 3000 0 M 62000 0 62072.5 0.9 62144.9 3.5 62217.3 7.9 62289.5 14 62361.6 21.9 62433.5 31.5 62505.1 42.8 62576.4 55.9 62647.4 70.7 62717.9 87.2 62788.1 105.4 62857.8 125.3 62927.1 146.8 62995.7 170.1 63063.8 195 63131.3 221.5 63198.1 249.6 63264.2 279.4 63329.6 310.7 63394.2 343.6 63458 378.1 63520.9 414.1 63582.9 451.6 63644 490.6 63704.2 531 63763.4 572.9 63821.5 616.3 63878.6 661 63934.5 707.1 63989.4 754.5 64043 803.2 64095.5 853.2 64146.8 904.5 64196.8 957 64245.5 1010.6 64292.9 1065.5 64339 1121.4 64383.7 1178.5 64427.1 1236.6 64469 1295.8 64509.4 1356 64548.4 1417.1 64585.9 1479.1 64621.9 1542 64656.4 1605.8 64689.3 1670.4 64720.6 1735.8 64750.4 1801.9 64778.5 1868.7 64805 1936.2 64829.9 2004.3 64853.2 2072.9 64874.7 2142.2 64894.6 2211.9 64912.8 2282.1 64929.3 2352.6 64944.1 2423.6 64957.2 2494.9 64968.5 2566.5 64978.1 2638.4 64986 2710.5 64992.1 2782.7 64996.5 2855.1 64999.1 2927.5 65000 3000 65000 53000 64999.1 53072.5 64996.5 53144.9 64992.1 53217.3 64986 53289.5 64978.1 53361.6 64968.5 53433.5 64957.2 53505.1 64944.1 53576.4 64929.3 53647.4 64912.8 53717.9 64894.6 53788.1 64874.7 53857.8 64853.2 53927.1 64829.9 53995.7 64805 54063.8 64778.5 54131.3 64750.4 54198.1 64720.6 54264.2 64689.3 54329.6 64656.4 54394.2 64621.9 54458 64585.9 54520.9 64548.4 54582.9 64509.4 54644 64469 54704.2 64427.1 54763.4 64383.7 54821.5 64339 54878.6 64292.9 54934.5 64245.5 54989.4 64196.8 55043 64146.8 55095.5 64095.5 55146.8 64043 55196.8 63989.4 55245.5 63934.5 55292.9 63878.6 55339 63821.5 55383.7 63763.4 55427.1 63704.2 55469 63644 55509.4 63582.9 55548.4 63520.9 55585.9 63458 55621.9 63394.2 55656.4 63329.6 55689.3 63264.2 55720.6 63198.1 55750.4 63131.3 55778.5 63063.8 55805 62995.7 55829.9 62927.1 55853.2 62857.8 55874.7 62788.1 55894.6 62717.9 55912.8 62647.4 55929.3 62576.4 55944.1 62505.1 55957.2 62433.5 55968.5 62361.6 55978.1 62289.5 55986 62217.3 55992.1 62144.9 55996.5 62072.5 55999.1 62000 56000 3000 56000 2927.5 55999.1 2855.1 55996.5 2782.7 55992.1 2710.5 55986 2638.4 55978.1 2566.5 55968.5 2494.9 55957.2 2423.6 55944.1 2352.6 55929.3 2282.1 55912.8 2211.9 55894.6 2142.2 55874.7 2072.9 55853.2 2004.3 55829.9 1936.2 55805 1868.7 55778.5 1801.9 55750.4 1735.8 55720.6 1670.4 55689.3 1605.8 55656.4 1542 55621.9 1479.1 55585.9 1417.1 55548.4 1356 55509.4 1295.8 55469 1236.6 55427.1 1178.5 55383.7 1121.4 55339 1065.5 55292.9 1010.6 55245.5 957 55196.8 904.5 55146.8 853.2 55095.5 803.2 55043 754.5 54989.4 707.1 54934.5 661 54878.6 616.3 54821.5 572.9 54763.4 531 54704.2 490.6 54644 451.6 54582.9 414.1 54520.9 378.1 54458 343.6 54394.2 310.7 54329.6 279.4 54264.2 249.6 54198.1 221.5 54131.3 195 54063.8 170.1 53995.7 146.8 53927.1 125.3 53857.8 105.4 53788.1 87.2 53717.9 70.7 53647.4 55.9 53576.4 42.8 53505.1 31.5 53433.5 21.9 53361.6 14 53289.5 7.9 53217.3 3.5 53144.9 0.9 53072.5 0 53000 0 3000 0.9 2927.5 3.5 2855.1 7.9 2782.7 14 2710.5 21.9 2638.4 31.5 2566.5 42.8 2494.9 55.9 2423.6 70.7 2352.6 87.2 2282.1 105.4 2211.9 125.3 2142.2 146.8 2072.9 170.1 2004.3 195 1936.2 221.5 1868.7 249.6 1801.9 279.4 1735.8 310.7 1670.4 343.6 1605.8 378.1 1542 414.1 1479.1 451.6 1417.1 490.6 1356 531 1295.8 572.9 1236.6 616.3 1178.5 661 1121.4 707.1 1065.5 754.5 1010.6 803.2 957 853.2 904.5 904.5 853.2 957 803.2 1010.6 754.5 1065.5 707.1 1121.4 661 1178.5 616.3 1236.6 572.9 1295.8 531 1356 490.6 1417.1 451.6 1479.1 414.1 1542 378.1 1605.8 343.6 1670.4 310.7 1735.8 279.4 1801.9 249.6 1868.7 221.5 1936.2 195 2004.3 170.1 2072.9 146.8 2142.2 125.3 2211.9 105.4 2282.1 87.2 2352.6 70.7 2423.6 55.9 2494.9 42.8 2566.5 31.5 2638.4 21.9 2710.5 14 2782.7 7.9 2855.1 3.5 2927.5 0.9 3000 0" fill="none" stroke-width="203.2"/><use xlink:href="#HYBrjfa8xFNfIMtm1DI7_pad-13" x="2500" y="47500"/><use xlink:href="#HYBrjfa8xFNfIMtm1DI7_pad-13" x="5040" y="47500"/><use xlink:href="#HYBrjfa8xFNfIMtm1DI7_pad-13" x="2500" y="44960"/><use xlink:href="#HYBrjfa8xFNfIMtm1DI7_pad-13" x="5040" y="44960"/><use xlink:href="#HYBrjfa8xFNfIMtm1DI7_pad-13" x="2500" y="42420"/><use xlink:href="#HYBrjfa8xFNfIMtm1DI7_pad-13" x="5040" y="42420"/><use xlink:href="#HYBrjfa8xFNfIMtm1DI7_pad-13" x="2500" y="39880"/><use xlink:href="#HYBrjfa8xFNfIMtm1DI7_pad-13" x="5040" y="39880"/><use xlink:href="#HYBrjfa8xFNfIMtm1DI7_pad-13" x="2500" y="37340"/><use xlink:href="#HYBrjfa8xFNfIMtm1DI7_pad-13" x="5040" y="37340"/><use xlink:href="#HYBrjfa8xFNfIMtm1DI7_pad-13" x="15450" y="19720"/><use xlink:href="#HYBrjfa8xFNfIMtm1DI7_pad-13" x="15450" y="27340"/><use xlink:href="#HYBrjfa8xFNfIMtm1DI7_pad-13" x="26560" y="19800"/><use xlink:href="#HYBrjfa8xFNfIMtm1DI7_pad-13" x="18940" y="19800"/><use xlink:href="#HYBrjfa8xFNfIMtm1DI7_pad-13" x="31980" y="19820"/><use xlink:href="#HYBrjfa8xFNfIMtm1DI7_pad-13" x="31980" y="27440"/><use xlink:href="#HYBrjfa8xFNfIMtm1DI7_pad-13" x="43190" y="19900"/><use xlink:href="#HYBrjfa8xFNfIMtm1DI7_pad-13" x="35570" y="19900"/><use xlink:href="#HYBrjfa8xFNfIMtm1DI7_pad-13" x="48710" y="19920"/><use xlink:href="#HYBrjfa8xFNfIMtm1DI7_pad-13" x="48710" y="27540"/><use xlink:href="#HYBrjfa8xFNfIMtm1DI7_pad-13" x="59920" y="20000"/><use xlink:href="#HYBrjfa8xFNfIMtm1DI7_pad-13" x="52300" y="20000"/><use xlink:href="#HYBrjfa8xFNfIMtm1DI7_pad-13" x="11450" y="38860"/><use xlink:href="#HYBrjfa8xFNfIMtm1DI7_pad-13" x="11450" y="46480"/><use xlink:href="#HYBrjfa8xFNfIMtm1DI7_pad-13" x="16330" y="38770"/><use xlink:href="#HYBrjfa8xFNfIMtm1DI7_pad-13" x="16330" y="46390"/><use xlink:href="#HYBrjfa8xFNfIMtm1DI7_pad-13" x="21470" y="46500"/><use xlink:href="#HYBrjfa8xFNfIMtm1DI7_pad-13" x="21470" y="38880"/><use xlink:href="#HYBrjfa8xFNfIMtm1DI7_pad-14" x="27060" y="43330"/><use xlink:href="#HYBrjfa8xFNfIMtm1DI7_pad-14" x="28330" y="41425"/><use xlink:href="#HYBrjfa8xFNfIMtm1DI7_pad-14" x="29600" y="43330"/><path d="M 5262 20350 3738 20350 M 3738 17810 5262 17810 M 5262 15270 3738 15270 M 3738 12730 5262 12730 M 5262 10190 3738 10190 M 3738 7650 5262 7650" fill="none" stroke-width="1524"/><use xlink:href="#HYBrjfa8xFNfIMtm1DI7_pad-13" x="27210" y="14300"/><use xlink:href="#HYBrjfa8xFNfIMtm1DI7_pad-13" x="19590" y="14300"/><use xlink:href="#HYBrjfa8xFNfIMtm1DI7_pad-13" x="39710" y="14300"/><use xlink:href="#HYBrjfa8xFNfIMtm1DI7_pad-13" x="32090" y="14300"/><use xlink:href="#HYBrjfa8xFNfIMtm1DI7_pad-13" x="52210" y="14300"/><use xlink:href="#HYBrjfa8xFNfIMtm1DI7_pad-13" x="44590" y="14300"/><use xlink:href="#HYBrjfa8xFNfIMtm1DI7_pad-13" x="22130" y="8800"/><use xlink:href="#HYBrjfa8xFNfIMtm1DI7_pad-13" x="24670" y="8800"/><use xlink:href="#HYBrjfa8xFNfIMtm1DI7_pad-13" x="34630" y="8800"/><use xlink:href="#HYBrjfa8xFNfIMtm1DI7_pad-13" x="37170" y="8800"/><use xlink:href="#HYBrjfa8xFNfIMtm1DI7_pad-13" x="47130" y="8800"/><use xlink:href="#HYBrjfa8xFNfIMtm1DI7_pad-13" x="49670" y="8800"/><use xlink:href="#HYBrjfa8xFNfIMtm1DI7_pad-13" x="8400" y="51200"/><use xlink:href="#HYBrjfa8xFNfIMtm1DI7_pad-13" x="8400" y="53740"/><use xlink:href="#HYBrjfa8xFNfIMtm1DI7_pad-13" x="10940" y="51200"/><use xlink:href="#HYBrjfa8xFNfIMtm1DI7_pad-13" x="10940" y="53740"/><use xlink:href="#HYBrjfa8xFNfIMtm1DI7_pad-13" x="13480" y="51200"/><use xlink:href="#HYBrjfa8xFNfIMtm1DI7_pad-13" x="13480" y="53740"/><use xlink:href="#HYBrjfa8xFNfIMtm1DI7_pad-13" x="16020" y="51200"/><use xlink:href="#HYBrjfa8xFNfIMtm1DI7_pad-13" x="16020" y="53740"/><use xlink:href="#HYBrjfa8xFNfIMtm1DI7_pad-13" x="18560" y="51200"/><use xlink:href="#HYBrjfa8xFNfIMtm1DI7_pad-13" x="18560" y="53740"/><use xlink:href="#HYBrjfa8xFNfIMtm1DI7_pad-13" x="21100" y="51200"/><use xlink:href="#HYBrjfa8xFNfIMtm1DI7_pad-13" x="21100" y="53740"/><use xlink:href="#HYBrjfa8xFNfIMtm1DI7_pad-13" x="23640" y="51200"/><use xlink:href="#HYBrjfa8xFNfIMtm1DI7_pad-13" x="23640" y="53740"/><use xlink:href="#HYBrjfa8xFNfIMtm1DI7_pad-13" x="26180" y="51200"/><use xlink:href="#HYBrjfa8xFNfIMtm1DI7_pad-13" x="26180" y="53740"/><use xlink:href="#HYBrjfa8xFNfIMtm1DI7_pad-13" x="28720" y="51200"/><use xlink:href="#HYBrjfa8xFNfIMtm1DI7_pad-13" x="28720" y="53740"/><use xlink:href="#HYBrjfa8xFNfIMtm1DI7_pad-13" x="31260" y="51200"/><use xlink:href="#HYBrjfa8xFNfIMtm1DI7_pad-13" x="31260" y="53740"/><use xlink:href="#HYBrjfa8xFNfIMtm1DI7_pad-13" x="33800" y="51200"/><use xlink:href="#HYBrjfa8xFNfIMtm1DI7_pad-13" x="33800" y="53740"/><use xlink:href="#HYBrjfa8xFNfIMtm1DI7_pad-13" x="36340" y="51200"/><use xlink:href="#HYBrjfa8xFNfIMtm1DI7_pad-13" x="36340" y="53740"/><use xlink:href="#HYBrjfa8xFNfIMtm1DI7_pad-13" x="38880" y="51200"/><use xlink:href="#HYBrjfa8xFNfIMtm1DI7_pad-13" x="38880" y="53740"/><use xlink:href="#HYBrjfa8xFNfIMtm1DI7_pad-13" x="41420" y="51200"/><use xlink:href="#HYBrjfa8xFNfIMtm1DI7_pad-13" x="41420" y="53740"/><use xlink:href="#HYBrjfa8xFNfIMtm1DI7_pad-13" x="43960" y="51200"/><use xlink:href="#HYBrjfa8xFNfIMtm1DI7_pad-13" x="43960" y="53740"/><use xlink:href="#HYBrjfa8xFNfIMtm1DI7_pad-13" x="46500" y="51200"/><use xlink:href="#HYBrjfa8xFNfIMtm1DI7_pad-13" x="46500" y="53740"/><use xlink:href="#HYBrjfa8xFNfIMtm1DI7_pad-13" x="49040" y="51200"/><use xlink:href="#HYBrjfa8xFNfIMtm1DI7_pad-13" x="49040" y="53740"/><use xlink:href="#HYBrjfa8xFNfIMtm1DI7_pad-13" x="51580" y="51200"/><use xlink:href="#HYBrjfa8xFNfIMtm1DI7_pad-13" x="51580" y="53740"/><use xlink:href="#HYBrjfa8xFNfIMtm1DI7_pad-13" x="54120" y="51200"/><use xlink:href="#HYBrjfa8xFNfIMtm1DI7_pad-13" x="54120" y="53740"/><use xlink:href="#HYBrjfa8xFNfIMtm1DI7_pad-13" x="56660" y="51200"/><use xlink:href="#HYBrjfa8xFNfIMtm1DI7_pad-13" x="56660" y="53740"/><use xlink:href="#HYBrjfa8xFNfIMtm1DI7_pad-16" x="55190" y="45810"/><path d="M 54580.4 43270 55799.6 43270 M 55799.6 40730 54580.4 40730 M 54580.4 38190 55799.6 38190 M 62200.4 38190 63419.6 38190 M 63419.6 40730 62200.4 40730 M 62200.4 43270 63419.6 43270 M 63419.6 45810 62200.4 45810" fill="none" stroke-width="1219.2"/><use xlink:href="#HYBrjfa8xFNfIMtm1DI7_pad-13" x="55190" y="29500"/><use xlink:href="#HYBrjfa8xFNfIMtm1DI7_pad-13" x="62810" y="29500"/><use xlink:href="#HYBrjfa8xFNfIMtm1DI7_pad-13" x="62810" y="33500"/><use xlink:href="#HYBrjfa8xFNfIMtm1DI7_pad-13" x="55190" y="33500"/><use xlink:href="#HYBrjfa8xFNfIMtm1DI7_pad-18" x="4000" y="31400"/><use xlink:href="#HYBrjfa8xFNfIMtm1DI7_pad-19" x="4000" y="26400"/><use xlink:href="#HYBrjfa8xFNfIMtm1DI7_pad-13" x="11460" y="33000"/><use xlink:href="#HYBrjfa8xFNfIMtm1DI7_pad-13" x="16540" y="33000"/><use xlink:href="#HYBrjfa8xFNfIMtm1DI7_pad-13" x="29040" y="33000"/><use xlink:href="#HYBrjfa8xFNfIMtm1DI7_pad-13" x="23960" y="33000"/><path d="M 39460 43898 39460 45422 M 42000 45422 42000 43898 M 44540 43898 44540 45422" fill="none" stroke-width="1524"/></g></svg>