<svg version="1.1" xmlns="http://www.w3.org/2000/svg" xmlns:xlink="http://www.w3.org/1999/xlink" stroke-linecap="round" stroke-linejoin="round" stroke-width="0" fill-rule="evenodd" width="65.2032mm" height="56.203199999999995mm" viewBox="-101.6 -101.6 65203.2 56203.2" id="XY84h8cTE9qJloYo76GY"><defs><circle cx="0" cy="0" r="1375" id="XY84h8cTE9qJloYo76GY_pad-11"/><circle cx="0" cy="0" r="939.8" id="XY84h8cTE9qJloYo76GY_pad-13"/><polygon points="-609.59881,-252.5041 -252.5041,-609.59881 252.5041,-609.59881 609.59881,-252.5041 609.59881,252.5041 252.5041,609.59881 -252.5041,609.59881 -609.59881,252.5041" id="XY84h8cTE9qJloYo76GY_pad-14"/><rect x="-609.6" y="-609.6" width="1219.2" height="1219.2" id="XY84h8cTE9qJloYo76GY_pad-16"/><rect x="-1016" y="-1016" width="2032" height="2032" id="XY84h8cTE9qJloYo76GY_pad-18"/><circle cx="0" cy="0" r="1016" id="XY84h8cTE9qJloYo76GY_pad-19"/></defs><g transform="translate(0,56000) scale(1,-1)" fill="currentColor" stroke="currentColor"><path d="M 36651.8 33403.6 36651.8 33403.6 36656.1 33404.7 36662.7 33405.3 36825.7 33446.5 36829.7 33448.3 36836.1 33450.1 36989.4 33518.9 36993.1 33521.4 36999.1 33524.3 37138.1 33618.7 37141.3 33621.8 37146.7 33625.6 37267.3 33742.7 37269.9 33746.4 37274.5 33751.1 37372.9 33887.3 37374.8 33891.4 37378.5 33896.8 37451.8 34048.1 37453 34052.4 37455.7 34058.4 37501.5 34220.1 37502 34224.6 37503.6 34231 37520.7 34398.2 37520.3 34403 37520.7 34410.9 37504.1 34578.1 37502.9 34582.4 37502 34589 37456.6 34750.7 37454.7 34754.8 37452.7 34761.1 37379.9 34912.5 37377.3 34916.1 37374.3 34922 37276.2 35058.5 37273 35061.6 37269 35066.9 37148.8 35184.3 37145.1 35186.8 37140.3 35191.3 37001.5 35286 36997.4 35287.8 36991.8 35291.4 36838.7 35360.6 36834.4 35361.7 36828.3 35364.3 36665.4 35405.8 36661 35406.1 36654.5 35407.6 36487 35420.2 36482.3 35419.8 36475.1 35420 36291.6 35399.5 36286.9 35398.1 36279.4 35396.9 36103.3 35340.9 36099.1 35338.6 36091.9 35336 35930.2 35246.7 35926.4 35243.7 35919.9 35239.7 35778.7 35120.6 35775.6 35116.9 35770 35111.7 35654.7 34967.3 35652.5 34963.1 35648 34956.9 35563.1 34792.8 35561.7 34788.2 35558.5 34781.3 35507.2 34603.8 35506.7 34599 35505 34591.5 35489.3 34407.5 35489.7 34403.1 35489.3 34396.6 35505.3 34213.5 35506.6 34208.9 35507.4 34202.8 35507.4 34202.6 35507.6 34201.3 35559 34024.9 35561.1 34020.5 35563.6 34013.3 35648.5 33850.3 35651.4 33846.5 35655.3 33839.9 35770.3 33696.6 35773.9 33693.4 35779 33687.7 35919.8 33569.6 35923.9 33567.2 35930 33562.6 36091.2 33474.2 36095.7 33472.7 36102.6 33469.3 36277.9 33414.1 36282.6 33413.5 36290 33411.5 36472.7 33391.6 36477.3 33391.9 36484.2 33391.3 36651.8 33403.6"/><path d="M 42151.8 33403.6 42151.8 33403.6 42156.1 33404.7 42162.7 33405.3 42325.7 33446.5 42329.7 33448.3 42336.1 33450.1 42489.4 33518.9 42493.1 33521.4 42499.1 33524.3 42638.1 33618.7 42641.3 33621.8 42646.7 33625.6 42767.3 33742.7 42769.9 33746.4 42774.5 33751.1 42872.9 33887.3 42874.8 33891.4 42878.5 33896.8 42951.8 34048.1 42953 34052.4 42955.7 34058.4 43001.5 34220.1 43002 34224.6 43003.6 34231 43020.7 34398.2 43020.3 34403 43020.7 34410.9 43004.1 34578.1 43002.9 34582.4 43002 34589 42956.6 34750.7 42954.7 34754.8 42952.7 34761.1 42879.9 34912.5 42877.3 34916.1 42874.3 34922 42776.2 35058.5 42773 35061.6 42769 35066.9 42648.8 35184.3 42645.1 35186.8 42640.3 35191.3 42501.5 35286 42497.4 35287.8 42491.8 35291.4 42338.7 35360.6 42334.4 35361.7 42328.3 35364.3 42165.4 35405.8 42161 35406.1 42154.5 35407.6 41987 35420.2 41982.3 35419.8 41975.1 35420 41791.6 35399.5 41786.9 35398.1 41779.4 35396.9 41603.3 35340.9 41599.1 35338.6 41591.9 35336 41430.2 35246.7 41426.4 35243.7 41419.9 35239.7 41278.7 35120.6 41275.6 35116.9 41270 35111.7 41154.7 34967.3 41152.5 34963.1 41148 34956.9 41063.1 34792.8 41061.7 34788.2 41058.5 34781.3 41007.2 34603.8 41006.7 34599 41005 34591.5 40989.3 34407.5 40989.7 34403.1 40989.3 34396.6 41005.3 34213.5 41006.6 34208.9 41007.4 34202.8 41007.4 34202.6 41007.6 34201.3 41059 34024.9 41061.1 34020.5 41063.6 34013.3 41148.5 33850.3 41151.4 33846.5 41155.3 33839.9 41270.3 33696.6 41273.9 33693.4 41279 33687.7 41419.8 33569.6 41423.9 33567.2 41430 33562.6 41591.2 33474.2 41595.7 33472.7 41602.6 33469.3 41777.9 33414.1 41782.6 33413.5 41790 33411.5 41972.7 33391.6 41977.3 33391.9 41984.2 33391.3 42151.8 33403.6"/><path d="M 36651.8 30604.5 36651.8 30604.5 36656.1 30605.6 36662.7 30606.2 36825.7 30647.4 36829.7 30649.2 36836.1 30651 36989.4 30719.8 36993.1 30722.3 36999.1 30725.2 37138.1 30819.6 37141.3 30822.7 37146.7 30826.5 37267.3 30943.6 37269.9 30947.3 37274.5 30952 37372.9 31088.2 37374.8 31092.3 37378.5 31097.7 37451.8 31249 37453 31253.3 37455.7 31259.3 37501.5 31421 37502 31425.5 37503.6 31431.9 37520.7 31599.1 37520.3 31603.9 37520.7 31611.8 37504.1 31779 37502.9 31783.3 37502 31789.9 37456.6 31951.6 37454.7 31955.7 37452.7 31962 37379.9 32113.4 37377.3 32117 37374.3 32122.9 37276.2 32259.4 37273 32262.5 37269 32267.8 37148.8 32385.2 37145.1 32387.7 37140.3 32392.2 37001.5 32486.9 36997.4 32488.7 36991.8 32492.3 36838.7 32561.5 36834.4 32562.6 36828.3 32565.2 36665.4 32606.7 36661 32607 36654.5 32608.5 36487 32621.1 36482.3 32620.7 36475.1 32620.9 36291.6 32600.4 36286.9 32599 36279.4 32597.8 36103.3 32541.8 36099.1 32539.5 36091.9 32536.9 35930.2 32447.6 35926.4 32444.6 35919.9 32440.6 35778.7 32321.5 35775.6 32317.8 35770 32312.6 35654.7 32168.2 35652.5 32164 35648 32157.8 35563.1 31993.7 35561.7 31989.1 35558.5 31982.2 35507.2 31804.7 35506.7 31799.9 35505 31792.4 35489.3 31608.4 35489.7 31604 35489.3 31597.5 35505.3 31414.4 35506.6 31409.8 35507.4 31403.7 35507.4 31403.5 35507.6 31402.2 35559 31225.8 35561.1 31221.4 35563.6 31214.2 35648.5 31051.2 35651.4 31047.4 35655.3 31040.8 35770.3 30897.5 35773.9 30894.3 35779 30888.6 35919.8 30770.5 35923.9 30768.1 35930 30763.5 36091.2 30675.1 36095.7 30673.6 36102.6 30670.2 36277.9 30615 36282.6 30614.4 36290 30612.4 36472.7 30592.5 36477.3 30592.8 36484.2 30592.2 36651.8 30604.5"/><path d="M 42151.8 30604.5 42151.8 30604.5 42156.1 30605.6 42162.7 30606.2 42325.7 30647.4 42329.7 30649.2 42336.1 30651 42489.4 30719.8 42493.1 30722.3 42499.1 30725.2 42638.1 30819.6 42641.3 30822.7 42646.7 30826.5 42767.3 30943.6 42769.9 30947.3 42774.5 30952 42872.9 31088.2 42874.8 31092.3 42878.5 31097.7 42951.8 31249 42953 31253.3 42955.7 31259.3 43001.5 31421 43002 31425.5 43003.6 31431.9 43020.7 31599.1 43020.3 31603.9 43020.7 31611.8 43004.1 31779 43002.9 31783.3 43002 31789.9 42956.6 31951.6 42954.7 31955.7 42952.7 31962 42879.9 32113.4 42877.3 32117 42874.3 32122.9 42776.2 32259.4 42773 32262.5 42769 32267.8 42648.8 32385.2 42645.1 32387.7 42640.3 32392.2 42501.5 32486.9 42497.4 32488.7 42491.8 32492.3 42338.7 32561.5 42334.4 32562.6 42328.3 32565.2 42165.4 32606.7 42161 32607 42154.5 32608.5 41987 32621.1 41982.3 32620.7 41975.1 32620.9 41791.6 32600.4 41786.9 32599 41779.4 32597.8 41603.3 32541.8 41599.1 32539.5 41591.9 32536.9 41430.2 32447.6 41426.4 32444.6 41419.9 32440.6 41278.7 32321.5 41275.6 32317.8 41270 32312.6 41154.7 32168.2 41152.5 32164 41148 32157.8 41063.1 31993.7 41061.7 31989.1 41058.5 31982.2 41007.2 31804.7 41006.7 31799.9 41005 31792.4 40989.3 31608.4 40989.7 31604 40989.3 31597.5 41005.3 31414.4 41006.6 31409.8 41007.4 31403.7 41007.4 31403.5 41007.6 31402.2 41059 31225.8 41061.1 31221.4 41063.6 31214.2 41148.5 31051.2 41151.4 31047.4 41155.3 31040.8 41270.3 30897.5 41273.9 30894.3 41279 30888.6 41419.8 30770.5 41423.9 30768.1 41430 30763.5 41591.2 30675.1 41595.7 30673.6 41602.6 30670.2 41777.9 30615 41782.6 30614.4 41790 30612.4 41972.7 30592.5 41977.3 30592.8 41984.2 30592.2 42151.8 30604.5"/><path d="M 57506 23399.7 57506 23399.7 57512.5 23399.3 57695.6 23415.3 57700.2 23416.6 57707.8 23417.6 57884.2 23469 57888.6 23471.1 57895.8 23473.6 58058.8 23558.5 58062.6 23561.4 58069.2 23565.3 58212.5 23680.3 58215.7 23683.9 58221.4 23689 58339.5 23829.8 58341.9 23833.9 58346.5 23840 58401 23939.3 58434.9 24001.2 58436.4 24005.7 58439.8 24012.6 58495 24187.9 58495.6 24192.6 58497.6 24200 58517.6 24382.7 58517.2 24387.3 58517.8 24394.2 58505.5 24561.8 58504.4 24566.1 58503.8 24572.7 58462.7 24735.7 58460.8 24739.7 58459 24746.1 58390.2 24899.4 58387.7 24903.1 58384.8 24909.1 58290.4 25048.1 58287.3 25051.3 58283.5 25056.7 58166.4 25177.3 58162.8 25179.9 58158 25184.5 58021.8 25282.9 58017.7 25284.8 58012.3 25288.5 57861 25361.8 57856.7 25363 57850.7 25365.7 57689 25411.5 57684.5 25412 57678.1 25413.6 57510.9 25430.7 57506.1 25430.3 57498.2 25430.7 57331 25414.1 57326.7 25412.9 57320.2 25412 57158.4 25366.6 57154.3 25364.7 57148 25362.7 56996.6 25289.9 56993 25287.3 56987.1 25284.3 56850.6 25186.2 56847.5 25183 56842.2 25179 56724.8 25058.8 56722.3 25055.1 56717.8 25050.3 56623.1 24911.5 56621.3 24907.4 56617.7 24901.8 56548.5 24748.7 56547.4 24744.4 56544.8 24738.3 56503.3 24575.4 56503 24571 56501.5 24564.5 56488.9 24397 56489.3 24392.3 56489.1 24385.1 56509.6 24201.6 56511 24196.9 56512.2 24189.4 56568.2 24013.3 56570.5 24009.1 56573.1 24001.9 56662.4 23840.2 56665.4 23836.4 56669.4 23829.9 56788.5 23688.7 56792.2 23685.6 56797.4 23680 56941.8 23564.7 56946 23562.5 56952.2 23558 57116.3 23473.1 57120.9 23471.7 57127.8 23468.5 57305.3 23417.2 57310.1 23416.7 57317.6 23415 57501.6 23399.3 57506 23399.7"/><path d="M 54706.9 23399.7 54706.9 23399.7 54713.4 23399.3 54896.5 23415.3 54901.1 23416.6 54908.7 23417.6 55085.1 23469 55089.5 23471.1 55096.7 23473.6 55259.7 23558.5 55263.5 23561.4 55270.1 23565.3 55413.4 23680.3 55416.6 23683.9 55422.3 23689 55540.4 23829.8 55542.8 23833.9 55547.4 23840 55601.9 23939.3 55635.8 24001.2 55637.3 24005.7 55640.7 24012.6 55695.9 24187.9 55696.5 24192.6 55698.5 24200 55718.5 24382.7 55718.1 24387.3 55718.7 24394.2 55706.4 24561.8 55705.3 24566.1 55704.7 24572.7 55663.6 24735.7 55661.7 24739.7 55659.9 24746.1 55591.1 24899.4 55588.6 24903.1 55585.7 24909.1 55491.3 25048.1 55488.2 25051.3 55484.4 25056.7 55367.3 25177.3 55363.7 25179.9 55358.9 25184.5 55222.7 25282.9 55218.6 25284.8 55213.2 25288.5 55061.9 25361.8 55057.6 25363 55051.6 25365.7 54889.9 25411.5 54885.4 25412 54879 25413.6 54711.8 25430.7 54707 25430.3 54699.1 25430.7 54531.9 25414.1 54527.6 25412.9 54521.1 25412 54359.3 25366.6 54355.2 25364.7 54348.9 25362.7 54197.5 25289.9 54193.9 25287.3 54188 25284.3 54051.5 25186.2 54048.4 25183 54043.1 25179 53925.7 25058.8 53923.2 25055.1 53918.7 25050.3 53824 24911.5 53822.2 24907.4 53818.6 24901.8 53749.4 24748.7 53748.3 24744.4 53745.7 24738.3 53704.2 24575.4 53703.9 24571 53702.4 24564.5 53689.8 24397 53690.2 24392.3 53690 24385.1 53710.5 24201.6 53711.9 24196.9 53713.1 24189.4 53769.1 24013.3 53771.4 24009.1 53774 24001.9 53863.3 23840.2 53866.3 23836.4 53870.3 23829.9 53989.4 23688.7 53993.1 23685.6 53998.3 23680 54142.7 23564.7 54146.9 23562.5 54153.1 23558 54317.2 23473.1 54321.8 23471.7 54328.7 23468.5 54506.2 23417.2 54511 23416.7 54518.5 23415 54702.5 23399.3 54706.9 23399.7"/><path d="M 40776 23399.7 40776 23399.7 40782.5 23399.3 40965.6 23415.3 40970.2 23416.6 40977.8 23417.6 41154.2 23469 41158.6 23471.1 41165.8 23473.6 41328.8 23558.5 41332.6 23561.4 41339.2 23565.3 41482.5 23680.3 41485.7 23683.9 41491.4 23689 41609.5 23829.8 41611.9 23833.9 41616.5 23840 41671 23939.3 41704.9 24001.2 41706.4 24005.7 41709.8 24012.6 41765 24187.9 41765.6 24192.6 41767.6 24200 41787.6 24382.7 41787.2 24387.3 41787.8 24394.2 41775.5 24561.8 41774.4 24566.1 41773.8 24572.7 41732.7 24735.7 41730.8 24739.7 41729 24746.1 41660.2 24899.4 41657.7 24903.1 41654.8 24909.1 41560.4 25048.1 41557.3 25051.3 41553.5 25056.7 41436.4 25177.3 41432.8 25179.9 41428 25184.5 41291.8 25282.9 41287.7 25284.8 41282.3 25288.5 41131 25361.8 41126.7 25363 41120.7 25365.7 40959 25411.5 40954.5 25412 40948.1 25413.6 40780.9 25430.7 40776.1 25430.3 40768.2 25430.7 40601 25414.1 40596.7 25412.9 40590.2 25412 40428.4 25366.6 40424.3 25364.7 40418 25362.7 40266.6 25289.9 40263 25287.3 40257.1 25284.3 40120.6 25186.2 40117.5 25183 40112.2 25179 39994.8 25058.8 39992.3 25055.1 39987.8 25050.3 39893.1 24911.5 39891.3 24907.4 39887.7 24901.8 39818.5 24748.7 39817.4 24744.4 39814.8 24738.3 39773.3 24575.4 39773 24571 39771.5 24564.5 39758.9 24397 39759.3 24392.3 39759.1 24385.1 39779.6 24201.6 39781 24196.9 39782.2 24189.4 39838.2 24013.3 39840.5 24009.1 39843.1 24001.9 39932.4 23840.2 39935.4 23836.4 39939.4 23829.9 40058.5 23688.7 40062.2 23685.6 40067.4 23680 40211.8 23564.7 40216 23562.5 40222.2 23558 40386.3 23473.1 40390.9 23471.7 40397.8 23468.5 40575.3 23417.2 40580.1 23416.7 40587.6 23415 40771.6 23399.3 40776 23399.7"/><path d="M 37976.9 23399.7 37976.9 23399.7 37983.4 23399.3 38166.5 23415.3 38171.1 23416.6 38178.7 23417.6 38355.1 23469 38359.5 23471.1 38366.7 23473.6 38529.7 23558.5 38533.5 23561.4 38540.1 23565.3 38683.4 23680.3 38686.6 23683.9 38692.3 23689 38810.4 23829.8 38812.8 23833.9 38817.4 23840 38871.9 23939.3 38905.8 24001.2 38907.3 24005.7 38910.7 24012.6 38965.9 24187.9 38966.5 24192.6 38968.5 24200 38988.5 24382.7 38988.1 24387.3 38988.7 24394.2 38976.4 24561.8 38975.3 24566.1 38974.7 24572.7 38933.6 24735.7 38931.7 24739.7 38929.9 24746.1 38861.1 24899.4 38858.6 24903.1 38855.7 24909.1 38761.3 25048.1 38758.2 25051.3 38754.4 25056.7 38637.3 25177.3 38633.7 25179.9 38628.9 25184.5 38492.7 25282.9 38488.6 25284.8 38483.2 25288.5 38331.9 25361.8 38327.6 25363 38321.6 25365.7 38159.9 25411.5 38155.4 25412 38149 25413.6 37981.8 25430.7 37977 25430.3 37969.1 25430.7 37801.9 25414.1 37797.6 25412.9 37791.1 25412 37629.3 25366.6 37625.2 25364.7 37618.9 25362.7 37467.5 25289.9 37463.9 25287.3 37458 25284.3 37321.5 25186.2 37318.4 25183 37313.1 25179 37195.7 25058.8 37193.2 25055.1 37188.7 25050.3 37094 24911.5 37092.2 24907.4 37088.6 24901.8 37019.4 24748.7 37018.3 24744.4 37015.7 24738.3 36974.2 24575.4 36973.9 24571 36972.4 24564.5 36959.8 24397 36960.2 24392.3 36960 24385.1 36980.5 24201.6 36981.9 24196.9 36983.1 24189.4 37039.1 24013.3 37041.4 24009.1 37044 24001.9 37133.3 23840.2 37136.3 23836.4 37140.3 23829.9 37259.4 23688.7 37263.1 23685.6 37268.3 23680 37412.7 23564.7 37416.9 23562.5 37423.1 23558 37587.2 23473.1 37591.8 23471.7 37598.7 23468.5 37776.2 23417.2 37781 23416.7 37788.5 23415 37972.5 23399.3 37976.9 23399.7"/><path d="M 24146 23399.7 24146 23399.7 24152.5 23399.3 24335.6 23415.3 24340.2 23416.6 24347.8 23417.6 24524.2 23469 24528.6 23471.1 24535.8 23473.6 24698.8 23558.5 24702.6 23561.4 24709.2 23565.3 24852.5 23680.3 24855.7 23683.9 24861.4 23689 24979.5 23829.8 24981.9 23833.9 24986.5 23840 25041 23939.3 25074.9 24001.2 25076.4 24005.7 25079.8 24012.6 25135 24187.9 25135.6 24192.6 25137.6 24200 25157.6 24382.7 25157.2 24387.3 25157.8 24394.2 25145.5 24561.8 25144.4 24566.1 25143.8 24572.7 25102.7 24735.7 25100.8 24739.7 25099 24746.1 25030.2 24899.4 25027.7 24903.1 25024.8 24909.1 24930.4 25048.1 24927.3 25051.3 24923.5 25056.7 24806.4 25177.3 24802.8 25179.9 24798 25184.5 24661.8 25282.9 24657.7 25284.8 24652.3 25288.5 24501 25361.8 24496.7 25363 24490.7 25365.7 24329 25411.5 24324.5 25412 24318.1 25413.6 24150.9 25430.7 24146.1 25430.3 24138.2 25430.7 23971 25414.1 23966.7 25412.9 23960.2 25412 23798.4 25366.6 23794.3 25364.7 23788 25362.7 23636.6 25289.9 23633 25287.3 23627.1 25284.3 23490.6 25186.2 23487.5 25183 23482.2 25179 23364.8 25058.8 23362.3 25055.1 23357.8 25050.3 23263.1 24911.5 23261.3 24907.4 23257.7 24901.8 23188.5 24748.7 23187.4 24744.4 23184.8 24738.3 23143.3 24575.4 23143 24571 23141.5 24564.5 23128.9 24397 23129.3 24392.3 23129.1 24385.1 23149.6 24201.6 23151 24196.9 23152.2 24189.4 23208.2 24013.3 23210.5 24009.1 23213.1 24001.9 23302.4 23840.2 23305.4 23836.4 23309.4 23829.9 23428.5 23688.7 23432.2 23685.6 23437.4 23680 23581.8 23564.7 23586 23562.5 23592.2 23558 23756.3 23473.1 23760.9 23471.7 23767.8 23468.5 23945.3 23417.2 23950.1 23416.7 23957.6 23415 24141.6 23399.3 24146 23399.7"/><path d="M 21346.9 23399.7 21346.9 23399.7 21353.4 23399.3 21536.5 23415.3 21541.1 23416.6 21548.7 23417.6 21725.1 23469 21729.5 23471.1 21736.7 23473.6 21899.7 23558.5 21903.5 23561.4 21910.1 23565.3 22053.4 23680.3 22056.6 23683.9 22062.3 23689 22180.4 23829.8 22182.8 23833.9 22187.4 23840 22241.9 23939.3 22275.8 24001.2 22277.3 24005.7 22280.7 24012.6 22335.9 24187.9 22336.5 24192.6 22338.5 24200 22358.5 24382.7 22358.1 24387.3 22358.7 24394.2 22346.4 24561.8 22345.3 24566.1 22344.7 24572.7 22303.6 24735.7 22301.7 24739.7 22299.9 24746.1 22231.1 24899.4 22228.6 24903.1 22225.7 24909.1 22131.3 25048.1 22128.2 25051.3 22124.4 25056.7 22007.3 25177.3 22003.7 25179.9 21998.9 25184.5 21862.7 25282.9 21858.6 25284.8 21853.2 25288.5 21701.9 25361.8 21697.6 25363 21691.6 25365.7 21529.9 25411.5 21525.4 25412 21519 25413.6 21351.8 25430.7 21347 25430.3 21339.1 25430.7 21171.9 25414.1 21167.6 25412.9 21161.1 25412 20999.3 25366.6 20995.2 25364.7 20988.9 25362.7 20837.5 25289.9 20833.9 25287.3 20828 25284.3 20691.5 25186.2 20688.4 25183 20683.1 25179 20565.7 25058.8 20563.2 25055.1 20558.7 25050.3 20464 24911.5 20462.2 24907.4 20458.6 24901.8 20389.4 24748.7 20388.3 24744.4 20385.7 24738.3 20344.2 24575.4 20343.9 24571 20342.4 24564.5 20329.8 24397 20330.2 24392.3 20330 24385.1 20350.5 24201.6 20351.9 24196.9 20353.1 24189.4 20409.1 24013.3 20411.4 24009.1 20414 24001.9 20503.3 23840.2 20506.3 23836.4 20510.3 23829.9 20629.4 23688.7 20633.1 23685.6 20638.3 23680 20782.7 23564.7 20786.9 23562.5 20793.1 23558 20957.2 23473.1 20961.8 23471.7 20968.7 23468.5 21146.2 23417.2 21151 23416.7 21158.5 23415 21342.5 23399.3 21346.9 23399.7"/><path d="M 14600.5 55195.4 14600.5 55195.4 14600.8 55195.1 14631.7 55200 14632.5 55200.8 14633.1 55200.5 14661 55214.7 14661.5 55215.7 14662.3 55215.6 14684.4 55237.7 14684.5 55238.9 14685.3 55239 14699.5 55266.9 14699.4 55267.3 14699.8 55267.6 14699.5 55268 14700 55268.3 14704.9 55299.2 14704.6 55299.7 14704.9 55300 14704.9 56000 14701.3 56004.7 14700.6 56004.2 14700 56004.9 12300 56004.9 12295.3 56001.3 12295.8 56000.6 12295.1 56000 12295.1 55300 12295.4 55299.5 12295.1 55299.2 12300 55268.3 12300.8 55267.5 12300.5 55266.9 12314.7 55239 12315.7 55238.5 12315.6 55237.7 12337.7 55215.6 12338.9 55215.5 12339 55214.7 12366.9 55200.5 12368 55200.7 12368.3 55200 12399.2 55195.1 12399.7 55195.4 12400 55195.1 14600 55195.1 14600.5 55195.4"/><path d="M 2125 52500 2125.4 52533.7 2126.7 52567.5 2128.7 52601.2 2131.6 52634.8 2135.3 52668.3 2139.9 52701.8 2145.2 52735.1 2151.4 52768.2 2158.4 52801.3 2166.2 52834.1 2174.8 52866.7 2184.2 52899.1 2194.4 52931.3 2205.4 52963.2 2217.1 52994.9 2229.7 53026.2 2243 53057.2 2257 53087.9 2271.8 53118.2 2287.4 53148.2 2303.6 53177.7 2320.6 53206.9 2338.3 53235.6 2356.7 53263.9 2375.8 53291.7 2395.6 53319.1 2416 53345.9 2437.1 53372.3 2458.8 53398.1 2481.2 53423.4 2504.2 53448.1 2527.7 53472.3 2551.9 53495.8 2576.6 53518.8 2601.9 53541.2 2627.7 53562.9 2654.1 53584 2680.9 53604.4 2708.3 53624.2 2736.1 53643.3 2764.4 53661.7 2793.1 53679.4 2822.3 53696.4 2851.8 53712.6 2881.8 53728.2 2912.1 53743 2942.8 53757 2973.8 53770.3 3005.1 53782.9 3036.8 53794.6 3068.7 53805.6 3100.9 53815.8 3133.3 53825.2 3165.9 53833.8 3198.7 53841.6 3231.8 53848.6 3264.9 53854.8 3298.2 53860.1 3331.7 53864.7 3365.2 53868.4 3398.8 53871.3 3432.5 53873.3 3466.3 53874.6 3500 53875 3533.7 53874.6 3567.5 53873.3 3601.2 53871.3 3634.8 53868.4 3668.3 53864.7 3701.8 53860.1 3735.1 53854.8 3768.2 53848.6 3801.3 53841.6 3834.1 53833.8 3866.7 53825.2 3899.1 53815.8 3931.3 53805.6 3963.2 53794.6 3994.9 53782.9 4026.2 53770.3 4057.2 53757 4087.9 53743 4118.2 53728.2 4148.2 53712.6 4177.7 53696.4 4206.9 53679.4 4235.6 53661.7 4263.9 53643.3 4291.7 53624.2 4319.1 53604.4 4345.9 53584 4372.3 53562.9 4398.1 53541.2 4423.4 53518.8 4448.1 53495.8 4472.3 53472.3 4495.8 53448.1 4518.8 53423.4 4541.2 53398.1 4562.9 53372.3 4584 53345.9 4604.4 53319.1 4624.2 53291.7 4643.3 53263.9 4661.7 53235.6 4679.4 53206.9 4696.4 53177.7 4712.6 53148.2 4728.2 53118.2 4743 53087.9 4757 53057.2 4770.3 53026.2 4782.9 52994.9 4794.6 52963.2 4805.6 52931.3 4815.8 52899.1 4825.2 52866.7 4833.8 52834.1 4841.6 52801.3 4848.6 52768.2 4854.8 52735.1 4860.1 52701.8 4864.7 52668.3 4868.4 52634.8 4871.3 52601.2 4873.3 52567.5 4874.6 52533.7 4875 52500 4874.6 52466.3 4873.3 52432.5 4871.3 52398.8 4868.4 52365.2 4864.7 52331.7 4860.1 52298.2 4854.8 52264.9 4848.6 52231.8 4841.6 52198.7 4833.8 52165.9 4825.2 52133.3 4815.8 52100.9 4805.6 52068.7 4794.6 52036.8 4782.9 52005.1 4770.3 51973.8 4757 51942.8 4743 51912.1 4728.2 51881.8 4712.6 51851.8 4696.4 51822.3 4679.4 51793.1 4661.7 51764.4 4643.3 51736.1 4624.2 51708.3 4604.4 51680.9 4584 51654.1 4562.9 51627.7 4541.2 51601.9 4518.8 51576.6 4495.8 51551.9 4472.3 51527.7 4448.1 51504.2 4423.4 51481.2 4398.1 51458.8 4372.3 51437.1 4345.9 51416 4319.1 51395.6 4291.7 51375.8 4263.9 51356.7 4235.6 51338.3 4206.9 51320.6 4177.7 51303.6 4148.2 51287.4 4118.2 51271.8 4087.9 51257 4057.2 51243 4026.2 51229.7 3994.9 51217.1 3963.2 51205.4 3931.3 51194.4 3899.1 51184.2 3866.7 51174.8 3834.1 51166.2 3801.3 51158.4 3768.2 51151.4 3735.1 51145.2 3701.8 51139.9 3668.3 51135.3 3634.8 51131.6 3601.2 51128.7 3567.5 51126.7 3533.7 51125.4 3500 51125 3466.3 51125.4 3432.5 51126.7 3398.8 51128.7 3365.2 51131.6 3331.7 51135.3 3298.2 51139.9 3264.9 51145.2 3231.8 51151.4 3198.7 51158.4 3165.9 51166.2 3133.3 51174.8 3100.9 51184.2 3068.7 51194.4 3036.8 51205.4 3005.1 51217.1 2973.8 51229.7 2942.8 51243 2912.1 51257 2881.8 51271.8 2851.8 51287.4 2822.3 51303.6 2793.1 51320.6 2764.4 51338.3 2736.1 51356.7 2708.3 51375.8 2680.9 51395.6 2654.1 51416 2627.7 51437.1 2601.9 51458.8 2576.6 51481.2 2551.9 51504.2 2527.7 51527.7 2504.2 51551.9 2481.2 51576.6 2458.8 51601.9 2437.1 51627.7 2416 51654.1 2395.6 51680.9 2375.8 51708.3 2356.7 51736.1 2338.3 51764.4 2320.6 51793.1 2303.6 51822.3 2287.4 51851.8 2271.8 51881.8 2257 51912.1 2243 51942.8 2229.7 51973.8 2217.1 52005.1 2205.4 52036.8 2194.4 52068.7 2184.2 52100.9 2174.8 52133.3 2166.2 52165.9 2158.4 52198.7 2151.4 52231.8 2145.2 52264.9 2139.9 52298.2 2135.3 52331.7 2131.6 52365.2 2128.7 52398.8 2126.7 52432.5 2125.4 52466.3 2125 52500" fill="none" stroke-width="0"/><use xlink:href="#XY84h8cTE9qJloYo76GY_pad-11" x="3500" y="52500"/><path d="M 60125 52500 60125.4 52533.7 60126.7 52567.5 60128.7 52601.2 60131.6 52634.8 60135.3 52668.3 60139.9 52701.8 60145.2 52735.1 60151.4 52768.2 60158.4 52801.3 60166.2 52834.1 60174.8 52866.7 60184.2 52899.1 60194.4 52931.3 60205.4 52963.2 60217.1 52994.9 60229.7 53026.2 60243 53057.2 60257 53087.9 60271.8 53118.2 60287.4 53148.2 60303.6 53177.7 60320.6 53206.9 60338.3 53235.6 60356.7 53263.9 60375.8 53291.7 60395.6 53319.1 60416 53345.9 60437.1 53372.3 60458.8 53398.1 60481.2 53423.4 60504.2 53448.1 60527.7 53472.3 60551.9 53495.8 60576.6 53518.8 60601.9 53541.2 60627.7 53562.9 60654.1 53584 60680.9 53604.4 60708.3 53624.2 60736.1 53643.3 60764.4 53661.7 60793.1 53679.4 60822.3 53696.4 60851.8 53712.6 60881.8 53728.2 60912.1 53743 60942.8 53757 60973.8 53770.3 61005.1 53782.9 61036.8 53794.6 61068.7 53805.6 61100.9 53815.8 61133.3 53825.2 61165.9 53833.8 61198.7 53841.6 61231.8 53848.6 61264.9 53854.8 61298.2 53860.1 61331.7 53864.7 61365.2 53868.4 61398.8 53871.3 61432.5 53873.3 61466.3 53874.6 61500 53875 61533.7 53874.6 61567.5 53873.3 61601.2 53871.3 61634.8 53868.4 61668.3 53864.7 61701.8 53860.1 61735.1 53854.8 61768.2 53848.6 61801.3 53841.6 61834.1 53833.8 61866.7 53825.2 61899.1 53815.8 61931.3 53805.6 61963.2 53794.6 61994.9 53782.9 62026.2 53770.3 62057.2 53757 62087.9 53743 62118.2 53728.2 62148.2 53712.6 62177.7 53696.4 62206.9 53679.4 62235.6 53661.7 62263.9 53643.3 62291.7 53624.2 62319.1 53604.4 62345.9 53584 62372.3 53562.9 62398.1 53541.2 62423.4 53518.8 62448.1 53495.8 62472.3 53472.3 62495.8 53448.1 62518.8 53423.4 62541.2 53398.1 62562.9 53372.3 62584 53345.9 62604.4 53319.1 62624.2 53291.7 62643.3 53263.9 62661.7 53235.6 62679.4 53206.9 62696.4 53177.7 62712.6 53148.2 62728.2 53118.2 62743 53087.9 62757 53057.2 62770.3 53026.2 62782.9 52994.9 62794.6 52963.2 62805.6 52931.3 62815.8 52899.1 62825.2 52866.7 62833.8 52834.1 62841.6 52801.3 62848.6 52768.2 62854.8 52735.1 62860.1 52701.8 62864.7 52668.3 62868.4 52634.8 62871.3 52601.2 62873.3 52567.5 62874.6 52533.7 62875 52500 62874.6 52466.3 62873.3 52432.5 62871.3 52398.8 62868.4 52365.2 62864.7 52331.7 62860.1 52298.2 62854.8 52264.9 62848.6 52231.8 62841.6 52198.7 62833.8 52165.9 62825.2 52133.3 62815.8 52100.9 62805.6 52068.7 62794.6 52036.8 62782.9 52005.1 62770.3 51973.8 62757 51942.8 62743 51912.1 62728.2 51881.8 62712.6 51851.8 62696.4 51822.3 62679.4 51793.1 62661.7 51764.4 62643.3 51736.1 62624.2 51708.3 62604.4 51680.9 62584 51654.1 62562.9 51627.7 62541.2 51601.9 62518.8 51576.6 62495.8 51551.9 62472.3 51527.7 62448.1 51504.2 62423.4 51481.2 62398.1 51458.8 62372.3 51437.1 62345.9 51416 62319.1 51395.6 62291.7 51375.8 62263.9 51356.7 62235.6 51338.3 62206.9 51320.6 62177.7 51303.6 62148.2 51287.4 62118.2 51271.8 62087.9 51257 62057.2 51243 62026.2 51229.7 61994.9 51217.1 61963.2 51205.4 61931.3 51194.4 61899.1 51184.2 61866.7 51174.8 61834.1 51166.2 61801.3 51158.4 61768.2 51151.4 61735.1 51145.2 61701.8 51139.9 61668.3 51135.3 61634.8 51131.6 61601.2 51128.7 61567.5 51126.7 61533.7 51125.4 61500 51125 61466.3 51125.4 61432.5 51126.7 61398.8 51128.7 61365.2 51131.6 61331.7 51135.3 61298.2 51139.9 61264.9 51145.2 61231.8 51151.4 61198.7 51158.4 61165.9 51166.2 61133.3 51174.8 61100.9 51184.2 61068.7 51194.4 61036.8 51205.4 61005.1 51217.1 60973.8 51229.7 60942.8 51243 60912.1 51257 60881.8 51271.8 60851.8 51287.4 60822.3 51303.6 60793.1 51320.6 60764.4 51338.3 60736.1 51356.7 60708.3 51375.8 60680.9 51395.6 60654.1 51416 60627.7 51437.1 60601.9 51458.8 60576.6 51481.2 60551.9 51504.2 60527.7 51527.7 60504.2 51551.9 60481.2 51576.6 60458.8 51601.9 60437.1 51627.7 60416 51654.1 60395.6 51680.9 60375.8 51708.3 60356.7 51736.1 60338.3 51764.4 60320.6 51793.1 60303.6 51822.3 60287.4 51851.8 60271.8 51881.8 60257 51912.1 60243 51942.8 60229.7 51973.8 60217.1 52005.1 60205.4 52036.8 60194.4 52068.7 60184.2 52100.9 60174.8 52133.3 60166.2 52165.9 60158.4 52198.7 60151.4 52231.8 60145.2 52264.9 60139.9 52298.2 60135.3 52331.7 60131.6 52365.2 60128.7 52398.8 60126.7 52432.5 60125.4 52466.3 60125 52500" fill="none" stroke-width="0"/><use xlink:href="#XY84h8cTE9qJloYo76GY_pad-11" x="61500" y="52500"/><path d="M 2125 3500 2125.4 3533.7 2126.7 3567.5 2128.7 3601.2 2131.6 3634.8 2135.3 3668.3 2139.9 3701.8 2145.2 3735.1 2151.4 3768.2 2158.4 3801.3 2166.2 3834.1 2174.8 3866.7 2184.2 3899.1 2194.4 3931.3 2205.4 3963.2 2217.1 3994.9 2229.7 4026.2 2243 4057.2 2257 4087.9 2271.8 4118.2 2287.4 4148.2 2303.6 4177.7 2320.6 4206.9 2338.3 4235.6 2356.7 4263.9 2375.8 4291.7 2395.6 4319.1 2416 4345.9 2437.1 4372.3 2458.8 4398.1 2481.2 4423.4 2504.2 4448.1 2527.7 4472.3 2551.9 4495.8 2576.6 4518.8 2601.9 4541.2 2627.7 4562.9 2654.1 4584 2680.9 4604.4 2708.3 4624.2 2736.1 4643.3 2764.4 4661.7 2793.1 4679.4 2822.3 4696.4 2851.8 4712.6 2881.8 4728.2 2912.1 4743 2942.8 4757 2973.8 4770.3 3005.1 4782.9 3036.8 4794.6 3068.7 4805.6 3100.9 4815.8 3133.3 4825.2 3165.9 4833.8 3198.7 4841.6 3231.8 4848.6 3264.9 4854.8 3298.2 4860.1 3331.7 4864.7 3365.2 4868.4 3398.8 4871.3 3432.5 4873.3 3466.3 4874.6 3500 4875 3533.7 4874.6 3567.5 4873.3 3601.2 4871.3 3634.8 4868.4 3668.3 4864.7 3701.8 4860.1 3735.1 4854.8 3768.2 4848.6 3801.3 4841.6 3834.1 4833.8 3866.7 4825.2 3899.1 4815.8 3931.3 4805.6 3963.2 4794.6 3994.9 4782.9 4026.2 4770.3 4057.2 4757 4087.9 4743 4118.2 4728.2 4148.2 4712.6 4177.7 4696.4 4206.9 4679.4 4235.6 4661.7 4263.9 4643.3 4291.7 4624.2 4319.1 4604.4 4345.9 4584 4372.3 4562.9 4398.1 4541.2 4423.4 4518.8 4448.1 4495.8 4472.3 4472.3 4495.8 4448.1 4518.8 4423.4 4541.2 4398.1 4562.9 4372.3 4584 4345.9 4604.4 4319.1 4624.2 4291.7 4643.3 4263.9 4661.7 4235.6 4679.4 4206.9 4696.4 4177.7 4712.6 4148.2 4728.2 4118.2 4743 4087.9 4757 4057.2 4770.3 4026.2 4782.9 3994.9 4794.6 3963.2 4805.6 3931.3 4815.8 3899.1 4825.2 3866.7 4833.8 3834.1 4841.6 3801.3 4848.6 3768.2 4854.8 3735.1 4860.1 3701.8 4864.7 3668.3 4868.4 3634.8 4871.3 3601.2 4873.3 3567.5 4874.6 3533.7 4875 3500 4874.6 3466.3 4873.3 3432.5 4871.3 3398.8 4868.4 3365.2 4864.7 3331.7 4860.1 3298.2 4854.8 3264.9 4848.6 3231.8 4841.6 3198.7 4833.8 3165.9 4825.2 3133.3 4815.8 3100.9 4805.6 3068.7 4794.6 3036.8 4782.9 3005.1 4770.3 2973.8 4757 2942.8 4743 2912.1 4728.2 2881.8 4712.6 2851.8 4696.4 2822.3 4679.4 2793.1 4661.7 2764.4 4643.3 2736.1 4624.2 2708.3 4604.4 2680.9 4584 2654.1 4562.9 2627.7 4541.2 2601.9 4518.8 2576.6 4495.8 2551.9 4472.3 2527.7 4448.1 2504.2 4423.4 2481.2 4398.1 2458.8 4372.3 2437.1 4345.9 2416 4319.1 2395.6 4291.7 2375.8 4263.9 2356.7 4235.6 2338.3 4206.9 2320.6 4177.7 2303.6 4148.2 2287.4 4118.2 2271.8 4087.9 2257 4057.2 2243 4026.2 2229.7 3994.9 2217.1 3963.2 2205.4 3931.3 2194.4 3899.1 2184.2 3866.7 2174.8 3834.1 2166.2 3801.3 2158.4 3768.2 2151.4 3735.1 2145.2 3701.8 2139.9 3668.3 2135.3 3634.8 2131.6 3601.2 2128.7 3567.5 2126.7 3533.7 2125.4 3500 2125 3466.3 2125.4 3432.5 2126.7 3398.8 2128.7 3365.2 2131.6 3331.7 2135.3 3298.2 2139.9 3264.9 2145.2 3231.8 2151.4 3198.7 2158.4 3165.9 2166.2 3133.3 2174.8 3100.9 2184.2 3068.7 2194.4 3036.8 2205.4 3005.1 2217.1 2973.8 2229.7 2942.8 2243 2912.1 2257 2881.8 2271.8 2851.8 2287.4 2822.3 2303.6 2793.1 2320.6 2764.4 2338.3 2736.1 2356.7 2708.3 2375.8 2680.9 2395.6 2654.1 2416 2627.7 2437.1 2601.9 2458.8 2576.6 2481.2 2551.9 2504.2 2527.7 2527.7 2504.2 2551.9 2481.2 2576.6 2458.8 2601.9 2437.1 2627.7 2416 2654.1 2395.6 2680.9 2375.8 2708.3 2356.7 2736.1 2338.3 2764.4 2320.6 2793.1 2303.6 2822.3 2287.4 2851.8 2271.8 2881.8 2257 2912.1 2243 2942.8 2229.7 2973.8 2217.1 3005.1 2205.4 3036.8 2194.4 3068.7 2184.2 3100.9 2174.8 3133.3 2166.2 3165.9 2158.4 3198.7 2151.4 3231.8 2145.2 3264.9 2139.9 3298.2 2135.3 3331.7 2131.6 3365.2 2128.7 3398.8 2126.7 3432.5 2125.4 3466.3 2125 3500" fill="none" stroke-width="0"/><use xlink:href="#XY84h8cTE9qJloYo76GY_pad-11" x="3500" y="3500"/><path d="M 60125 3500 60125.4 3533.7 60126.7 3567.5 60128.7 3601.2 60131.6 3634.8 60135.3 3668.3 60139.9 3701.8 60145.2 3735.1 60151.4 3768.2 60158.4 3801.3 60166.2 3834.1 60174.8 3866.7 60184.2 3899.1 60194.4 3931.3 60205.4 3963.2 60217.1 3994.9 60229.7 4026.2 60243 4057.2 60257 4087.9 60271.8 4118.2 60287.4 4148.2 60303.6 4177.7 60320.6 4206.9 60338.3 4235.6 60356.7 4263.9 60375.8 4291.7 60395.6 4319.1 60416 4345.9 60437.1 4372.3 60458.8 4398.1 60481.2 4423.4 60504.2 4448.1 60527.7 4472.3 60551.9 4495.8 60576.6 4518.8 60601.9 4541.2 60627.7 4562.9 60654.1 4584 60680.9 4604.4 60708.3 4624.2 60736.1 4643.3 60764.4 4661.7 60793.1 4679.4 60822.3 4696.4 60851.8 4712.6 60881.8 4728.2 60912.1 4743 60942.8 4757 60973.8 4770.3 61005.1 4782.9 61036.8 4794.6 61068.7 4805.6 61100.9 4815.8 61133.3 4825.2 61165.9 4833.8 61198.7 4841.6 61231.8 4848.6 61264.9 4854.8 61298.2 4860.1 61331.7 4864.7 61365.2 4868.4 61398.8 4871.3 61432.5 4873.3 61466.3 4874.6 61500 4875 61533.7 4874.6 61567.5 4873.3 61601.2 4871.3 61634.8 4868.4 61668.3 4864.7 61701.8 4860.1 61735.1 4854.8 61768.2 4848.6 61801.3 4841.6 61834.1 4833.8 61866.7 4825.2 61899.1 4815.8 61931.3 4805.6 61963.2 4794.6 61994.9 4782.9 62026.2 4770.3 62057.2 4757 62087.9 4743 62118.2 4728.2 62148.2 4712.6 62177.7 4696.4 62206.9 4679.4 62235.6 4661.7 62263.9 4643.3 62291.7 4624.2 62319.1 4604.4 62345.9 4584 62372.3 4562.9 62398.1 4541.2 62423.4 4518.8 62448.1 4495.8 62472.3 4472.3 62495.8 4448.1 62518.8 4423.4 62541.2 4398.1 62562.9 4372.3 62584 4345.9 62604.4 4319.1 62624.2 4291.7 62643.3 4263.9 62661.7 4235.6 62679.4 4206.9 62696.4 4177.7 62712.6 4148.2 62728.2 4118.2 62743 4087.9 62757 4057.2 62770.3 4026.2 62782.9 3994.9 62794.6 3963.2 62805.6 3931.3 62815.8 3899.1 62825.2 3866.7 62833.8 3834.1 62841.6 3801.3 62848.6 3768.2 62854.8 3735.1 62860.1 3701.8 62864.7 3668.3 62868.4 3634.8 62871.3 3601.2 62873.3 3567.5 62874.6 3533.7 62875 3500 62874.6 3466.3 62873.3 3432.5 62871.3 3398.8 62868.4 3365.2 62864.7 3331.7 62860.1 3298.2 62854.8 3264.9 62848.6 3231.8 62841.6 3198.7 62833.8 3165.9 62825.2 3133.3 62815.8 3100.9 62805.6 3068.7 62794.6 3036.8 62782.9 3005.1 62770.3 2973.8 62757 2942.8 62743 2912.1 62728.2 2881.8 62712.6 2851.8 62696.4 2822.3 62679.4 2793.1 62661.7 2764.4 62643.3 2736.1 62624.2 2708.3 62604.4 2680.9 62584 2654.1 62562.9 2627.7 62541.2 2601.9 62518.8 2576.6 62495.8 2551.9 62472.3 2527.7 62448.1 2504.2 62423.4 2481.2 62398.1 2458.8 62372.3 2437.1 62345.9 2416 62319.1 2395.6 62291.7 2375.8 62263.9 2356.7 62235.6 2338.3 62206.9 2320.6 62177.7 2303.6 62148.2 2287.4 62118.2 2271.8 62087.9 2257 62057.2 2243 62026.2 2229.7 61994.9 2217.1 61963.2 2205.4 61931.3 2194.4 61899.1 2184.2 61866.7 2174.8 61834.1 2166.2 61801.3 2158.4 61768.2 2151.4 61735.1 2145.2 61701.8 2139.9 61668.3 2135.3 61634.8 2131.6 61601.2 2128.7 61567.5 2126.7 61533.7 2125.4 61500 2125 61466.3 2125.4 61432.5 2126.7 61398.8 2128.7 61365.2 2131.6 61331.7 2135.3 61298.2 2139.9 61264.9 2145.2 61231.8 2151.4 61198.7 2158.4 61165.9 2166.2 61133.3 2174.8 61100.9 2184.2 61068.7 2194.4 61036.8 2205.4 61005.1 2217.1 60973.8 2229.7 60942.8 2243 60912.1 2257 60881.8 2271.8 60851.8 2287.4 60822.3 2303.6 60793.1 2320.6 60764.4 2338.3 60736.1 2356.7 60708.3 2375.8 60680.9 2395.6 60654.1 2416 60627.7 2437.1 60601.9 2458.8 60576.6 2481.2 60551.9 2504.2 60527.7 2527.7 60504.2 2551.9 60481.2 2576.6 60458.8 2601.9 60437.1 2627.7 60416 2654.1 60395.6 2680.9 60375.8 2708.3 60356.7 2736.1 60338.3 2764.4 60320.6 2793.1 60303.6 2822.3 60287.4 2851.8 60271.8 2881.8 60257 2912.1 60243 2942.8 60229.7 2973.8 60217.1 3005.1 60205.4 3036.8 60194.4 3068.7 60184.2 3100.9 60174.8 3133.3 60166.2 3165.9 60158.4 3198.7 60151.4 3231.8 60145.2 3264.9 60139.9 3298.2 60135.3 3331.7 60131.6 3365.2 60128.7 3398.8 60126.7 3432.5 60125.4 3466.3 60125 3500" fill="none" stroke-width="0"/><use xlink:href="#XY84h8cTE9qJloYo76GY_pad-11" x="61500" y="3500"/><path d="M 62000 0 3000 0 M 62000 0 62072.5 0.9 62144.9 3.5 62217.3 7.9 62289.5 14 62361.6 21.9 62433.5 31.5 62505.1 42.8 62576.4 55.9 62647.4 70.7 62717.9 87.2 62788.1 105.4 62857.8 125.3 62927.1 146.8 62995.7 170.1 63063.8 195 63131.3 221.5 63198.1 249.6 63264.2 279.4 63329.6 310.7 63394.2 343.6 63458 378.1 63520.9 414.1 63582.9 451.6 63644 490.6 63704.2 531 63763.4 572.9 63821.5 616.3 63878.6 661 63934.5 707.1 63989.4 754.5 64043 803.2 64095.5 853.2 64146.8 904.5 64196.8 957 64245.5 1010.6 64292.9 1065.5 64339 1121.4 64383.7 1178.5 64427.1 1236.6 64469 1295.8 64509.4 1356 64548.4 1417.1 64585.9 1479.1 64621.9 1542 64656.4 1605.8 64689.3 1670.4 64720.6 1735.8 64750.4 1801.9 64778.5 1868.7 64805 1936.2 64829.9 2004.3 64853.2 2072.9 64874.7 2142.2 64894.6 2211.9 64912.8 2282.1 64929.3 2352.6 64944.1 2423.6 64957.2 2494.9 64968.5 2566.5 64978.1 2638.4 64986 2710.5 64992.1 2782.7 64996.5 2855.1 64999.1 2927.5 65000 3000 65000 53000 64999.1 53072.5 64996.5 53144.9 64992.1 53217.3 64986 53289.5 64978.1 53361.6 64968.5 53433.5 64957.2 53505.1 64944.1 53576.4 64929.3 53647.4 64912.8 53717.9 64894.6 53788.1 64874.7 53857.8 64853.2 53927.1 64829.9 53995.7 64805 54063.8 64778.5 54131.3 64750.4 54198.1 64720.6 54264.2 64689.3 54329.6 64656.4 54394.2 64621.9 54458 64585.9 54520.9 64548.4 54582.9 64509.4 54644 64469 54704.2 64427.1 54763.4 64383.7 54821.5 64339 54878.6 64292.9 54934.5 64245.5 54989.4 64196.8 55043 64146.8 55095.5 64095.5 55146.8 64043 55196.8 63989.4 55245.5 63934.5 55292.9 63878.6 55339 63821.5 55383.7 63763.4 55427.1 63704.2 55469 63644 55509.4 63582.9 55548.4 63520.9 55585.9 63458 55621.9 63394.2 55656.4 63329.6 55689.3 63264.2 55720.6 63198.1 55750.4 63131.3 55778.5 63063.8 55805 62995.7 55829.9 62927.1 55853.2 62857.8 55874.7 62788.1 55894.6 62717.9 55912.8 62647.4 55929.3 62576.4 55944.1 62505.1 55957.2 62433.5 55968.5 62361.6 55978.1 62289.5 55986 62217.3 55992.1 62144.9 55996.5 62072.5 55999.1 62000 56000 3000 56000 2927.5 55999.1 2855.1 55996.5 2782.7 55992.1 2710.5 55986 2638.4 55978.1 2566.5 55968.5 2494.9 55957.2 2423.6 55944.1 2352.6 55929.3 2282.1 55912.8 2211.9 55894.6 2142.2 55874.7 2072.9 55853.2 2004.3 55829.9 1936.2 55805 1868.7 55778.5 1801.9 55750.4 1735.8 55720.6 1670.4 55689.3 1605.8 55656.4 1542 55621.9 1479.1 55585.9 1417.1 55548.4 1356 55509.4 1295.8 55469 1236.6 55427.1 1178.5 55383.7 1121.4 55339 1065.5 55292.9 1010.6 55245.5 957 55196.8 904.5 55146.8 853.2 55095.5 803.2 55043 754.5 54989.4 707.1 54934.5 661 54878.6 616.3 54821.5 572.9 54763.4 531 54704.2 490.6 54644 451.6 54582.9 414.1 54520.9 378.1 54458 343.6 54394.2 310.7 54329.6 279.4 54264.2 249.6 54198.1 221.5 54131.3 195 54063.8 170.1 53995.7 146.8 53927.1 125.3 53857.8 105.4 53788.1 87.2 53717.9 70.7 53647.4 55.9 53576.4 42.8 53505.1 31.5 53433.5 21.9 53361.6 14 53289.5 7.9 53217.3 3.5 53144.9 0.9 53072.5 0 53000 0 3000 0.9 2927.5 3.5 2855.1 7.9 2782.7 14 2710.5 21.9 2638.4 31.5 2566.5 42.8 2494.9 55.9 2423.6 70.7 2352.6 87.2 2282.1 105.4 2211.9 125.3 2142.2 146.8 2072.9 170.1 2004.3 195 1936.2 221.5 1868.7 249.6 1801.9 279.4 1735.8 310.7 1670.4 343.6 1605.8 378.1 1542 414.1 1479.1 451.6 1417.1 490.6 1356 531 1295.8 572.9 1236.6 616.3 1178.5 661 1121.4 707.1 1065.5 754.5 1010.6 803.2 957 853.2 904.5 904.5 853.2 957 803.2 1010.6 754.5 1065.5 707.1 1121.4 661 1178.5 616.3 1236.6 572.9 1295.8 531 1356 490.6 1417.1 451.6 1479.1 414.1 1542 378.1 1605.8 343.6 1670.4 310.7 1735.8 279.4 1801.9 249.6 1868.7 221.5 1936.2 195 2004.3 170.1 2072.9 146.8 2142.2 125.3 2211.9 105.4 2282.1 87.2 2352.6 70.7 2423.6 55.9 2494.9 42.8 2566.5 31.5 2638.4 21.9 2710.5 14 2782.7 7.9 2855.1 3.5 2927.5 0.9 3000 0" fill="none" stroke-width="203.2"/><use xlink:href="#XY84h8cTE9qJloYo76GY_pad-13" x="2500" y="47500"/><use xlink:href="#XY84h8cTE9qJloYo76GY_pad-13" x="5040" y="47500"/><use xlink:href="#XY84h8cTE9qJloYo76GY_pad-13" x="2500" y="44960"/><use xlink:href="#XY84h8cTE9qJloYo76GY_pad-13" x="5040" y="44960"/><use xlink:href="#XY84h8cTE9qJloYo76GY_pad-13" x="2500" y="42420"/><use xlink:href="#XY84h8cTE9qJloYo76GY_pad-13" x="5040" y="42420"/><use xlink:href="#XY84h8cTE9qJloYo76GY_pad-13" x="2500" y="39880"/><use xlink:href="#XY84h8cTE9qJloYo76GY_pad-13" x="5040" y="39880"/><use xlink:href="#XY84h8cTE9qJloYo76GY_pad-13" x="2500" y="37340"/><use xlink:href="#XY84h8cTE9qJloYo76GY_pad-13" x="5040" y="37340"/><use xlink:href="#XY84h8cTE9qJloYo76GY_pad-13" x="15450" y="19720"/><use xlink:href="#XY84h8cTE9qJloYo76GY_pad-13" x="15450" y="27340"/><use xlink:href="#XY84h8cTE9qJloYo76GY_pad-13" x="26560" y="19800"/><use xlink:href="#XY84h8cTE9qJloYo76GY_pad-13" x="18940" y="19800"/><use xlink:href="#XY84h8cTE9qJloYo76GY_pad-13" x="31980" y="19820"/><use xlink:href="#XY84h8cTE9qJloYo76GY_pad-13" x="31980" y="27440"/><use xlink:href="#XY84h8cTE9qJloYo76GY_pad-13" x="43190" y="19900"/><use xlink:href="#XY84h8cTE9qJloYo76GY_pad-13" x="35570" y="19900"/><use xlink:href="#XY84h8cTE9qJloYo76GY_pad-13" x="48710" y="19920"/><use xlink:href="#XY84h8cTE9qJloYo76GY_pad-13" x="48710" y="27540"/><use xlink:href="#XY84h8cTE9qJloYo76GY_pad-13" x="59920" y="20000"/><use xlink:href="#XY84h8cTE9qJloYo76GY_pad-13" x="52300" y="20000"/><use xlink:href="#XY84h8cTE9qJloYo76GY_pad-13" x="11450" y="38860"/><use xlink:href="#XY84h8cTE9qJloYo76GY_pad-13" x="11450" y="46480"/><use xlink:href="#XY84h8cTE9qJloYo76GY_pad-13" x="16330" y="38770"/><use xlink:href="#XY84h8cTE9qJloYo76GY_pad-13" x="16330" y="46390"/><use xlink:href="#XY84h8cTE9qJloYo76GY_pad-13" x="21470" y="46500"/><use xlink:href="#XY84h8cTE9qJloYo76GY_pad-13" x="21470" y="38880"/><use xlink:href="#XY84h8cTE9qJloYo76GY_pad-14" x="27060" y="43330"/><use xlink:href="#XY84h8cTE9qJloYo76GY_pad-14" x="28330" y="41425"/><use xlink:href="#XY84h8cTE9qJloYo76GY_pad-14" x="29600" y="43330"/><path d="M 5262 20350 3738 20350 M 3738 17810 5262 17810 M 5262 15270 3738 15270 M 3738 12730 5262 12730 M 5262 10190 3738 10190 M 3738 7650 5262 7650" fill="none" stroke-width="1524"/><use xlink:href="#XY84h8cTE9qJloYo76GY_pad-13" x="27210" y="14300"/><use xlink:href="#XY84h8cTE9qJloYo76GY_pad-13" x="19590" y="14300"/><use xlink:href="#XY84h8cTE9qJloYo76GY_pad-13" x="39710" y="14300"/><use xlink:href="#XY84h8cTE9qJloYo76GY_pad-13" x="32090" y="14300"/><use xlink:href="#XY84h8cTE9qJloYo76GY_pad-13" x="52210" y="14300"/><use xlink:href="#XY84h8cTE9qJloYo76GY_pad-13" x="44590" y="14300"/><use xlink:href="#XY84h8cTE9qJloYo76GY_pad-13" x="22130" y="8800"/><use xlink:href="#XY84h8cTE9qJloYo76GY_pad-13" x="24670" y="8800"/><use xlink:href="#XY84h8cTE9qJloYo76GY_pad-13" x="34630" y="8800"/><use xlink:href="#XY84h8cTE9qJloYo76GY_pad-13" x="37170" y="8800"/><use xlink:href="#XY84h8cTE9qJloYo76GY_pad-13" x="47130" y="8800"/><use xlink:href="#XY84h8cTE9qJloYo76GY_pad-13" x="49670" y="8800"/><use xlink:href="#XY84h8cTE9qJloYo76GY_pad-13" x="8400" y="51200"/><use xlink:href="#XY84h8cTE9qJloYo76GY_pad-13" x="8400" y="53740"/><use xlink:href="#XY84h8cTE9qJloYo76GY_pad-13" x="10940" y="51200"/><use xlink:href="#XY84h8cTE9qJloYo76GY_pad-13" x="10940" y="53740"/><use xlink:href="#XY84h8cTE9qJloYo76GY_pad-13" x="13480" y="51200"/><use xlink:href="#XY84h8cTE9qJloYo76GY_pad-13" x="13480" y="53740"/><use xlink:href="#XY84h8cTE9qJloYo76GY_pad-13" x="16020" y="51200"/><use xlink:href="#XY84h8cTE9qJloYo76GY_pad-13" x="16020" y="53740"/><use xlink:href="#XY84h8cTE9qJloYo76GY_pad-13" x="18560" y="51200"/><use xlink:href="#XY84h8cTE9qJloYo76GY_pad-13" x="18560" y="53740"/><use xlink:href="#XY84h8cTE9qJloYo76GY_pad-13" x="21100" y="51200"/><use xlink:href="#XY84h8cTE9qJloYo76GY_pad-13" x="21100" y="53740"/><use xlink:href="#XY84h8cTE9qJloYo76GY_pad-13" x="23640" y="51200"/><use xlink:href="#XY84h8cTE9qJloYo76GY_pad-13" x="23640" y="53740"/><use xlink:href="#XY84h8cTE9qJloYo76GY_pad-13" x="26180" y="51200"/><use xlink:href="#XY84h8cTE9qJloYo76GY_pad-13" x="26180" y="53740"/><use xlink:href="#XY84h8cTE9qJloYo76GY_pad-13" x="28720" y="51200"/><use xlink:href="#XY84h8cTE9qJloYo76GY_pad-13" x="28720" y="53740"/><use xlink:href="#XY84h8cTE9qJloYo76GY_pad-13" x="31260" y="51200"/><use xlink:href="#XY84h8cTE9qJloYo76GY_pad-13" x="31260" y="53740"/><use xlink:href="#XY84h8cTE9qJloYo76GY_pad-13" x="33800" y="51200"/><use xlink:href="#XY84h8cTE9qJloYo76GY_pad-13" x="33800" y="53740"/><use xlink:href="#XY84h8cTE9qJloYo76GY_pad-13" x="36340" y="51200"/><use xlink:href="#XY84h8cTE9qJloYo76GY_pad-13" x="36340" y="53740"/><use xlink:href="#XY84h8cTE9qJloYo76GY_pad-13" x="38880" y="51200"/><use xlink:href="#XY84h8cTE9qJloYo76GY_pad-13" x="38880" y="53740"/><use xlink:href="#XY84h8cTE9qJloYo76GY_pad-13" x="41420" y="51200"/><use xlink:href="#XY84h8cTE9qJloYo76GY_pad-13" x="41420" y="53740"/><use xlink:href="#XY84h8cTE9qJloYo76GY_pad-13" x="43960" y="51200"/><use xlink:href="#XY84h8cTE9qJloYo76GY_pad-13" x="43960" y="53740"/><use xlink:href="#XY84h8cTE9qJloYo76GY_pad-13" x="46500" y="51200"/><use xlink:href="#XY84h8cTE9qJloYo76GY_pad-13" x="46500" y="53740"/><use xlink:href="#XY84h8cTE9qJloYo76GY_pad-13" x="49040" y="51200"/><use xlink:href="#XY84h8cTE9qJloYo76GY_pad-13" x="49040" y="53740"/><use xlink:href="#XY84h8cTE9qJloYo76GY_pad-13" x="51580" y="51200"/><use xlink:href="#XY84h8cTE9qJloYo76GY_pad-13" x="51580" y="53740"/><use xlink:href="#XY84h8cTE9qJloYo76GY_pad-13" x="54120" y="51200"/><use xlink:href="#XY84h8cTE9qJloYo76GY_pad-13" x="54120" y="53740"/><use xlink:href="#XY84h8cTE9qJloYo76GY_pad-13" x="56660" y="51200"/><use xlink:href="#XY84h8cTE9qJloYo76GY_pad-13" x="56660" y="53740"/><use xlink:href="#XY84h8cTE9qJloYo76GY_pad-16" x="55190" y="45810"/><path d="M 54580.4 43270 55799.6 43270 M 55799.6 40730 54580.4 40730 M 54580.4 38190 55799.6 38190 M 62200.4 38190 63419.6 38190 M 63419.6 40730 62200.4 40730 M 62200.4 43270 63419.6 43270 M 63419.6 45810 62200.4 45810" fill="none" stroke-width="1219.2"/><use xlink:href="#XY84h8cTE9qJloYo76GY_pad-13" x="55190" y="29500"/><use xlink:href="#XY84h8cTE9qJloYo76GY_pad-13" x="62810" y="29500"/><use xlink:href="#XY84h8cTE9qJloYo76GY_pad-13" x="62810" y="33500"/><use xlink:href="#XY84h8cTE9qJloYo76GY_pad-13" x="55190" y="33500"/><use xlink:href="#XY84h8cTE9qJloYo76GY_pad-18" x="4000" y="31400"/><use xlink:href="#XY84h8cTE9qJloYo76GY_pad-19" x="4000" y="26400"/><use xlink:href="#XY84h8cTE9qJloYo76GY_pad-13" x="11460" y="33000"/><use xlink:href="#XY84h8cTE9qJloYo76GY_pad-13" x="16540" y="33000"/><use xlink:href="#XY84h8cTE9qJloYo76GY_pad-13" x="29040" y="33000"/><use xlink:href="#XY84h8cTE9qJloYo76GY_pad-13" x="23960" y="33000"/><path d="M 39460 43898 39460 45422 M 42000 45422 42000 43898 M 44540 43898 44540 45422" fill="none" stroke-width="1524"/></g></svg>