<svg version="1.1" xmlns="http://www.w3.org/2000/svg" xmlns:xlink="http://www.w3.org/1999/xlink" stroke-linecap="round" stroke-linejoin="round" stroke-width="0" fill-rule="evenodd" width="65.2032mm" height="56.203199999999995mm" viewBox="-101.6 -101.6 65203.2 56203.2" id="HHpn6UCd-d38w5HjY6uE"><g transform="translate(0,56000) scale(1,-1)" fill="currentColor" stroke="currentColor"><path d="M 14600.5 55195.4 14600.5 55195.4 14600.8 55195.1 14631.7 55200 14632.5 55200.8 14633.1 55200.5 14661 55214.7 14661.5 55215.7 14662.3 55215.6 14684.4 55237.7 14684.5 55238.9 14685.3 55239 14699.5 55266.9 14699.4 55267.3 14699.8 55267.6 14699.5 55268 14700 55268.3 14704.9 55299.2 14704.6 55299.7 14704.9 55300 14704.9 56000 14701.3 56004.7 14700.6 56004.2 14700 56004.9 12300 56004.9 12295.3 56001.3 12295.8 56000.6 12295.1 56000 12295.1 55300 12295.4 55299.5 12295.1 55299.2 12300 55268.3 12300.8 55267.5 12300.5 55266.9 12314.7 55239 12315.7 55238.5 12315.6 55237.7 12337.7 55215.6 12338.9 55215.5 12339 55214.7 12366.9 55200.5 12368 55200.7 12368.3 55200 12399.2 55195.1 12399.7 55195.4 12400 55195.1 14600 55195.1 14600.5 55195.4"/><path d="M 2125 52500 2125.4 52533.7 2126.7 52567.5 2128.7 52601.2 2131.6 52634.8 2135.3 52668.3 2139.9 52701.8 2145.2 52735.1 2151.4 52768.2 2158.4 52801.3 2166.2 52834.1 2174.8 52866.7 2184.2 52899.1 2194.4 52931.3 2205.4 52963.2 2217.1 52994.9 2229.7 53026.2 2243 53057.2 2257 53087.9 2271.8 53118.2 2287.4 53148.2 2303.6 53177.7 2320.6 53206.9 2338.3 53235.6 2356.7 53263.9 2375.8 53291.7 2395.6 53319.1 2416 53345.9 2437.1 53372.3 2458.8 53398.1 2481.2 53423.4 2504.2 53448.1 2527.7 53472.3 2551.9 53495.8 2576.6 53518.8 2601.9 53541.2 2627.7 53562.9 2654.1 53584 2680.9 53604.4 2708.3 53624.2 2736.1 53643.3 2764.4 53661.7 2793.1 53679.4 2822.3 53696.4 2851.8 53712.6 2881.8 53728.2 2912.1 53743 2942.8 53757 2973.8 53770.3 3005.1 53782.9 3036.8 53794.6 3068.7 53805.6 3100.9 53815.8 3133.3 53825.2 3165.9 53833.8 3198.7 53841.6 3231.8 53848.6 3264.9 53854.8 3298.2 53860.1 3331.7 53864.7 3365.2 53868.4 3398.8 53871.3 3432.5 53873.3 3466.3 53874.6 3500 53875 3533.7 53874.6 3567.5 53873.3 3601.2 53871.3 3634.8 53868.4 3668.3 53864.7 3701.8 53860.1 3735.1 53854.8 3768.2 53848.6 3801.3 53841.6 3834.1 53833.8 3866.7 53825.2 3899.1 53815.8 3931.3 53805.6 3963.2 53794.6 3994.9 53782.9 4026.2 53770.3 4057.2 53757 4087.9 53743 4118.2 53728.2 4148.2 53712.6 4177.7 53696.4 4206.9 53679.4 4235.6 53661.7 4263.9 53643.3 4291.7 53624.2 4319.1 53604.4 4345.9 53584 4372.3 53562.9 4398.1 53541.2 4423.4 53518.8 4448.1 53495.8 4472.3 53472.3 4495.8 53448.1 4518.8 53423.4 4541.2 53398.1 4562.9 53372.3 4584 53345.9 4604.4 53319.1 4624.2 53291.7 4643.3 53263.9 4661.7 53235.6 4679.4 53206.9 4696.4 53177.7 4712.6 53148.2 4728.2 53118.2 4743 53087.9 4757 53057.2 4770.3 53026.2 4782.9 52994.9 4794.6 52963.2 4805.6 52931.3 4815.8 52899.1 4825.2 52866.7 4833.8 52834.1 4841.6 52801.3 4848.6 52768.2 4854.8 52735.1 4860.1 52701.8 4864.7 52668.3 4868.4 52634.8 4871.3 52601.2 4873.3 52567.5 4874.6 52533.7 4875 52500 4874.6 52466.3 4873.3 52432.5 4871.3 52398.8 4868.4 52365.2 4864.7 52331.7 4860.1 52298.2 4854.8 52264.9 4848.6 52231.8 4841.6 52198.7 4833.8 52165.9 4825.2 52133.3 4815.8 52100.9 4805.6 52068.7 4794.6 52036.8 4782.9 52005.1 4770.3 51973.8 4757 51942.8 4743 51912.1 4728.2 51881.8 4712.6 51851.8 4696.4 51822.3 4679.4 51793.1 4661.7 51764.4 4643.3 51736.1 4624.2 51708.3 4604.4 51680.9 4584 51654.1 4562.9 51627.7 4541.2 51601.9 4518.8 51576.6 4495.8 51551.9 4472.3 51527.7 4448.1 51504.2 4423.4 51481.2 4398.1 51458.8 4372.3 51437.1 4345.9 51416 4319.1 51395.6 4291.7 51375.8 4263.9 51356.7 4235.6 51338.3 4206.9 51320.6 4177.7 51303.6 4148.2 51287.4 4118.2 51271.8 4087.9 51257 4057.2 51243 4026.2 51229.7 3994.9 51217.1 3963.2 51205.4 3931.3 51194.4 3899.1 51184.2 3866.7 51174.8 3834.1 51166.2 3801.3 51158.4 3768.2 51151.4 3735.1 51145.2 3701.8 51139.9 3668.3 51135.3 3634.8 51131.6 3601.2 51128.7 3567.5 51126.7 3533.7 51125.4 3500 51125 3466.3 51125.4 3432.5 51126.7 3398.8 51128.7 3365.2 51131.6 3331.7 51135.3 3298.2 51139.9 3264.9 51145.2 3231.8 51151.4 3198.7 51158.4 3165.9 51166.2 3133.3 51174.8 3100.9 51184.2 3068.7 51194.4 3036.8 51205.4 3005.1 51217.1 2973.8 51229.7 2942.8 51243 2912.1 51257 2881.8 51271.8 2851.8 51287.4 2822.3 51303.6 2793.1 51320.6 2764.4 51338.3 2736.1 51356.7 2708.3 51375.8 2680.9 51395.6 2654.1 51416 2627.7 51437.1 2601.9 51458.8 2576.6 51481.2 2551.9 51504.2 2527.7 51527.7 2504.2 51551.9 2481.2 51576.6 2458.8 51601.9 2437.1 51627.7 2416 51654.1 2395.6 51680.9 2375.8 51708.3 2356.7 51736.1 2338.3 51764.4 2320.6 51793.1 2303.6 51822.3 2287.4 51851.8 2271.8 51881.8 2257 51912.1 2243 51942.8 2229.7 51973.8 2217.1 52005.1 2205.4 52036.8 2194.4 52068.7 2184.2 52100.9 2174.8 52133.3 2166.2 52165.9 2158.4 52198.7 2151.4 52231.8 2145.2 52264.9 2139.9 52298.2 2135.3 52331.7 2131.6 52365.2 2128.7 52398.8 2126.7 52432.5 2125.4 52466.3 2125 52500 M 60125 52500 60125.4 52533.7 60126.7 52567.5 60128.7 52601.2 60131.6 52634.8 60135.3 52668.3 60139.9 52701.8 60145.2 52735.1 60151.4 52768.2 60158.4 52801.3 60166.2 52834.1 60174.8 52866.7 60184.2 52899.1 60194.4 52931.3 60205.4 52963.2 60217.1 52994.9 60229.7 53026.2 60243 53057.2 60257 53087.9 60271.8 53118.2 60287.4 53148.2 60303.6 53177.7 60320.6 53206.9 60338.3 53235.6 60356.7 53263.9 60375.8 53291.7 60395.6 53319.1 60416 53345.9 60437.1 53372.3 60458.8 53398.1 60481.2 53423.4 60504.2 53448.1 60527.7 53472.3 60551.9 53495.8 60576.6 53518.8 60601.9 53541.2 60627.7 53562.9 60654.1 53584 60680.9 53604.4 60708.3 53624.2 60736.1 53643.3 60764.4 53661.7 60793.1 53679.4 60822.3 53696.4 60851.8 53712.6 60881.8 53728.2 60912.1 53743 60942.8 53757 60973.8 53770.3 61005.1 53782.9 61036.8 53794.6 61068.7 53805.6 61100.9 53815.8 61133.3 53825.2 61165.9 53833.8 61198.7 53841.6 61231.8 53848.6 61264.9 53854.8 61298.2 53860.1 61331.7 53864.7 61365.2 53868.4 61398.8 53871.3 61432.5 53873.3 61466.3 53874.6 61500 53875 61533.7 53874.6 61567.5 53873.3 61601.2 53871.3 61634.8 53868.4 61668.3 53864.7 61701.8 53860.1 61735.1 53854.8 61768.2 53848.6 61801.3 53841.6 61834.1 53833.8 61866.7 53825.2 61899.1 53815.8 61931.3 53805.6 61963.2 53794.6 61994.9 53782.9 62026.2 53770.3 62057.2 53757 62087.9 53743 62118.2 53728.2 62148.2 53712.6 62177.7 53696.4 62206.9 53679.4 62235.6 53661.7 62263.9 53643.3 62291.7 53624.2 62319.1 53604.4 62345.9 53584 62372.3 53562.9 62398.1 53541.2 62423.4 53518.8 62448.1 53495.8 62472.3 53472.3 62495.8 53448.1 62518.8 53423.4 62541.2 53398.1 62562.9 53372.3 62584 53345.9 62604.4 53319.1 62624.2 53291.7 62643.3 53263.9 62661.7 53235.6 62679.4 53206.9 62696.4 53177.7 62712.6 53148.2 62728.2 53118.2 62743 53087.9 62757 53057.2 62770.3 53026.2 62782.9 52994.9 62794.6 52963.2 62805.6 52931.3 62815.8 52899.1 62825.2 52866.7 62833.8 52834.1 62841.6 52801.3 62848.6 52768.2 62854.8 52735.1 62860.1 52701.8 62864.7 52668.3 62868.4 52634.8 62871.3 52601.2 62873.3 52567.5 62874.6 52533.7 62875 52500 62874.6 52466.3 62873.3 52432.5 62871.3 52398.8 62868.4 52365.2 62864.7 52331.7 62860.1 52298.2 62854.8 52264.9 62848.6 52231.8 62841.6 52198.7 62833.8 52165.9 62825.2 52133.3 62815.8 52100.9 62805.6 52068.7 62794.6 52036.8 62782.9 52005.1 62770.3 51973.8 62757 51942.8 62743 51912.1 62728.2 51881.8 62712.6 51851.8 62696.4 51822.3 62679.4 51793.1 62661.7 51764.4 62643.3 51736.1 62624.2 51708.3 62604.4 51680.9 62584 51654.1 62562.9 51627.7 62541.2 51601.9 62518.8 51576.6 62495.8 51551.9 62472.3 51527.7 62448.1 51504.2 62423.4 51481.2 62398.1 51458.8 62372.3 51437.1 62345.9 51416 62319.1 51395.6 62291.7 51375.8 62263.9 51356.7 62235.6 51338.3 62206.9 51320.6 62177.7 51303.6 62148.2 51287.4 62118.2 51271.8 62087.9 51257 62057.2 51243 62026.2 51229.7 61994.9 51217.1 61963.2 51205.4 61931.3 51194.4 61899.1 51184.2 61866.7 51174.8 61834.1 51166.2 61801.3 51158.4 61768.2 51151.4 61735.1 51145.2 61701.8 51139.9 61668.3 51135.3 61634.8 51131.6 61601.2 51128.7 61567.5 51126.7 61533.7 51125.4 61500 51125 61466.3 51125.4 61432.5 51126.7 61398.8 51128.7 61365.2 51131.6 61331.7 51135.3 61298.2 51139.9 61264.9 51145.2 61231.8 51151.4 61198.7 51158.4 61165.9 51166.2 61133.3 51174.8 61100.9 51184.2 61068.7 51194.4 61036.8 51205.4 61005.1 51217.1 60973.8 51229.7 60942.8 51243 60912.1 51257 60881.8 51271.8 60851.8 51287.4 60822.3 51303.6 60793.1 51320.6 60764.4 51338.3 60736.1 51356.7 60708.3 51375.8 60680.9 51395.6 60654.1 51416 60627.7 51437.1 60601.9 51458.8 60576.6 51481.2 60551.9 51504.2 60527.7 51527.7 60504.2 51551.9 60481.2 51576.6 60458.8 51601.9 60437.1 51627.7 60416 51654.1 60395.6 51680.9 60375.8 51708.3 60356.7 51736.1 60338.3 51764.4 60320.6 51793.1 60303.6 51822.3 60287.4 51851.8 60271.8 51881.8 60257 51912.1 60243 51942.8 60229.7 51973.8 60217.1 52005.1 60205.4 52036.8 60194.4 52068.7 60184.2 52100.9 60174.8 52133.3 60166.2 52165.9 60158.4 52198.7 60151.4 52231.8 60145.2 52264.9 60139.9 52298.2 60135.3 52331.7 60131.6 52365.2 60128.7 52398.8 60126.7 52432.5 60125.4 52466.3 60125 52500 M 2125 3500 2125.4 3533.7 2126.7 3567.5 2128.7 3601.2 2131.6 3634.8 2135.3 3668.3 2139.9 3701.8 2145.2 3735.1 2151.4 3768.2 2158.4 3801.3 2166.2 3834.1 2174.8 3866.7 2184.2 3899.1 2194.4 3931.3 2205.4 3963.2 2217.1 3994.9 2229.7 4026.2 2243 4057.2 2257 4087.9 2271.8 4118.2 2287.4 4148.2 2303.6 4177.7 2320.6 4206.9 2338.3 4235.6 2356.7 4263.9 2375.8 4291.7 2395.6 4319.1 2416 4345.9 2437.1 4372.3 2458.8 4398.1 2481.2 4423.4 2504.2 4448.1 2527.7 4472.3 2551.9 4495.8 2576.6 4518.8 2601.9 4541.2 2627.7 4562.9 2654.1 4584 2680.9 4604.4 2708.3 4624.2 2736.1 4643.3 2764.4 4661.7 2793.1 4679.4 2822.3 4696.4 2851.8 4712.6 2881.8 4728.2 2912.1 4743 2942.8 4757 2973.8 4770.3 3005.1 4782.9 3036.8 4794.6 3068.7 4805.6 3100.9 4815.8 3133.3 4825.2 3165.9 4833.8 3198.7 4841.6 3231.8 4848.6 3264.9 4854.8 3298.2 4860.1 3331.7 4864.7 3365.2 4868.4 3398.8 4871.3 3432.5 4873.3 3466.3 4874.6 3500 4875 3533.7 4874.6 3567.5 4873.3 3601.2 4871.3 3634.8 4868.4 3668.3 4864.7 3701.8 4860.1 3735.1 4854.8 3768.2 4848.6 3801.3 4841.6 3834.1 4833.8 3866.7 4825.2 3899.1 4815.8 3931.3 4805.6 3963.2 4794.6 3994.9 4782.9 4026.2 4770.3 4057.2 4757 4087.9 4743 4118.2 4728.2 4148.2 4712.6 4177.7 4696.4 4206.9 4679.4 4235.6 4661.7 4263.9 4643.3 4291.7 4624.2 4319.1 4604.4 4345.9 4584 4372.3 4562.9 4398.1 4541.2 4423.4 4518.8 4448.1 4495.8 4472.3 4472.3 4495.8 4448.1 4518.8 4423.4 4541.2 4398.1 4562.9 4372.3 4584 4345.9 4604.4 4319.1 4624.2 4291.7 4643.3 4263.9 4661.7 4235.6 4679.4 4206.9 4696.4 4177.7 4712.6 4148.2 4728.2 4118.2 4743 4087.9 4757 4057.2 4770.3 4026.2 4782.9 3994.9 4794.6 3963.2 4805.6 3931.3 4815.8 3899.1 4825.2 3866.7 4833.8 3834.1 4841.6 3801.3 4848.6 3768.2 4854.8 3735.1 4860.1 3701.8 4864.7 3668.3 4868.4 3634.8 4871.3 3601.2 4873.3 3567.5 4874.6 3533.7 4875 3500 4874.6 3466.3 4873.3 3432.5 4871.3 3398.8 4868.4 3365.2 4864.7 3331.7 4860.1 3298.2 4854.8 3264.9 4848.6 3231.8 4841.6 3198.7 4833.8 3165.9 4825.2 3133.3 4815.8 3100.9 4805.6 3068.7 4794.6 3036.8 4782.9 3005.1 4770.3 2973.8 4757 2942.8 4743 2912.1 4728.2 2881.8 4712.6 2851.8 4696.4 2822.3 4679.4 2793.1 4661.7 2764.4 4643.3 2736.1 4624.2 2708.3 4604.4 2680.9 4584 2654.1 4562.9 2627.7 4541.2 2601.9 4518.8 2576.6 4495.8 2551.9 4472.3 2527.7 4448.1 2504.2 4423.4 2481.2 4398.1 2458.8 4372.3 2437.1 4345.9 2416 4319.1 2395.6 4291.7 2375.8 4263.9 2356.7 4235.6 2338.3 4206.9 2320.6 4177.7 2303.6 4148.2 2287.4 4118.2 2271.8 4087.9 2257 4057.2 2243 4026.2 2229.7 3994.9 2217.1 3963.2 2205.4 3931.3 2194.4 3899.1 2184.2 3866.7 2174.8 3834.1 2166.2 3801.3 2158.4 3768.2 2151.4 3735.1 2145.2 3701.8 2139.9 3668.3 2135.3 3634.8 2131.6 3601.2 2128.7 3567.5 2126.7 3533.7 2125.4 3500 2125 3466.3 2125.4 3432.5 2126.7 3398.8 2128.7 3365.2 2131.6 3331.7 2135.3 3298.2 2139.9 3264.9 2145.2 3231.8 2151.4 3198.7 2158.4 3165.9 2166.2 3133.3 2174.8 3100.9 2184.2 3068.7 2194.4 3036.8 2205.4 3005.1 2217.1 2973.8 2229.7 2942.8 2243 2912.1 2257 2881.8 2271.8 2851.8 2287.4 2822.3 2303.6 2793.1 2320.6 2764.4 2338.3 2736.1 2356.7 2708.3 2375.8 2680.9 2395.6 2654.1 2416 2627.7 2437.1 2601.9 2458.8 2576.6 2481.2 2551.9 2504.2 2527.7 2527.7 2504.2 2551.9 2481.2 2576.6 2458.8 2601.9 2437.1 2627.7 2416 2654.1 2395.6 2680.9 2375.8 2708.3 2356.7 2736.1 2338.3 2764.4 2320.6 2793.1 2303.6 2822.3 2287.4 2851.8 2271.8 2881.8 2257 2912.1 2243 2942.8 2229.7 2973.8 2217.1 3005.1 2205.4 3036.8 2194.4 3068.7 2184.2 3100.9 2174.8 3133.3 2166.2 3165.9 2158.4 3198.7 2151.4 3231.8 2145.2 3264.9 2139.9 3298.2 2135.3 3331.7 2131.6 3365.2 2128.7 3398.8 2126.7 3432.5 2125.4 3466.3 2125 3500 M 60125 3500 60125.4 3533.7 60126.7 3567.5 60128.7 3601.2 60131.6 3634.8 60135.3 3668.3 60139.9 3701.8 60145.2 3735.1 60151.4 3768.2 60158.4 3801.3 60166.2 3834.1 60174.8 3866.7 60184.2 3899.1 60194.4 3931.3 60205.4 3963.2 60217.1 3994.9 60229.7 4026.2 60243 4057.2 60257 4087.9 60271.8 4118.2 60287.4 4148.2 60303.6 4177.7 60320.6 4206.9 60338.3 4235.6 60356.7 4263.9 60375.8 4291.7 60395.6 4319.1 60416 4345.9 60437.1 4372.3 60458.8 4398.1 60481.2 4423.4 60504.2 4448.1 60527.7 4472.3 60551.9 4495.8 60576.6 4518.8 60601.9 4541.2 60627.7 4562.9 60654.1 4584 60680.9 4604.4 60708.3 4624.2 60736.1 4643.3 60764.4 4661.7 60793.1 4679.4 60822.3 4696.4 60851.8 4712.6 60881.8 4728.2 60912.1 4743 60942.8 4757 60973.8 4770.3 61005.1 4782.9 61036.8 4794.6 61068.7 4805.6 61100.9 4815.8 61133.3 4825.2 61165.9 4833.8 61198.7 4841.6 61231.8 4848.6 61264.9 4854.8 61298.2 4860.1 61331.7 4864.7 61365.2 4868.4 61398.8 4871.3 61432.5 4873.3 61466.3 4874.6 61500 4875 61533.7 4874.6 61567.5 4873.3 61601.2 4871.3 61634.8 4868.4 61668.3 4864.7 61701.8 4860.1 61735.1 4854.8 61768.2 4848.6 61801.3 4841.6 61834.1 4833.8 61866.7 4825.2 61899.1 4815.8 61931.3 4805.6 61963.2 4794.6 61994.9 4782.9 62026.2 4770.3 62057.2 4757 62087.9 4743 62118.2 4728.2 62148.2 4712.6 62177.7 4696.4 62206.9 4679.4 62235.6 4661.7 62263.9 4643.3 62291.7 4624.2 62319.1 4604.4 62345.9 4584 62372.3 4562.9 62398.1 4541.2 62423.4 4518.8 62448.1 4495.8 62472.3 4472.3 62495.8 4448.1 62518.8 4423.4 62541.2 4398.1 62562.9 4372.3 62584 4345.9 62604.4 4319.1 62624.2 4291.7 62643.3 4263.9 62661.7 4235.6 62679.4 4206.9 62696.4 4177.7 62712.6 4148.2 62728.2 4118.2 62743 4087.9 62757 4057.2 62770.3 4026.2 62782.9 3994.9 62794.6 3963.2 62805.6 3931.3 62815.8 3899.1 62825.2 3866.7 62833.8 3834.1 62841.6 3801.3 62848.6 3768.2 62854.8 3735.1 62860.1 3701.8 62864.7 3668.3 62868.4 3634.8 62871.3 3601.2 62873.3 3567.5 62874.6 3533.7 62875 3500 62874.6 3466.3 62873.3 3432.5 62871.3 3398.8 62868.4 3365.2 62864.7 3331.7 62860.1 3298.2 62854.8 3264.9 62848.6 3231.8 62841.6 3198.7 62833.8 3165.9 62825.2 3133.3 62815.8 3100.9 62805.6 3068.7 62794.6 3036.8 62782.9 3005.1 62770.3 2973.8 62757 2942.8 62743 2912.1 62728.2 2881.8 62712.6 2851.8 62696.4 2822.3 62679.4 2793.1 62661.7 2764.4 62643.3 2736.1 62624.2 2708.3 62604.4 2680.9 62584 2654.1 62562.9 2627.7 62541.2 2601.9 62518.8 2576.6 62495.8 2551.9 62472.3 2527.7 62448.1 2504.2 62423.4 2481.2 62398.1 2458.8 62372.3 2437.1 62345.9 2416 62319.1 2395.6 62291.7 2375.8 62263.9 2356.7 62235.6 2338.3 62206.9 2320.6 62177.7 2303.6 62148.2 2287.4 62118.2 2271.8 62087.9 2257 62057.2 2243 62026.2 2229.7 61994.9 2217.1 61963.2 2205.4 61931.3 2194.4 61899.1 2184.2 61866.7 2174.8 61834.1 2166.2 61801.3 2158.4 61768.2 2151.4 61735.1 2145.2 61701.8 2139.9 61668.3 2135.3 61634.8 2131.6 61601.2 2128.7 61567.5 2126.7 61533.7 2125.4 61500 2125 61466.3 2125.4 61432.5 2126.7 61398.8 2128.7 61365.2 2131.6 61331.7 2135.3 61298.2 2139.9 61264.9 2145.2 61231.8 2151.4 61198.7 2158.4 61165.9 2166.2 61133.3 2174.8 61100.9 2184.2 61068.7 2194.4 61036.8 2205.4 61005.1 2217.1 60973.8 2229.7 60942.8 2243 60912.1 2257 60881.8 2271.8 60851.8 2287.4 60822.3 2303.6 60793.1 2320.6 60764.4 2338.3 60736.1 2356.7 60708.3 2375.8 60680.9 2395.6 60654.1 2416 60627.7 2437.1 60601.9 2458.8 60576.6 2481.2 60551.9 2504.2 60527.7 2527.7 60504.2 2551.9 60481.2 2576.6 60458.8 2601.9 60437.1 2627.7 60416 2654.1 60395.6 2680.9 60375.8 2708.3 60356.7 2736.1 60338.3 2764.4 60320.6 2793.1 60303.6 2822.3 60287.4 2851.8 60271.8 2881.8 60257 2912.1 60243 2942.8 60229.7 2973.8 60217.1 3005.1 60205.4 3036.8 60194.4 3068.7 60184.2 3100.9 60174.8 3133.3 60166.2 3165.9 60158.4 3198.7 60151.4 3231.8 60145.2 3264.9 60139.9 3298.2 60135.3 3331.7 60131.6 3365.2 60128.7 3398.8 60126.7 3432.5 60125.4 3466.3 60125 3500" fill="none" stroke-width="0"/><path d="M 62000 0 3000 0 M 62000 0 62072.5 0.9 62144.9 3.5 62217.3 7.9 62289.5 14 62361.6 21.9 62433.5 31.5 62505.1 42.8 62576.4 55.9 62647.4 70.7 62717.9 87.2 62788.1 105.4 62857.8 125.3 62927.1 146.8 62995.7 170.1 63063.8 195 63131.3 221.5 63198.1 249.6 63264.2 279.4 63329.6 310.7 63394.2 343.6 63458 378.1 63520.9 414.1 63582.9 451.6 63644 490.6 63704.2 531 63763.4 572.9 63821.5 616.3 63878.6 661 63934.5 707.1 63989.4 754.5 64043 803.2 64095.5 853.2 64146.8 904.5 64196.8 957 64245.5 1010.6 64292.9 1065.5 64339 1121.4 64383.7 1178.5 64427.1 1236.6 64469 1295.8 64509.4 1356 64548.4 1417.1 64585.9 1479.1 64621.9 1542 64656.4 1605.8 64689.3 1670.4 64720.6 1735.8 64750.4 1801.9 64778.5 1868.7 64805 1936.2 64829.9 2004.3 64853.2 2072.9 64874.7 2142.2 64894.6 2211.9 64912.8 2282.1 64929.3 2352.6 64944.1 2423.6 64957.2 2494.9 64968.5 2566.5 64978.1 2638.4 64986 2710.5 64992.1 2782.7 64996.5 2855.1 64999.1 2927.5 65000 3000 65000 53000 64999.1 53072.5 64996.5 53144.9 64992.1 53217.3 64986 53289.5 64978.1 53361.6 64968.5 53433.5 64957.2 53505.1 64944.1 53576.4 64929.3 53647.4 64912.8 53717.9 64894.6 53788.1 64874.7 53857.8 64853.2 53927.1 64829.9 53995.7 64805 54063.8 64778.5 54131.3 64750.4 54198.1 64720.6 54264.2 64689.3 54329.6 64656.4 54394.2 64621.9 54458 64585.9 54520.9 64548.4 54582.9 64509.4 54644 64469 54704.2 64427.1 54763.4 64383.7 54821.5 64339 54878.6 64292.9 54934.5 64245.5 54989.4 64196.8 55043 64146.8 55095.5 64095.5 55146.8 64043 55196.8 63989.4 55245.5 63934.5 55292.9 63878.6 55339 63821.5 55383.7 63763.4 55427.1 63704.2 55469 63644 55509.4 63582.9 55548.4 63520.9 55585.9 63458 55621.9 63394.2 55656.4 63329.6 55689.3 63264.2 55720.6 63198.1 55750.4 63131.3 55778.5 63063.8 55805 62995.7 55829.9 62927.1 55853.2 62857.8 55874.7 62788.1 55894.6 62717.9 55912.8 62647.4 55929.3 62576.4 55944.1 62505.1 55957.2 62433.5 55968.5 62361.6 55978.1 62289.5 55986 62217.3 55992.1 62144.9 55996.5 62072.5 55999.1 62000 56000 3000 56000 2927.5 55999.1 2855.1 55996.5 2782.7 55992.1 2710.5 55986 2638.4 55978.1 2566.5 55968.5 2494.9 55957.2 2423.6 55944.1 2352.6 55929.3 2282.1 55912.8 2211.9 55894.6 2142.2 55874.7 2072.9 55853.2 2004.3 55829.9 1936.2 55805 1868.7 55778.5 1801.9 55750.4 1735.8 55720.6 1670.4 55689.3 1605.8 55656.4 1542 55621.9 1479.1 55585.9 1417.1 55548.4 1356 55509.4 1295.8 55469 1236.6 55427.1 1178.5 55383.7 1121.4 55339 1065.5 55292.9 1010.6 55245.5 957 55196.8 904.5 55146.8 853.2 55095.5 803.2 55043 754.5 54989.4 707.1 54934.5 661 54878.6 616.3 54821.5 572.9 54763.4 531 54704.2 490.6 54644 451.6 54582.9 414.1 54520.9 378.1 54458 343.6 54394.2 310.7 54329.6 279.4 54264.2 249.6 54198.1 221.5 54131.3 195 54063.8 170.1 53995.7 146.8 53927.1 125.3 53857.8 105.4 53788.1 87.2 53717.9 70.7 53647.4 55.9 53576.4 42.8 53505.1 31.5 53433.5 21.9 53361.6 14 53289.5 7.9 53217.3 3.5 53144.9 0.9 53072.5 0 53000 0 3000 0.9 2927.5 3.5 2855.1 7.9 2782.7 14 2710.5 21.9 2638.4 31.5 2566.5 42.8 2494.9 55.9 2423.6 70.7 2352.6 87.2 2282.1 105.4 2211.9 125.3 2142.2 146.8 2072.9 170.1 2004.3 195 1936.2 221.5 1868.7 249.6 1801.9 279.4 1735.8 310.7 1670.4 343.6 1605.8 378.1 1542 414.1 1479.1 451.6 1417.1 490.6 1356 531 1295.8 572.9 1236.6 616.3 1178.5 661 1121.4 707.1 1065.5 754.5 1010.6 803.2 957 853.2 904.5 904.5 853.2 957 803.2 1010.6 754.5 1065.5 707.1 1121.4 661 1178.5 616.3 1236.6 572.9 1295.8 531 1356 490.6 1417.1 451.6 1479.1 414.1 1542 378.1 1605.8 343.6 1670.4 310.7 1735.8 279.4 1801.9 249.6 1868.7 221.5 1936.2 195 2004.3 170.1 2072.9 146.8 2142.2 125.3 2211.9 105.4 2282.1 87.2 2352.6 70.7 2423.6 55.9 2494.9 42.8 2566.5 31.5 2638.4 21.9 2710.5 14 2782.7 7.9 2855.1 3.5 2927.5 0.9 3000 0" fill="none" stroke-width="203.2"/></g></svg>